<svg version="1.1" id="Layer_1" xmlns="http://www.w3.org/2000/svg" xmlns:xlink="http://www.w3.org/1999/xlink" x="0px" y="0px"
	 width="100%" viewBox="0 0 1634 2047" enable-background="new 0 0 1634 2047" xml:space="preserve">
<path fill="#FFDE00" opacity="1.000000" stroke="none" 
	d="
M1.000000,1911.000000 
	C1.000000,1274.378540 1.000000,637.756958 1.000000,1.067738 
	C545.582886,1.067738 1090.165771,1.067738 1635.000000,1.067738 
	C1635.000000,637.370911 1635.000000,1273.741821 1634.545898,1910.603638 
	C1632.092651,1911.081787 1630.093384,1911.057983 1628.094116,1911.057983 
	C1087.895020,1911.056396 547.696045,1911.056274 7.496999,1911.053833 
	C5.331333,1911.053833 3.165666,1911.018799 1.000000,1911.000000 
M1485.500000,1209.000000 
	C1520.922485,1209.000000 1556.344971,1209.000000 1591.672607,1209.000000 
	C1591.672607,818.317322 1591.672607,428.269135 1591.672607,38.317848 
	C1073.644897,38.317848 555.936340,38.317848 38.320953,38.317848 
	C38.320953,428.683197 38.320953,818.731018 38.320953,1209.000000 
	C520.594360,1209.000000 1002.547180,1209.000000 1485.500000,1209.000000 
M478.015137,1420.808105 
	C477.121185,1420.444458 476.227234,1420.080811 475.096954,1419.620972 
	C478.829193,1418.234619 482.322174,1417.133423 485.652191,1415.663208 
	C495.744293,1411.207642 504.039825,1404.686157 507.840546,1393.936035 
	C514.362915,1375.487793 510.701508,1344.246338 479.927185,1335.286133 
	C467.139923,1331.563110 453.465424,1329.696899 440.125031,1329.296021 
	C405.656647,1328.260620 371.149628,1328.507935 336.657867,1328.264771 
	C335.544556,1328.256836 334.429535,1328.487549 333.277283,1328.611206 
	C333.277283,1392.132935 333.277283,1455.380737 333.277283,1519.000977 
	C348.324066,1519.000977 363.120392,1519.107178 377.914642,1518.977539 
	C403.400696,1518.754150 428.902008,1518.835083 454.364288,1517.900024 
	C468.751678,1517.371704 482.766052,1513.841919 494.992798,1505.640503 
	C513.305054,1493.357056 517.805359,1475.289795 514.824402,1454.786865 
	C512.170837,1436.535767 499.750793,1427.096558 483.114624,1422.068359 
	C481.683990,1421.635864 480.219482,1421.315552 478.015137,1420.808105 
M1531.966919,1702.318359 
	C1507.215088,1697.551636 1485.727539,1702.130859 1470.311768,1724.473145 
	C1459.499390,1708.816650 1445.504395,1700.069092 1426.391602,1700.494141 
	C1407.842285,1700.906738 1392.832886,1708.161865 1380.856689,1724.147949 
	C1380.856689,1716.486328 1380.856689,1710.392334 1380.856689,1704.127930 
	C1359.944092,1704.127930 1339.398193,1704.127930 1319.448975,1704.127930 
	C1319.448975,1748.491821 1319.448975,1792.540527 1319.448975,1836.456787 
	C1341.349365,1836.456787 1362.427490,1836.456787 1383.835815,1836.456787 
	C1383.835815,1834.285767 1383.835815,1832.473022 1383.835815,1830.660278 
	C1383.836304,1805.663818 1383.772705,1780.667114 1383.912231,1755.671387 
	C1383.931396,1752.255493 1384.418701,1748.631714 1385.652344,1745.481201 
	C1387.595215,1740.519043 1392.370728,1738.390503 1397.956909,1739.078979 
	C1403.235352,1739.729736 1406.020630,1742.311157 1407.101440,1748.088989 
	C1407.648193,1751.011963 1407.863281,1754.035522 1407.870361,1757.014526 
	C1407.928833,1781.677490 1407.903687,1806.340576 1407.903809,1831.003662 
	C1407.903809,1832.778076 1407.903809,1834.552490 1407.903809,1836.358398 
	C1429.867676,1836.358398 1451.245972,1836.358398 1472.866211,1836.358398 
	C1472.866211,1834.139526 1472.866089,1832.314941 1472.866211,1830.490356 
	C1472.866577,1805.660645 1472.844604,1780.830811 1472.898193,1756.001221 
	C1472.904175,1753.191040 1472.964355,1750.287964 1473.645630,1747.591064 
	C1475.210205,1741.396851 1479.461182,1738.603271 1485.892578,1739.030640 
	C1491.796753,1739.422852 1495.028076,1742.396729 1496.027222,1748.736084 
	C1496.491699,1751.683350 1496.687866,1754.701294 1496.694092,1757.687744 
	C1496.745239,1782.184204 1496.717896,1806.680664 1496.733521,1831.177124 
	C1496.734619,1832.931763 1496.887695,1834.686279 1496.975342,1836.550293 
	C1518.606445,1836.550293 1539.708130,1836.550293 1561.067749,1836.550293 
	C1561.183105,1835.070923 1561.371582,1833.774658 1561.372314,1832.478394 
	C1561.387207,1806.315552 1561.462891,1780.152100 1561.316040,1753.990112 
	C1561.282471,1748.016968 1560.900879,1741.976074 1559.925903,1736.091309 
	C1557.238525,1719.872070 1549.733887,1707.322388 1531.966919,1702.318359 
M140.500000,1645.996826 
	C114.242035,1645.996826 87.984077,1645.996826 61.665054,1645.996826 
	C61.665054,1709.834595 61.665054,1773.062134 61.665054,1836.434082 
	C86.374420,1836.434082 110.756935,1836.434082 135.638519,1836.434082 
	C135.638519,1814.884033 135.638519,1793.648682 135.638519,1772.003174 
	C142.763519,1772.003174 149.406616,1772.250366 156.024261,1771.945190 
	C165.822464,1771.493164 175.719788,1771.379639 185.367859,1769.831665 
	C211.666702,1765.611694 238.680679,1751.895874 240.604431,1711.426880 
	C242.077209,1680.444458 227.248322,1659.219971 197.528244,1650.817993 
	C179.135284,1645.618042 160.318176,1645.941040 140.500000,1645.996826 
M629.559631,1438.558105 
	C629.559631,1465.299561 629.559631,1492.041016 629.559631,1518.785522 
	C651.542419,1518.785522 672.817078,1518.785522 694.320068,1518.785522 
	C694.421265,1517.460449 694.583008,1516.326294 694.583557,1515.192261 
	C694.596130,1489.036377 694.691345,1462.879761 694.516724,1436.724976 
	C694.474609,1430.424194 693.992676,1424.047607 692.901672,1417.848755 
	C690.549194,1404.483643 684.751526,1393.204712 671.670471,1387.182373 
	C648.807678,1376.656982 621.419006,1383.928711 606.811035,1404.307007 
	C606.691956,1404.473145 606.266663,1404.419922 605.295410,1404.589233 
	C605.295410,1379.136963 605.295410,1353.796997 605.295410,1328.627075 
	C583.530029,1328.627075 562.455322,1328.627075 541.427124,1328.627075 
	C541.427124,1392.235840 541.427124,1455.463013 541.427124,1518.793945 
	C562.830139,1518.793945 583.924805,1518.793945 605.496094,1518.793945 
	C605.496094,1516.796387 605.496094,1514.993652 605.496094,1513.190918 
	C605.496155,1488.700928 605.475708,1464.211060 605.522583,1439.721069 
	C605.528320,1436.732666 605.585022,1433.683960 606.159607,1430.769775 
	C607.365112,1424.655518 612.394714,1420.912476 618.387329,1421.258301 
	C624.759155,1421.625854 628.171936,1424.899414 629.065430,1431.609131 
	C629.328796,1433.586914 629.398315,1435.590454 629.559631,1438.558105 
M1222.180542,1719.504150 
	C1222.180420,1740.827393 1222.190186,1762.150757 1222.166870,1783.473999 
	C1222.164185,1785.968994 1222.220825,1788.501953 1221.832642,1790.951172 
	C1220.809570,1797.405029 1216.466553,1801.218384 1210.362671,1801.327637 
	C1203.649048,1801.447876 1199.972168,1798.553589 1198.557739,1791.623047 
	C1198.031128,1789.043457 1197.991455,1786.333618 1197.987183,1783.682861 
	C1197.947266,1758.861328 1197.963501,1734.039795 1197.963379,1709.218262 
	C1197.963379,1707.471436 1197.963379,1705.724487 1197.963379,1704.058350 
	C1176.100586,1704.058350 1154.989624,1704.058350 1133.665527,1704.058350 
	C1133.551514,1705.411743 1133.373535,1706.544189 1133.373047,1707.676636 
	C1133.360596,1733.997437 1133.269775,1760.318848 1133.443726,1786.638550 
	C1133.484253,1792.772217 1134.011597,1798.973267 1135.053711,1805.015991 
	C1137.752441,1820.666016 1145.234863,1832.657227 1161.409668,1837.539673 
	C1184.183838,1844.414673 1208.124146,1837.162842 1223.007080,1818.811157 
	C1223.464111,1818.247803 1223.976562,1817.729492 1225.457275,1816.088257 
	C1225.457275,1823.847656 1225.457275,1830.202881 1225.457275,1836.459229 
	C1246.549927,1836.459229 1266.981445,1836.459229 1286.920166,1836.459229 
	C1286.920166,1792.127075 1286.920166,1748.092896 1286.920166,1704.160767 
	C1264.881714,1704.160767 1243.670044,1704.160767 1222.180542,1704.160767 
	C1222.180542,1709.218018 1222.180542,1713.862061 1222.180542,1719.504150 
M822.551697,1725.973022 
	C814.295654,1716.406860 804.018555,1709.900635 792.101013,1705.890991 
	C773.516968,1699.638428 754.445618,1699.182739 735.356262,1702.179443 
	C703.387329,1707.198364 677.439026,1727.601440 675.389526,1766.112549 
	C673.608032,1799.586304 691.142517,1825.635010 723.237549,1835.153931 
	C742.966614,1841.005371 763.013062,1841.166504 783.001099,1836.862183 
	C834.004639,1825.879150 855.098877,1767.482910 822.551697,1725.973022 
M956.009583,1758.630493 
	C955.863708,1760.121948 955.732178,1761.615112 955.569885,1763.104736 
	C951.860596,1797.144897 969.945679,1824.879150 1002.614685,1835.155762 
	C1020.117737,1840.661621 1038.024292,1840.921265 1056.006592,1838.637329 
	C1070.026611,1836.856567 1083.417847,1833.083252 1094.381226,1823.456299 
	C1103.687988,1815.283936 1107.683350,1804.823608 1107.775391,1792.346436 
	C1089.395264,1792.346436 1071.450928,1792.346436 1053.505859,1792.333618 
	C1047.854736,1806.503296 1041.840332,1810.489868 1030.777954,1807.398926 
	C1021.331970,1804.759766 1016.289246,1793.947021 1018.629944,1780.779541 
	C1048.966431,1780.779541 1079.379272,1780.779541 1109.904053,1780.779541 
	C1109.904053,1772.740112 1110.707031,1765.013306 1109.759155,1757.507812 
	C1106.401001,1730.916870 1092.230347,1712.776123 1066.259277,1704.684570 
	C1049.704956,1699.527100 1032.749390,1699.497681 1015.827820,1702.118896 
	C984.533813,1706.966309 960.675537,1726.658813 956.009583,1758.630493 
M249.098740,1797.308960 
	C255.597336,1813.420410 267.174042,1824.645020 282.805542,1831.727417 
	C299.777039,1839.416870 317.770782,1840.766724 336.084869,1839.509766 
	C350.651276,1838.510010 364.833130,1835.993530 377.462006,1828.027710 
	C390.451630,1819.834351 396.813660,1808.001587 396.932922,1792.381714 
	C378.526489,1792.381714 360.442719,1792.381714 342.308197,1792.381714 
	C342.083008,1793.315186 341.914856,1794.128174 341.690369,1794.925293 
	C338.861389,1804.969971 334.225891,1808.399658 324.019257,1808.012085 
	C315.675568,1807.695190 309.745941,1802.481079 308.084747,1793.549194 
	C307.340942,1789.549683 307.244995,1785.429688 306.807770,1780.871338 
	C338.005127,1780.871338 368.419189,1780.871338 399.025574,1780.871338 
	C399.025574,1772.822144 399.790588,1765.115479 398.887177,1757.609497 
	C395.732086,1731.394653 381.972961,1713.008301 356.404327,1705.187988 
	C346.850128,1702.265747 336.512878,1701.384888 326.458252,1700.748047 
	C313.595795,1699.933472 300.846802,1701.779419 288.662018,1706.238647 
	C244.589722,1722.367310 237.970001,1764.767822 249.098740,1797.308960 
M863.780457,1459.500122 
	C863.516479,1448.009888 863.491211,1436.508179 862.932922,1425.032227 
	C862.085449,1407.609375 853.586853,1395.465942 836.890198,1389.743896 
	C811.449219,1381.025146 785.588440,1380.481323 759.683716,1387.204346 
	C748.514832,1390.103027 738.765686,1395.894165 732.108826,1405.784912 
	C728.385620,1411.317139 725.985535,1417.354370 725.829041,1424.149414 
	C743.675781,1424.149414 760.949707,1424.149414 778.265137,1424.149414 
	C778.840759,1422.122314 779.180359,1420.333008 779.851074,1418.677734 
	C781.725220,1414.052002 785.815125,1411.880005 792.164978,1412.166138 
	C796.702881,1412.370728 801.223511,1413.376587 802.255371,1418.541260 
	C803.233582,1423.437256 803.203430,1428.534668 803.651306,1433.962769 
	C798.869080,1433.962769 795.191650,1433.655518 791.581726,1434.018921 
	C779.675537,1435.217407 767.630127,1435.840210 755.937378,1438.179688 
	C732.803955,1442.808594 721.920044,1454.363770 719.375671,1475.116211 
	C716.126892,1501.613892 732.883423,1521.256836 759.413940,1522.117676 
	C776.111816,1522.659424 791.609497,1519.744141 804.117554,1506.170410 
	C804.835754,1510.898804 805.426453,1514.788086 806.023438,1518.718262 
	C825.282104,1518.718262 844.349854,1518.718262 863.780457,1518.718262 
	C863.780457,1499.100220 863.780457,1479.800293 863.780457,1459.500122 
M1116.054565,1384.336792 
	C1106.084106,1383.896362 1096.099121,1382.888794 1086.146729,1383.146606 
	C1070.695435,1383.546753 1055.642334,1386.250366 1042.616821,1395.451294 
	C1032.725952,1402.437866 1027.182251,1412.016968 1025.978027,1424.442627 
	C1035.054443,1424.442627 1043.700073,1424.442627 1052.345703,1424.442627 
	C1061.131836,1424.442627 1069.917847,1424.442627 1078.541016,1424.442627 
	C1080.842285,1414.250244 1086.051880,1410.643433 1095.093506,1412.410645 
	C1102.701172,1413.897583 1105.395630,1420.832642 1103.146973,1433.922729 
	C1100.627686,1433.922729 1097.984863,1433.704712 1095.388428,1433.959473 
	C1082.329956,1435.240723 1069.096436,1435.692261 1056.273315,1438.211914 
	C1032.020020,1442.977661 1020.884216,1455.709717 1019.463989,1478.027222 
	C1018.131104,1498.972046 1028.997192,1515.901367 1048.309692,1520.270752 
	C1068.274658,1524.787720 1087.445801,1522.975586 1103.088257,1507.499146 
	C1103.368286,1507.222046 1103.917236,1507.216675 1104.580811,1507.009644 
	C1105.182739,1511.066040 1105.755127,1514.923218 1106.313843,1518.688232 
	C1125.720947,1518.688232 1144.767700,1518.688232 1163.997681,1518.688232 
	C1163.997681,1493.536621 1164.070435,1468.733154 1163.951904,1443.930664 
	C1163.917725,1436.782104 1163.569458,1429.615723 1162.951294,1422.493408 
	C1161.660156,1407.613770 1154.346802,1396.625244 1140.342896,1391.116821 
	C1132.830444,1388.161621 1124.743042,1386.668335 1116.054565,1384.336792 
M450.519104,1674.047974 
	C445.181458,1675.886963 439.893616,1677.894287 434.485107,1679.493652 
	C431.779968,1680.293701 430.817749,1681.502686 430.924225,1684.372192 
	C431.161835,1690.774902 430.998505,1697.192749 430.998505,1703.940552 
	C424.794830,1703.940552 419.352814,1703.940552 413.790405,1703.940552 
	C413.790405,1717.019043 413.790405,1729.735596 413.790405,1742.790283 
	C419.611053,1742.790283 425.055786,1742.790283 430.998444,1742.790283 
	C430.998444,1744.911011 430.996582,1746.696289 430.998718,1748.481567 
	C431.020172,1766.467651 430.799591,1784.458252 431.131531,1802.438599 
	C431.472382,1820.900146 441.445923,1833.380249 459.196503,1837.696045 
	C479.920746,1842.735107 500.198486,1838.556885 520.374268,1833.891113 
	C521.178345,1833.705200 522.290283,1832.389893 522.298279,1831.591064 
	C522.420837,1819.320068 522.383728,1807.047363 522.383728,1794.340332 
	C519.228088,1794.951660 516.680054,1795.613037 514.090576,1795.900269 
	C511.456604,1796.192505 508.765045,1796.347290 506.127930,1796.157227 
	C498.734039,1795.624146 495.219727,1792.238770 494.744141,1784.900879 
	C494.400116,1779.592529 494.536194,1774.250854 494.518433,1768.923950 
	C494.489777,1760.333008 494.510773,1751.741821 494.510773,1742.587402 
	C505.022552,1742.587402 514.912598,1742.587402 524.744141,1742.587402 
	C524.744141,1729.409790 524.744141,1716.808716 524.744141,1703.634399 
	C514.629272,1703.634399 504.749115,1703.634399 494.299744,1703.634399 
	C494.299744,1688.527954 494.299744,1673.988281 494.299744,1659.028442 
	C479.518127,1664.129517 465.404755,1669.000122 450.519104,1674.047974 
M1283.491699,1425.002197 
	C1287.606201,1425.002197 1291.720703,1425.002197 1295.833130,1425.002197 
	C1295.833130,1411.754395 1295.833130,1399.042114 1295.833130,1385.941895 
	C1285.760498,1385.941895 1276.006714,1385.941895 1265.705322,1385.941895 
	C1265.705322,1371.050781 1265.705322,1356.545410 1265.705322,1342.079468 
	C1264.825073,1342.019531 1264.464966,1341.893799 1264.180054,1341.990112 
	C1244.362305,1348.702271 1224.533813,1355.383667 1204.780273,1362.280762 
	C1203.592773,1362.695190 1202.318848,1364.811646 1202.262451,1366.184448 
	C1201.997559,1372.628784 1202.144653,1379.090210 1202.144653,1386.077759 
	C1196.200684,1386.077759 1190.635986,1386.077759 1185.108398,1386.077759 
	C1185.108398,1399.336060 1185.108398,1412.051758 1185.108398,1425.142090 
	C1190.866577,1425.142090 1196.299927,1425.142090 1202.143677,1425.142090 
	C1202.143677,1427.307251 1202.142334,1429.096924 1202.143799,1430.886597 
	C1202.158081,1448.372681 1201.907227,1465.864136 1202.256104,1483.343628 
	C1202.678589,1504.519653 1213.981689,1517.573608 1234.322021,1520.953735 
	C1254.475952,1524.303223 1274.014404,1520.590942 1293.736206,1515.717651 
	C1293.736206,1503.519897 1293.742065,1491.544556 1293.722534,1479.569092 
	C1293.721313,1478.773071 1293.526123,1477.977295 1293.381714,1476.883423 
	C1289.115479,1477.557251 1285.066162,1478.509277 1280.971558,1478.781738 
	C1270.809448,1479.457886 1265.963623,1474.932373 1265.869629,1464.919678 
	C1265.786865,1456.093994 1265.849854,1447.266968 1265.848999,1438.440552 
	C1265.848511,1434.028687 1265.848877,1429.616821 1265.848877,1425.002197 
	C1271.869019,1425.002197 1277.181641,1425.002197 1283.491699,1425.002197 
M863.144348,1714.500000 
	C863.144348,1755.091553 863.144348,1795.683105 863.144348,1836.427490 
	C885.439819,1836.427490 907.152405,1836.427490 928.894958,1836.427490 
	C928.894958,1772.850220 928.894958,1709.615845 928.894958,1646.309814 
	C906.917969,1646.309814 885.200439,1646.309814 863.144348,1646.309814 
	C863.144348,1668.913208 863.144348,1691.206543 863.144348,1714.500000 
M602.493530,1703.810791 
	C585.925110,1703.810791 569.356750,1703.810791 552.804321,1703.810791 
	C552.804321,1748.515869 552.804321,1792.436646 552.804321,1836.758545 
	C573.095337,1836.758545 593.060852,1836.758545 613.026306,1836.758545 
	C614.657288,1836.758545 616.288269,1836.758545 618.579407,1836.758545 
	C618.579407,1834.560181 618.573364,1832.781860 618.580261,1831.003662 
	C618.657532,1811.174683 618.330566,1791.333252 618.938354,1771.520508 
	C619.469055,1754.222534 627.684631,1747.935181 644.645569,1750.681763 
	C650.158325,1751.574463 655.617432,1752.798828 661.434204,1753.936646 
	C661.434204,1738.094116 661.520996,1722.610474 661.288086,1707.131714 
	C661.266846,1705.722168 659.471191,1703.612915 658.030212,1703.066650 
	C646.786072,1698.803589 636.181152,1699.411499 626.908325,1708.024658 
	C623.576355,1711.119385 620.174805,1714.139038 615.914062,1718.000366 
	C615.914062,1712.519287 615.914062,1708.290894 615.914062,1703.810791 
	C611.443665,1703.810791 607.467468,1703.810791 602.493530,1703.810791 
M904.560486,1519.002686 
	C923.358398,1519.002686 942.156250,1519.002686 961.381836,1519.002686 
	C961.381836,1506.636230 961.302246,1494.661865 961.405396,1482.689209 
	C961.498718,1471.863403 961.310730,1461.003052 962.119934,1450.223633 
	C963.098572,1437.187134 970.728577,1431.197144 983.686462,1432.645996 
	C990.419006,1433.398682 997.077026,1434.818848 1004.247742,1436.017700 
	C1004.247742,1420.146606 1004.312439,1404.348145 1004.108826,1388.553345 
	C1004.094543,1387.446411 1002.289734,1385.834351 1000.987427,1385.355713 
	C990.127625,1381.366455 979.766418,1381.591187 970.606201,1389.709351 
	C966.939026,1392.959106 963.319702,1396.262695 958.863342,1400.276001 
	C958.863342,1394.889893 958.863342,1390.648926 958.863342,1386.343872 
	C937.520325,1386.343872 916.630554,1386.343872 895.719727,1386.343872 
	C895.719727,1430.699829 895.719727,1474.743286 895.719727,1519.002686 
	C898.594482,1519.002686 901.088135,1519.002686 904.560486,1519.002686 
z"/>
<path fill="#007DC6" opacity="1.000000" stroke="none" 
	d="
M1.000000,1911.455933 
	C3.165666,1911.018799 5.331333,1911.053833 7.496999,1911.053833 
	C547.696045,1911.056274 1087.895020,1911.056396 1628.094116,1911.057983 
	C1630.093384,1911.057983 1632.092651,1911.081787 1634.545898,1911.047241 
	C1635.000000,1956.656860 1635.000000,2002.313599 1635.000000,2047.941284 
	C1090.333374,2047.941284 545.666687,2047.941284 1.000000,2047.941284 
	C1.000000,2002.558960 1.000000,1957.235474 1.000000,1911.455933 
z"/>
<path fill="#000000" opacity="1.000000" stroke="none" 
	d="
M1485.000000,1209.000000 
	C1002.547180,1209.000000 520.594360,1209.000000 38.320953,1209.000000 
	C38.320953,818.731018 38.320953,428.683197 38.320953,38.317848 
	C555.936340,38.317848 1073.644897,38.317848 1591.672607,38.317848 
	C1591.672607,428.269135 1591.672607,818.317322 1591.672607,1209.000000 
	C1556.344971,1209.000000 1520.922485,1209.000000 1485.000000,1209.000000 
M1205.484619,981.044495 
	C1213.636353,970.358521 1222.133911,959.916260 1229.873169,948.939453 
	C1250.480591,919.711731 1267.949585,888.632690 1281.030273,855.357605 
	C1289.315552,834.281677 1296.288208,812.646240 1302.927246,790.979126 
	C1309.638428,769.076660 1313.793091,746.547791 1316.000610,723.712585 
	C1317.425537,708.972229 1319.379761,694.235474 1319.811890,679.459473 
	C1320.296875,662.879395 1319.742432,646.235779 1318.879761,629.659363 
	C1318.110718,614.881531 1317.037109,600.044861 1314.788818,585.435669 
	C1311.189331,562.045837 1306.049438,538.967346 1299.252930,516.213318 
	C1291.333862,489.700775 1281.516602,463.987427 1269.491333,439.130768 
	C1258.010010,415.398163 1244.658691,392.704041 1229.524902,371.095184 
	C1214.867798,350.167053 1199.055786,330.123535 1181.184570,311.862427 
	C1168.904419,299.314545 1156.282104,286.995697 1142.878906,275.680756 
	C1127.880127,263.018799 1112.211548,251.057907 1096.144287,239.774887 
	C1070.915527,222.058456 1043.873413,207.423416 1015.556274,195.159332 
	C980.671021,180.050690 944.647400,168.896957 907.248779,161.764465 
	C883.625671,157.259201 859.845825,154.486938 835.944397,153.239395 
	C818.904724,152.349991 801.729614,153.254669 784.653198,154.116241 
	C770.371338,154.836823 756.063416,156.091782 741.915161,158.135391 
	C725.439514,160.515137 708.955505,163.301147 692.776123,167.169800 
	C659.315491,175.170532 626.979858,186.606369 595.938477,201.546082 
	C568.012268,214.986435 541.397461,230.550690 516.258484,248.791519 
	C495.956726,263.522461 476.820801,279.562103 458.790070,296.889709 
	C440.678894,314.294556 424.372955,333.352356 409.040009,353.295441 
	C391.215454,376.479187 375.671722,401.081573 362.127472,426.912018 
	C346.602753,456.519501 334.089111,487.439240 325.056030,519.653076 
	C317.590515,546.276794 311.300323,573.187256 309.006622,600.849548 
	C307.577545,618.084167 305.364685,635.327698 305.256866,652.578186 
	C305.136169,671.887634 306.628479,691.237793 308.118958,710.516174 
	C309.167358,724.076111 310.703705,737.674316 313.225708,751.028137 
	C318.221527,777.480774 324.782104,803.570618 334.022491,828.930420 
	C342.091461,851.075378 350.653625,873.031006 362.318024,893.546387 
	C372.883667,912.129211 383.272552,930.939331 395.504395,948.413757 
	C408.746429,967.331421 423.182556,985.583618 438.634857,1002.741882 
	C459.263885,1025.648438 481.940552,1046.630371 506.724457,1065.105347 
	C534.577515,1085.868286 563.971985,1104.130737 595.493530,1118.916138 
	C619.214966,1130.042847 643.485168,1139.670532 668.641174,1146.992676 
	C695.974976,1154.948608 723.667114,1161.289917 752.066040,1163.966187 
	C768.956909,1165.557861 785.874573,1167.061279 802.815369,1167.852905 
	C812.881531,1168.323364 823.028320,1167.544800 833.116577,1166.950317 
	C846.435364,1166.165161 859.813416,1165.620239 873.019043,1163.866089 
	C891.486694,1161.412842 910.024597,1158.841797 928.164246,1154.706177 
	C961.998169,1146.992188 994.738159,1135.612671 1026.156494,1120.842163 
	C1052.517090,1108.449341 1077.721924,1094.006104 1101.686035,1077.272583 
	C1122.750610,1062.563599 1142.527710,1046.377686 1161.298706,1028.962158 
	C1171.869385,1019.154846 1181.624268,1008.450256 1191.496216,997.915283 
	C1196.319092,992.768677 1200.569458,987.085693 1205.484619,981.044495 
z"/>
<path fill="#017DC5" opacity="1.000000" stroke="none" 
	d="
M478.392914,1420.875610 
	C480.219482,1421.315552 481.683990,1421.635864 483.114624,1422.068359 
	C499.750793,1427.096558 512.170837,1436.535767 514.824402,1454.786865 
	C517.805359,1475.289795 513.305054,1493.357056 494.992798,1505.640503 
	C482.766052,1513.841919 468.751678,1517.371704 454.364288,1517.900024 
	C428.902008,1518.835083 403.400696,1518.754150 377.914642,1518.977539 
	C363.120392,1519.107178 348.324066,1519.000977 333.277283,1519.000977 
	C333.277283,1455.380737 333.277283,1392.132935 333.277283,1328.611206 
	C334.429535,1328.487549 335.544556,1328.256836 336.657867,1328.264771 
	C371.149628,1328.507935 405.656647,1328.260620 440.125031,1329.296021 
	C453.465424,1329.696899 467.139923,1331.563110 479.927185,1335.286133 
	C510.701508,1344.246338 514.362915,1375.487793 507.840546,1393.936035 
	C504.039825,1404.686157 495.744293,1411.207642 485.652191,1415.663208 
	C482.322174,1417.133423 478.829193,1418.234619 475.096954,1419.620972 
	C476.227234,1420.080811 477.121185,1420.444458 478.392914,1420.875610 
M421.977325,1478.660889 
	C425.487823,1477.734497 429.214539,1477.278687 432.464630,1475.785400 
	C439.590546,1472.511597 441.511536,1466.100220 441.406891,1458.835327 
	C441.304657,1451.731445 438.494019,1446.218628 431.605957,1443.538574 
	C423.029663,1440.201172 414.114319,1441.196167 405.376953,1441.229248 
	C405.376953,1454.112915 405.376953,1466.331787 405.376953,1478.755981 
	C410.825745,1478.755981 415.949097,1478.755981 421.977325,1478.660889 
M438.453918,1389.095459 
	C438.894287,1381.887451 436.788330,1375.869507 429.951721,1372.514526 
	C422.071960,1368.647827 413.660736,1369.354736 405.306854,1369.590698 
	C405.306854,1381.645630 405.306854,1393.049805 405.306854,1405.380249 
	C412.158142,1404.823975 418.822052,1404.885010 425.216675,1403.602905 
	C432.368408,1402.168823 437.452820,1397.797241 438.453918,1389.095459 
z"/>
<path fill="#027EC5" opacity="1.000000" stroke="none" 
	d="
M1532.345947,1702.473145 
	C1549.733887,1707.322388 1557.238525,1719.872070 1559.925903,1736.091309 
	C1560.900879,1741.976074 1561.282471,1748.016968 1561.316040,1753.990112 
	C1561.462891,1780.152100 1561.387207,1806.315552 1561.372314,1832.478394 
	C1561.371582,1833.774658 1561.183105,1835.070923 1561.067749,1836.550293 
	C1539.708130,1836.550293 1518.606445,1836.550293 1496.975342,1836.550293 
	C1496.887695,1834.686279 1496.734619,1832.931763 1496.733521,1831.177124 
	C1496.717896,1806.680664 1496.745239,1782.184204 1496.694092,1757.687744 
	C1496.687866,1754.701294 1496.491699,1751.683350 1496.027222,1748.736084 
	C1495.028076,1742.396729 1491.796753,1739.422852 1485.892578,1739.030640 
	C1479.461182,1738.603271 1475.210205,1741.396851 1473.645630,1747.591064 
	C1472.964355,1750.287964 1472.904175,1753.191040 1472.898193,1756.001221 
	C1472.844604,1780.830811 1472.866577,1805.660645 1472.866211,1830.490356 
	C1472.866089,1832.314941 1472.866211,1834.139526 1472.866211,1836.358398 
	C1451.245972,1836.358398 1429.867676,1836.358398 1407.903809,1836.358398 
	C1407.903809,1834.552490 1407.903809,1832.778076 1407.903809,1831.003662 
	C1407.903687,1806.340576 1407.928833,1781.677490 1407.870361,1757.014526 
	C1407.863281,1754.035522 1407.648193,1751.011963 1407.101440,1748.088989 
	C1406.020630,1742.311157 1403.235352,1739.729736 1397.956909,1739.078979 
	C1392.370728,1738.390503 1387.595215,1740.519043 1385.652344,1745.481201 
	C1384.418701,1748.631714 1383.931396,1752.255493 1383.912231,1755.671387 
	C1383.772705,1780.667114 1383.836304,1805.663818 1383.835815,1830.660278 
	C1383.835815,1832.473022 1383.835815,1834.285767 1383.835815,1836.456787 
	C1362.427490,1836.456787 1341.349365,1836.456787 1319.448975,1836.456787 
	C1319.448975,1792.540527 1319.448975,1748.491821 1319.448975,1704.127930 
	C1339.398193,1704.127930 1359.944092,1704.127930 1380.856689,1704.127930 
	C1380.856689,1710.392334 1380.856689,1716.486328 1380.856689,1724.147949 
	C1392.832886,1708.161865 1407.842285,1700.906738 1426.391602,1700.494141 
	C1445.504395,1700.069092 1459.499390,1708.816650 1470.311768,1724.473145 
	C1485.727539,1702.130859 1507.215088,1697.551636 1532.345947,1702.473145 
z"/>
<path fill="#027EC4" opacity="1.000000" stroke="none" 
	d="
M141.000000,1645.996826 
	C160.318176,1645.941040 179.135284,1645.618042 197.528244,1650.817993 
	C227.248322,1659.219971 242.077209,1680.444458 240.604431,1711.426880 
	C238.680679,1751.895874 211.666702,1765.611694 185.367859,1769.831665 
	C175.719788,1771.379639 165.822464,1771.493164 156.024261,1771.945190 
	C149.406616,1772.250366 142.763519,1772.003174 135.638519,1772.003174 
	C135.638519,1793.648682 135.638519,1814.884033 135.638519,1836.434082 
	C110.756935,1836.434082 86.374420,1836.434082 61.665054,1836.434082 
	C61.665054,1773.062134 61.665054,1709.834595 61.665054,1645.996826 
	C87.984077,1645.996826 114.242035,1645.996826 141.000000,1645.996826 
M160.304260,1722.818970 
	C166.389893,1715.706543 168.032120,1704.938477 163.400467,1697.801270 
	C156.795883,1687.623779 146.215393,1688.950195 135.876801,1688.788452 
	C135.876801,1702.146729 135.876801,1715.039551 135.876801,1728.321533 
	C144.488190,1728.921997 152.656799,1728.860840 160.304260,1722.818970 
z"/>
<path fill="#017EC5" opacity="1.000000" stroke="none" 
	d="
M629.558105,1438.070190 
	C629.398315,1435.590454 629.328796,1433.586914 629.065430,1431.609131 
	C628.171936,1424.899414 624.759155,1421.625854 618.387329,1421.258301 
	C612.394714,1420.912476 607.365112,1424.655518 606.159607,1430.769775 
	C605.585022,1433.683960 605.528320,1436.732666 605.522583,1439.721069 
	C605.475708,1464.211060 605.496155,1488.700928 605.496094,1513.190918 
	C605.496094,1514.993652 605.496094,1516.796387 605.496094,1518.793945 
	C583.924805,1518.793945 562.830139,1518.793945 541.427124,1518.793945 
	C541.427124,1455.463013 541.427124,1392.235840 541.427124,1328.627075 
	C562.455322,1328.627075 583.530029,1328.627075 605.295410,1328.627075 
	C605.295410,1353.796997 605.295410,1379.136963 605.295410,1404.589233 
	C606.266663,1404.419922 606.691956,1404.473145 606.811035,1404.307007 
	C621.419006,1383.928711 648.807678,1376.656982 671.670471,1387.182373 
	C684.751526,1393.204712 690.549194,1404.483643 692.901672,1417.848755 
	C693.992676,1424.047607 694.474609,1430.424194 694.516724,1436.724976 
	C694.691345,1462.879761 694.596130,1489.036377 694.583557,1515.192261 
	C694.583008,1516.326294 694.421265,1517.460449 694.320068,1518.785522 
	C672.817078,1518.785522 651.542419,1518.785522 629.559631,1518.785522 
	C629.559631,1492.041016 629.559631,1465.299561 629.558105,1438.070190 
z"/>
<path fill="#027EC4" opacity="1.000000" stroke="none" 
	d="
M1222.180542,1719.005127 
	C1222.180542,1713.862061 1222.180542,1709.218018 1222.180542,1704.160767 
	C1243.670044,1704.160767 1264.881714,1704.160767 1286.920166,1704.160767 
	C1286.920166,1748.092896 1286.920166,1792.127075 1286.920166,1836.459229 
	C1266.981445,1836.459229 1246.549927,1836.459229 1225.457275,1836.459229 
	C1225.457275,1830.202881 1225.457275,1823.847656 1225.457275,1816.088257 
	C1223.976562,1817.729492 1223.464111,1818.247803 1223.007080,1818.811157 
	C1208.124146,1837.162842 1184.183838,1844.414673 1161.409668,1837.539673 
	C1145.234863,1832.657227 1137.752441,1820.666016 1135.053711,1805.015991 
	C1134.011597,1798.973267 1133.484253,1792.772217 1133.443726,1786.638550 
	C1133.269775,1760.318848 1133.360596,1733.997437 1133.373047,1707.676636 
	C1133.373535,1706.544189 1133.551514,1705.411743 1133.665527,1704.058350 
	C1154.989624,1704.058350 1176.100586,1704.058350 1197.963379,1704.058350 
	C1197.963379,1705.724487 1197.963379,1707.471436 1197.963379,1709.218262 
	C1197.963501,1734.039795 1197.947266,1758.861328 1197.987183,1783.682861 
	C1197.991455,1786.333618 1198.031128,1789.043457 1198.557739,1791.623047 
	C1199.972168,1798.553589 1203.649048,1801.447876 1210.362671,1801.327637 
	C1216.466553,1801.218384 1220.809570,1797.405029 1221.832642,1790.951172 
	C1222.220825,1788.501953 1222.164185,1785.968994 1222.166870,1783.473999 
	C1222.190186,1762.150757 1222.180420,1740.827393 1222.180542,1719.005127 
z"/>
<path fill="#017DC5" opacity="1.000000" stroke="none" 
	d="
M822.781860,1726.244263 
	C855.098877,1767.482910 834.004639,1825.879150 783.001099,1836.862183 
	C763.013062,1841.166504 742.966614,1841.005371 723.237549,1835.153931 
	C691.142517,1825.635010 673.608032,1799.586304 675.389526,1766.112549 
	C677.439026,1727.601440 703.387329,1707.198364 735.356262,1702.179443 
	C754.445618,1699.182739 773.516968,1699.638428 792.101013,1705.890991 
	C804.018555,1709.900635 814.295654,1716.406860 822.781860,1726.244263 
M743.057434,1756.740112 
	C742.908447,1760.728271 742.422241,1764.738403 742.679077,1768.700317 
	C743.257385,1777.622559 743.540283,1786.647339 745.201721,1795.391235 
	C746.638000,1802.950684 753.198425,1806.162231 759.976807,1803.974609 
	C765.049805,1802.337158 767.503357,1798.134766 767.875244,1793.400879 
	C768.783264,1781.843018 769.368225,1770.232056 769.363953,1758.642700 
	C769.362000,1753.431885 768.084045,1748.088379 766.569214,1743.050415 
	C765.185730,1738.449219 761.645081,1735.657227 756.469360,1735.620728 
	C751.335815,1735.584595 747.768066,1738.185059 746.159851,1742.783447 
	C744.695251,1746.971436 744.092224,1751.460693 743.057434,1756.740112 
z"/>
<path fill="#027EC5" opacity="1.000000" stroke="none" 
	d="
M956.049927,1758.193115 
	C960.675537,1726.658813 984.533813,1706.966309 1015.827820,1702.118896 
	C1032.749390,1699.497681 1049.704956,1699.527100 1066.259277,1704.684570 
	C1092.230347,1712.776123 1106.401001,1730.916870 1109.759155,1757.507812 
	C1110.707031,1765.013306 1109.904053,1772.740112 1109.904053,1780.779541 
	C1079.379272,1780.779541 1048.966431,1780.779541 1018.629944,1780.779541 
	C1016.289246,1793.947021 1021.331970,1804.759766 1030.777954,1807.398926 
	C1041.840332,1810.489868 1047.854736,1806.503296 1053.506348,1792.340088 
	C1071.450928,1792.346436 1089.395264,1792.346436 1107.775391,1792.346436 
	C1107.683350,1804.823608 1103.687988,1815.283936 1094.381226,1823.456299 
	C1083.417847,1833.083252 1070.026611,1836.856567 1056.006592,1838.637329 
	C1038.024292,1840.921265 1020.117737,1840.661621 1002.614685,1835.155762 
	C969.945679,1824.879150 951.860596,1797.144897 955.569885,1763.104736 
	C955.732178,1761.615112 955.863708,1760.121948 956.049927,1758.193115 
M1045.158569,1734.082520 
	C1038.263184,1730.622192 1031.285034,1730.275757 1024.810791,1734.694824 
	C1018.563293,1738.958740 1017.307983,1745.572998 1017.532837,1752.857178 
	C1029.065186,1752.857178 1040.281982,1752.857178 1051.690308,1752.857178 
	C1052.415039,1745.630005 1051.556885,1739.292969 1045.158569,1734.082520 
z"/>
<path fill="#027EC5" opacity="1.000000" stroke="none" 
	d="
M248.992798,1796.934570 
	C237.970001,1764.767822 244.589722,1722.367310 288.662018,1706.238647 
	C300.846802,1701.779419 313.595795,1699.933472 326.458252,1700.748047 
	C336.512878,1701.384888 346.850128,1702.265747 356.404327,1705.187988 
	C381.972961,1713.008301 395.732086,1731.394653 398.887177,1757.609497 
	C399.790588,1765.115479 399.025574,1772.822144 399.025574,1780.871338 
	C368.419189,1780.871338 338.005127,1780.871338 306.807770,1780.871338 
	C307.244995,1785.429688 307.340942,1789.549683 308.084747,1793.549194 
	C309.745941,1802.481079 315.675568,1807.695190 324.019257,1808.012085 
	C334.225891,1808.399658 338.861389,1804.969971 341.690369,1794.925293 
	C341.914856,1794.128174 342.083008,1793.315186 342.308197,1792.381714 
	C360.442719,1792.381714 378.526489,1792.381714 396.932922,1792.381714 
	C396.813660,1808.001587 390.451630,1819.834351 377.462006,1828.027710 
	C364.833130,1835.993530 350.651276,1838.510010 336.084869,1839.509766 
	C317.770782,1840.766724 299.777039,1839.416870 282.805542,1831.727417 
	C267.174042,1824.645020 255.597336,1813.420410 248.992798,1796.934570 
M306.694733,1750.628418 
	C307.376953,1751.475952 308.048401,1753.051514 308.743073,1753.061768 
	C319.329010,1753.218750 329.917969,1753.170898 340.428009,1753.170898 
	C342.838043,1738.616455 335.158875,1730.212524 321.397644,1731.829956 
	C312.783142,1732.842529 307.705078,1739.026245 306.694733,1750.628418 
z"/>
<path fill="#027EC5" opacity="1.000000" stroke="none" 
	d="
M863.780457,1460.000244 
	C863.780457,1479.800293 863.780457,1499.100220 863.780457,1518.718262 
	C844.349854,1518.718262 825.282104,1518.718262 806.023438,1518.718262 
	C805.426453,1514.788086 804.835754,1510.898804 804.117554,1506.170410 
	C791.609497,1519.744141 776.111816,1522.659424 759.413940,1522.117676 
	C732.883423,1521.256836 716.126892,1501.613892 719.375671,1475.116211 
	C721.920044,1454.363770 732.803955,1442.808594 755.937378,1438.179688 
	C767.630127,1435.840210 779.675537,1435.217407 791.581726,1434.018921 
	C795.191650,1433.655518 798.869080,1433.962769 803.651306,1433.962769 
	C803.203430,1428.534668 803.233582,1423.437256 802.255371,1418.541260 
	C801.223511,1413.376587 796.702881,1412.370728 792.164978,1412.166138 
	C785.815125,1411.880005 781.725220,1414.052002 779.851074,1418.677734 
	C779.180359,1420.333008 778.840759,1422.122314 778.265137,1424.149414 
	C760.949707,1424.149414 743.675781,1424.149414 725.829041,1424.149414 
	C725.985535,1417.354370 728.385620,1411.317139 732.108826,1405.784912 
	C738.765686,1395.894165 748.514832,1390.103027 759.683716,1387.204346 
	C785.588440,1380.481323 811.449219,1381.025146 836.890198,1389.743896 
	C853.586853,1395.465942 862.085449,1407.609375 862.932922,1425.032227 
	C863.491211,1436.508179 863.516479,1448.009888 863.780457,1460.000244 
M779.706909,1464.144897 
	C779.221741,1464.597900 778.680420,1465.004272 778.260193,1465.510986 
	C774.270264,1470.322388 773.545654,1477.987549 776.560425,1483.237427 
	C779.388306,1488.161987 785.317322,1490.592407 791.665527,1489.429443 
	C798.088074,1488.252686 801.961365,1484.434082 802.729065,1477.162842 
	C803.312561,1471.636353 802.844849,1465.998657 802.844849,1460.407593 
	C792.952209,1459.052124 786.752441,1459.963379 779.706909,1464.144897 
z"/>
<path fill="#017DC5" opacity="1.000000" stroke="none" 
	d="
M1116.484863,1384.426147 
	C1124.743042,1386.668335 1132.830444,1388.161621 1140.342896,1391.116821 
	C1154.346802,1396.625244 1161.660156,1407.613770 1162.951294,1422.493408 
	C1163.569458,1429.615723 1163.917725,1436.782104 1163.951904,1443.930664 
	C1164.070435,1468.733154 1163.997681,1493.536621 1163.997681,1518.688232 
	C1144.767700,1518.688232 1125.720947,1518.688232 1106.313843,1518.688232 
	C1105.755127,1514.923218 1105.182739,1511.066040 1104.580811,1507.009644 
	C1103.917236,1507.216675 1103.368286,1507.222046 1103.088257,1507.499146 
	C1087.445801,1522.975586 1068.274658,1524.787720 1048.309692,1520.270752 
	C1028.997192,1515.901367 1018.131104,1498.972046 1019.463989,1478.027222 
	C1020.884216,1455.709717 1032.020020,1442.977661 1056.273315,1438.211914 
	C1069.096436,1435.692261 1082.329956,1435.240723 1095.388428,1433.959473 
	C1097.984863,1433.704712 1100.627686,1433.922729 1103.146973,1433.922729 
	C1105.395630,1420.832642 1102.701172,1413.897583 1095.093506,1412.410645 
	C1086.051880,1410.643433 1080.842285,1414.250244 1078.541016,1424.442627 
	C1069.917847,1424.442627 1061.131836,1424.442627 1052.345703,1424.442627 
	C1043.700073,1424.442627 1035.054443,1424.442627 1025.978027,1424.442627 
	C1027.182251,1412.016968 1032.725952,1402.437866 1042.616821,1395.451294 
	C1055.642334,1386.250366 1070.695435,1383.546753 1086.146729,1383.146606 
	C1096.099121,1382.888794 1106.084106,1383.896362 1116.484863,1384.426147 
M1084.654175,1489.083374 
	C1094.313354,1490.882202 1100.689087,1487.798706 1102.424438,1479.432373 
	C1103.712646,1473.221069 1103.623047,1466.723877 1104.219727,1459.472778 
	C1097.505737,1460.048462 1091.831543,1460.048828 1086.370483,1461.127686 
	C1079.686890,1462.447876 1075.661255,1467.341064 1075.035034,1473.418945 
	C1074.258789,1480.953369 1076.904175,1485.598755 1084.654175,1489.083374 
z"/>
<path fill="#027EC4" opacity="1.000000" stroke="none" 
	d="
M450.905243,1673.959351 
	C465.404755,1669.000122 479.518127,1664.129517 494.299744,1659.028442 
	C494.299744,1673.988281 494.299744,1688.527954 494.299744,1703.634399 
	C504.749115,1703.634399 514.629272,1703.634399 524.744141,1703.634399 
	C524.744141,1716.808716 524.744141,1729.409790 524.744141,1742.587402 
	C514.912598,1742.587402 505.022552,1742.587402 494.510773,1742.587402 
	C494.510773,1751.741821 494.489777,1760.333008 494.518433,1768.923950 
	C494.536194,1774.250854 494.400116,1779.592529 494.744141,1784.900879 
	C495.219727,1792.238770 498.734039,1795.624146 506.127930,1796.157227 
	C508.765045,1796.347290 511.456604,1796.192505 514.090576,1795.900269 
	C516.680054,1795.613037 519.228088,1794.951660 522.383728,1794.340332 
	C522.383728,1807.047363 522.420837,1819.320068 522.298279,1831.591064 
	C522.290283,1832.389893 521.178345,1833.705200 520.374268,1833.891113 
	C500.198486,1838.556885 479.920746,1842.735107 459.196503,1837.696045 
	C441.445923,1833.380249 431.472382,1820.900146 431.131531,1802.438599 
	C430.799591,1784.458252 431.020172,1766.467651 430.998718,1748.481567 
	C430.996582,1746.696289 430.998444,1744.911011 430.998444,1742.790283 
	C425.055786,1742.790283 419.611053,1742.790283 413.790405,1742.790283 
	C413.790405,1729.735596 413.790405,1717.019043 413.790405,1703.940552 
	C419.352814,1703.940552 424.794830,1703.940552 430.998505,1703.940552 
	C430.998505,1697.192749 431.161835,1690.774902 430.924225,1684.372192 
	C430.817749,1681.502686 431.779968,1680.293701 434.485107,1679.493652 
	C439.893616,1677.894287 445.181458,1675.886963 450.905243,1673.959351 
z"/>
<path fill="#017EC5" opacity="1.000000" stroke="none" 
	d="
M1282.992920,1425.002197 
	C1277.181641,1425.002197 1271.869019,1425.002197 1265.848877,1425.002197 
	C1265.848877,1429.616821 1265.848511,1434.028687 1265.848999,1438.440552 
	C1265.849854,1447.266968 1265.786865,1456.093994 1265.869629,1464.919678 
	C1265.963623,1474.932373 1270.809448,1479.457886 1280.971558,1478.781738 
	C1285.066162,1478.509277 1289.115479,1477.557251 1293.381714,1476.883423 
	C1293.526123,1477.977295 1293.721313,1478.773071 1293.722534,1479.569092 
	C1293.742065,1491.544556 1293.736206,1503.519897 1293.736206,1515.717651 
	C1274.014404,1520.590942 1254.475952,1524.303223 1234.322021,1520.953735 
	C1213.981689,1517.573608 1202.678589,1504.519653 1202.256104,1483.343628 
	C1201.907227,1465.864136 1202.158081,1448.372681 1202.143799,1430.886597 
	C1202.142334,1429.096924 1202.143677,1427.307251 1202.143677,1425.142090 
	C1196.299927,1425.142090 1190.866577,1425.142090 1185.108398,1425.142090 
	C1185.108398,1412.051758 1185.108398,1399.336060 1185.108398,1386.077759 
	C1190.635986,1386.077759 1196.200684,1386.077759 1202.144653,1386.077759 
	C1202.144653,1379.090210 1201.997559,1372.628784 1202.262451,1366.184448 
	C1202.318848,1364.811646 1203.592773,1362.695190 1204.780273,1362.280762 
	C1224.533813,1355.383667 1244.362305,1348.702271 1264.180054,1341.990112 
	C1264.464966,1341.893799 1264.825073,1342.019531 1265.705322,1342.079468 
	C1265.705322,1356.545410 1265.705322,1371.050781 1265.705322,1385.941895 
	C1276.006714,1385.941895 1285.760498,1385.941895 1295.833130,1385.941895 
	C1295.833130,1399.042114 1295.833130,1411.754395 1295.833130,1425.002197 
	C1291.720703,1425.002197 1287.606201,1425.002197 1282.992920,1425.002197 
z"/>
<path fill="#017DC5" opacity="1.000000" stroke="none" 
	d="
M863.144348,1714.000000 
	C863.144348,1691.206543 863.144348,1668.913208 863.144348,1646.309814 
	C885.200439,1646.309814 906.917969,1646.309814 928.894958,1646.309814 
	C928.894958,1709.615845 928.894958,1772.850220 928.894958,1836.427490 
	C907.152405,1836.427490 885.439819,1836.427490 863.144348,1836.427490 
	C863.144348,1795.683105 863.144348,1755.091553 863.144348,1714.000000 
z"/>
<path fill="#037EC4" opacity="1.000000" stroke="none" 
	d="
M602.992371,1703.810791 
	C607.467468,1703.810791 611.443665,1703.810791 615.914062,1703.810791 
	C615.914062,1708.290894 615.914062,1712.519287 615.914062,1718.000366 
	C620.174805,1714.139038 623.576355,1711.119385 626.908325,1708.024658 
	C636.181152,1699.411499 646.786072,1698.803589 658.030212,1703.066650 
	C659.471191,1703.612915 661.266846,1705.722168 661.288086,1707.131714 
	C661.520996,1722.610474 661.434204,1738.094116 661.434204,1753.936646 
	C655.617432,1752.798828 650.158325,1751.574463 644.645569,1750.681763 
	C627.684631,1747.935181 619.469055,1754.222534 618.938354,1771.520508 
	C618.330566,1791.333252 618.657532,1811.174683 618.580261,1831.003662 
	C618.573364,1832.781860 618.579407,1834.560181 618.579407,1836.758545 
	C616.288269,1836.758545 614.657288,1836.758545 613.026306,1836.758545 
	C593.060852,1836.758545 573.095337,1836.758545 552.804321,1836.758545 
	C552.804321,1792.436646 552.804321,1748.515869 552.804321,1703.810791 
	C569.356750,1703.810791 585.925110,1703.810791 602.992371,1703.810791 
z"/>
<path fill="#027EC5" opacity="1.000000" stroke="none" 
	d="
M904.071167,1519.002686 
	C901.088135,1519.002686 898.594482,1519.002686 895.719727,1519.002686 
	C895.719727,1474.743286 895.719727,1430.699829 895.719727,1386.343872 
	C916.630554,1386.343872 937.520325,1386.343872 958.863342,1386.343872 
	C958.863342,1390.648926 958.863342,1394.889893 958.863342,1400.276001 
	C963.319702,1396.262695 966.939026,1392.959106 970.606201,1389.709351 
	C979.766418,1381.591187 990.127625,1381.366455 1000.987427,1385.355713 
	C1002.289734,1385.834351 1004.094543,1387.446411 1004.108826,1388.553345 
	C1004.312439,1404.348145 1004.247742,1420.146606 1004.247742,1436.017700 
	C997.077026,1434.818848 990.419006,1433.398682 983.686462,1432.645996 
	C970.728577,1431.197144 963.098572,1437.187134 962.119934,1450.223633 
	C961.310730,1461.003052 961.498718,1471.863403 961.405396,1482.689209 
	C961.302246,1494.661865 961.381836,1506.636230 961.381836,1519.002686 
	C942.156250,1519.002686 923.358398,1519.002686 904.071167,1519.002686 
z"/>
<path fill="#007DC6" opacity="1.000000" stroke="none" 
	d="
M1205.281738,981.344971 
	C1200.569458,987.085693 1196.319092,992.768677 1191.496216,997.915283 
	C1181.624268,1008.450256 1171.869385,1019.154846 1161.298706,1028.962158 
	C1142.527710,1046.377686 1122.750610,1062.563599 1101.686035,1077.272583 
	C1077.721924,1094.006104 1052.517090,1108.449341 1026.156494,1120.842163 
	C994.738159,1135.612671 961.998169,1146.992188 928.164246,1154.706177 
	C910.024597,1158.841797 891.486694,1161.412842 873.019043,1163.866089 
	C859.813416,1165.620239 846.435364,1166.165161 833.116577,1166.950317 
	C823.028320,1167.544800 812.881531,1168.323364 802.815369,1167.852905 
	C785.874573,1167.061279 768.956909,1165.557861 752.066040,1163.966187 
	C723.667114,1161.289917 695.974976,1154.948608 668.641174,1146.992676 
	C643.485168,1139.670532 619.214966,1130.042847 595.493530,1118.916138 
	C563.971985,1104.130737 534.577515,1085.868286 506.724457,1065.105347 
	C481.940552,1046.630371 459.263885,1025.648438 438.634857,1002.741882 
	C423.182556,985.583618 408.746429,967.331421 395.504395,948.413757 
	C383.272552,930.939331 372.883667,912.129211 362.318024,893.546387 
	C350.653625,873.031006 342.091461,851.075378 334.022491,828.930420 
	C324.782104,803.570618 318.221527,777.480774 313.225708,751.028137 
	C310.703705,737.674316 309.167358,724.076111 308.118958,710.516174 
	C306.628479,691.237793 305.136169,671.887634 305.256866,652.578186 
	C305.364685,635.327698 307.577545,618.084167 309.006622,600.849548 
	C311.300323,573.187256 317.590515,546.276794 325.056030,519.653076 
	C334.089111,487.439240 346.602753,456.519501 362.127472,426.912018 
	C375.671722,401.081573 391.215454,376.479187 409.040009,353.295441 
	C424.372955,333.352356 440.678894,314.294556 458.790070,296.889709 
	C476.820801,279.562103 495.956726,263.522461 516.258484,248.791519 
	C541.397461,230.550690 568.012268,214.986435 595.938477,201.546082 
	C626.979858,186.606369 659.315491,175.170532 692.776123,167.169800 
	C708.955505,163.301147 725.439514,160.515137 741.915161,158.135391 
	C756.063416,156.091782 770.371338,154.836823 784.653198,154.116241 
	C801.729614,153.254669 818.904724,152.349991 835.944397,153.239395 
	C859.845825,154.486938 883.625671,157.259201 907.248779,161.764465 
	C944.647400,168.896957 980.671021,180.050690 1015.556274,195.159332 
	C1043.873413,207.423416 1070.915527,222.058456 1096.144287,239.774887 
	C1112.211548,251.057907 1127.880127,263.018799 1142.878906,275.680756 
	C1156.282104,286.995697 1168.904419,299.314545 1181.184570,311.862427 
	C1199.055786,330.123535 1214.867798,350.167053 1229.524902,371.095184 
	C1244.658691,392.704041 1258.010010,415.398163 1269.491333,439.130768 
	C1281.516602,463.987427 1291.333862,489.700775 1299.252930,516.213318 
	C1306.049438,538.967346 1311.189331,562.045837 1314.788818,585.435669 
	C1317.037109,600.044861 1318.110718,614.881531 1318.879761,629.659363 
	C1319.742432,646.235779 1320.296875,662.879395 1319.811890,679.459473 
	C1319.379761,694.235474 1317.425537,708.972229 1316.000610,723.712585 
	C1313.793091,746.547791 1309.638428,769.076660 1302.927246,790.979126 
	C1296.288208,812.646240 1289.315552,834.281677 1281.030273,855.357605 
	C1267.949585,888.632690 1250.480591,919.711731 1229.873169,948.939453 
	C1222.133911,959.916260 1213.636353,970.358521 1205.281738,981.344971 
M616.388428,1093.083496 
	C633.138794,1101.675415 649.477112,1111.227661 666.736633,1118.632690 
	C692.256226,1129.581787 718.870667,1137.270264 746.324951,1142.292847 
	C766.770142,1146.033203 787.271545,1148.590942 807.968323,1148.830933 
	C823.834534,1149.014893 839.766418,1148.219238 855.580078,1146.839600 
	C869.415466,1145.632568 883.250916,1143.622070 896.869080,1140.885620 
	C933.267395,1133.571533 967.877258,1121.146362 1000.763306,1103.752563 
	C1032.318359,1087.062866 1061.273560,1066.702393 1087.012085,1042.129028 
	C1101.427490,1028.366333 1114.939331,1013.434631 1127.312500,997.805786 
	C1147.901245,971.800171 1164.765625,943.373535 1177.750000,912.713928 
	C1190.301758,883.075684 1199.302124,852.506409 1204.129272,820.636169 
	C1207.375610,799.203003 1209.250122,777.726929 1208.961792,756.068604 
	C1208.876221,749.636475 1208.433228,743.203308 1207.975098,736.783386 
	C1207.388916,728.571411 1207.281860,720.250671 1205.796631,712.192749 
	C1202.605225,694.877563 1199.145874,677.581421 1194.924927,660.492737 
	C1187.067993,628.683899 1173.894287,598.930786 1157.733765,570.548767 
	C1143.985229,546.403076 1127.593506,524.014160 1108.835815,503.538574 
	C1092.832031,486.069214 1075.610840,469.730316 1056.689209,455.401642 
	C1034.352905,438.487152 1010.629395,423.794098 985.130249,411.978363 
	C963.308899,401.866882 941.010559,393.115234 917.640442,387.440460 
	C903.856812,384.093536 889.873962,381.483734 875.887512,379.085663 
	C866.839233,377.534332 857.640076,376.747681 848.476929,376.011536 
	C837.454163,375.126007 826.398743,374.175140 815.355652,374.152466 
	C805.482300,374.132172 795.586182,375.121429 785.736816,376.052979 
	C773.804871,377.181488 761.775574,378.002411 750.030884,380.232849 
	C728.697388,384.284271 707.643005,389.572327 687.147888,396.987396 
	C657.932739,407.557312 629.911804,420.614807 604.255615,438.123505 
	C588.585876,448.817047 573.344849,460.341217 559.068604,472.816711 
	C545.112488,485.012360 531.787415,498.170776 519.731628,512.232361 
	C507.835419,526.107788 497.432159,541.343811 487.171936,556.522400 
	C471.994537,578.975159 460.372650,603.355347 451.036346,628.760437 
	C442.914398,650.861206 435.858002,673.341736 432.979370,696.812134 
	C430.578766,716.384949 427.676117,736.033386 427.361389,755.686279 
	C427.045502,775.409058 429.221283,795.220337 431.102661,814.916626 
	C433.111481,835.946777 438.508392,856.343628 444.803864,876.472473 
	C453.863373,905.439087 466.329010,932.855652 481.921844,958.919678 
	C497.339722,984.691223 515.723572,1008.133240 536.405762,1029.799927 
	C543.492493,1037.223877 551.047913,1044.226929 558.695190,1051.081055 
	C564.915955,1056.656738 571.349304,1062.061646 578.121582,1066.941162 
	C590.467407,1075.836548 603.134155,1084.286499 616.388428,1093.083496 
z"/>
<path fill="#FBDD03" opacity="1.000000" stroke="none" 
	d="
M421.524902,1478.708496 
	C415.949097,1478.755981 410.825745,1478.755981 405.376953,1478.755981 
	C405.376953,1466.331787 405.376953,1454.112915 405.376953,1441.229248 
	C414.114319,1441.196167 423.029663,1440.201172 431.605957,1443.538574 
	C438.494019,1446.218628 441.304657,1451.731445 441.406891,1458.835327 
	C441.511536,1466.100220 439.590546,1472.511597 432.464630,1475.785400 
	C429.214539,1477.278687 425.487823,1477.734497 421.524902,1478.708496 
z"/>
<path fill="#FADC04" opacity="1.000000" stroke="none" 
	d="
M438.394226,1389.492798 
	C437.452820,1397.797241 432.368408,1402.168823 425.216675,1403.602905 
	C418.822052,1404.885010 412.158142,1404.823975 405.306854,1405.380249 
	C405.306854,1393.049805 405.306854,1381.645630 405.306854,1369.590698 
	C413.660736,1369.354736 422.071960,1368.647827 429.951721,1372.514526 
	C436.788330,1375.869507 438.894287,1381.887451 438.394226,1389.492798 
z"/>
<path fill="#FCDD02" opacity="1.000000" stroke="none" 
	d="
M160.027344,1723.062866 
	C152.656799,1728.860840 144.488190,1728.921997 135.876801,1728.321533 
	C135.876801,1715.039551 135.876801,1702.146729 135.876801,1688.788452 
	C146.215393,1688.950195 156.795883,1687.623779 163.400467,1697.801270 
	C168.032120,1704.938477 166.389893,1715.706543 160.027344,1723.062866 
z"/>
<path fill="#FCDD02" opacity="1.000000" stroke="none" 
	d="
M743.083374,1756.278564 
	C744.092224,1751.460693 744.695251,1746.971436 746.159851,1742.783447 
	C747.768066,1738.185059 751.335815,1735.584595 756.469360,1735.620728 
	C761.645081,1735.657227 765.185730,1738.449219 766.569214,1743.050415 
	C768.084045,1748.088379 769.362000,1753.431885 769.363953,1758.642700 
	C769.368225,1770.232056 768.783264,1781.843018 767.875244,1793.400879 
	C767.503357,1798.134766 765.049805,1802.337158 759.976807,1803.974609 
	C753.198425,1806.162231 746.638000,1802.950684 745.201721,1795.391235 
	C743.540283,1786.647339 743.257385,1777.622559 742.679077,1768.700317 
	C742.422241,1764.738403 742.908447,1760.728271 743.083374,1756.278564 
z"/>
<path fill="#FCDD02" opacity="1.000000" stroke="none" 
	d="
M1045.476074,1734.295410 
	C1051.556885,1739.292969 1052.415039,1745.630005 1051.690308,1752.857178 
	C1040.281982,1752.857178 1029.065186,1752.857178 1017.532837,1752.857178 
	C1017.307983,1745.572998 1018.563293,1738.958740 1024.810791,1734.694824 
	C1031.285034,1730.275757 1038.263184,1730.622192 1045.476074,1734.295410 
z"/>
<path fill="#FDDD02" opacity="1.000000" stroke="none" 
	d="
M306.714081,1750.157715 
	C307.705078,1739.026245 312.783142,1732.842529 321.397644,1731.829956 
	C335.158875,1730.212524 342.838043,1738.616455 340.428009,1753.170898 
	C329.917969,1753.170898 319.329010,1753.218750 308.743073,1753.061768 
	C308.048401,1753.051514 307.376953,1751.475952 306.714081,1750.157715 
z"/>
<path fill="#FCDD03" opacity="1.000000" stroke="none" 
	d="
M780.016113,1463.934082 
	C786.752441,1459.963379 792.952209,1459.052124 802.844849,1460.407593 
	C802.844849,1465.998657 803.312561,1471.636353 802.729065,1477.162842 
	C801.961365,1484.434082 798.088074,1488.252686 791.665527,1489.429443 
	C785.317322,1490.592407 779.388306,1488.161987 776.560425,1483.237427 
	C773.545654,1477.987549 774.270264,1470.322388 778.260193,1465.510986 
	C778.680420,1465.004272 779.221741,1464.597900 780.016113,1463.934082 
z"/>
<path fill="#FADC04" opacity="1.000000" stroke="none" 
	d="
M1084.263916,1489.011963 
	C1076.904175,1485.598755 1074.258789,1480.953369 1075.035034,1473.418945 
	C1075.661255,1467.341064 1079.686890,1462.447876 1086.370483,1461.127686 
	C1091.831543,1460.048828 1097.505737,1460.048462 1104.219727,1459.472778 
	C1103.623047,1466.723877 1103.712646,1473.221069 1102.424438,1479.432373 
	C1100.689087,1487.798706 1094.313354,1490.882202 1084.263916,1489.011963 
z"/>
<path fill="#000000" opacity="1.000000" stroke="none" 
	d="
M616.027710,1093.002930 
	C603.134155,1084.286499 590.467407,1075.836548 578.121582,1066.941162 
	C571.349304,1062.061646 564.915955,1056.656738 558.695190,1051.081055 
	C551.047913,1044.226929 543.492493,1037.223877 536.405762,1029.799927 
	C515.723572,1008.133240 497.339722,984.691223 481.921844,958.919678 
	C466.329010,932.855652 453.863373,905.439087 444.803864,876.472473 
	C438.508392,856.343628 433.111481,835.946777 431.102661,814.916626 
	C429.221283,795.220337 427.045502,775.409058 427.361389,755.686279 
	C427.676117,736.033386 430.578766,716.384949 432.979370,696.812134 
	C435.858002,673.341736 442.914398,650.861206 451.036346,628.760437 
	C460.372650,603.355347 471.994537,578.975159 487.171936,556.522400 
	C497.432159,541.343811 507.835419,526.107788 519.731628,512.232361 
	C531.787415,498.170776 545.112488,485.012360 559.068604,472.816711 
	C573.344849,460.341217 588.585876,448.817047 604.255615,438.123505 
	C629.911804,420.614807 657.932739,407.557312 687.147888,396.987396 
	C707.643005,389.572327 728.697388,384.284271 750.030884,380.232849 
	C761.775574,378.002411 773.804871,377.181488 785.736816,376.052979 
	C795.586182,375.121429 805.482300,374.132172 815.355652,374.152466 
	C826.398743,374.175140 837.454163,375.126007 848.476929,376.011536 
	C857.640076,376.747681 866.839233,377.534332 875.887512,379.085663 
	C889.873962,381.483734 903.856812,384.093536 917.640442,387.440460 
	C941.010559,393.115234 963.308899,401.866882 985.130249,411.978363 
	C1010.629395,423.794098 1034.352905,438.487152 1056.689209,455.401642 
	C1075.610840,469.730316 1092.832031,486.069214 1108.835815,503.538574 
	C1127.593506,524.014160 1143.985229,546.403076 1157.733765,570.548767 
	C1173.894287,598.930786 1187.067993,628.683899 1194.924927,660.492737 
	C1199.145874,677.581421 1202.605225,694.877563 1205.796631,712.192749 
	C1207.281860,720.250671 1207.388916,728.571411 1207.975098,736.783386 
	C1208.433228,743.203308 1208.876221,749.636475 1208.961792,756.068604 
	C1209.250122,777.726929 1207.375610,799.203003 1204.129272,820.636169 
	C1199.302124,852.506409 1190.301758,883.075684 1177.750000,912.713928 
	C1164.765625,943.373535 1147.901245,971.800171 1127.312500,997.805786 
	C1114.939331,1013.434631 1101.427490,1028.366333 1087.012085,1042.129028 
	C1061.273560,1066.702393 1032.318359,1087.062866 1000.763306,1103.752563 
	C967.877258,1121.146362 933.267395,1133.571533 896.869080,1140.885620 
	C883.250916,1143.622070 869.415466,1145.632568 855.580078,1146.839600 
	C839.766418,1148.219238 823.834534,1149.014893 807.968323,1148.830933 
	C787.271545,1148.590942 766.770142,1146.033203 746.324951,1142.292847 
	C718.870667,1137.270264 692.256226,1129.581787 666.736633,1118.632690 
	C649.477112,1111.227661 633.138794,1101.675415 616.027710,1093.002930 
M1119.087158,908.609070 
	C1124.692627,894.171631 1130.962646,879.950867 1135.754272,865.248230 
	C1143.796265,840.572388 1148.666016,815.048218 1149.730469,789.170654 
	C1150.674683,766.219482 1150.856079,743.170471 1147.186768,720.230347 
	C1144.263306,701.952393 1140.640503,683.925781 1135.104248,666.268555 
	C1127.830444,643.069580 1118.060913,620.986755 1105.995972,599.887024 
	C1089.980835,571.879028 1070.216553,546.891907 1047.065186,524.391724 
	C1029.668091,507.483917 1011.012939,492.253632 990.194275,479.941315 
	C975.022339,470.968536 959.460083,462.402405 943.322388,455.376373 
	C920.107239,445.268951 895.957336,437.456543 870.729980,433.973785 
	C853.177917,431.550659 835.543579,428.839600 817.885437,428.321930 
	C800.949463,427.825470 783.882690,429.464691 766.972900,431.158844 
	C754.302856,432.428223 741.630798,434.601898 729.239685,437.550140 
	C697.737915,445.045441 667.912903,456.991882 639.739685,473.034637 
	C614.016235,487.682312 590.609680,505.431854 569.544556,526.146851 
	C560.491638,535.049316 552.331055,544.882446 544.028198,554.519409 
	C528.771179,572.227844 516.515564,591.952454 505.747101,612.634888 
	C495.079712,633.123108 486.862610,654.527954 480.503235,676.764221 
	C472.547180,704.583313 469.212433,732.992737 468.098694,761.736267 
	C467.785675,769.814453 468.542206,777.946594 469.033234,786.040283 
	C469.571869,794.919739 469.500580,803.957336 471.232544,812.618591 
	C475.134613,832.132141 479.089905,851.719116 484.692230,870.785889 
	C490.776794,891.493896 499.915009,911.091187 510.420532,930.061035 
	C525.250977,956.840149 543.480347,981.042480 564.673889,1002.968506 
	C573.730652,1012.338074 583.852112,1020.711304 593.776062,1029.202637 
	C609.883362,1042.984619 627.620361,1054.483276 646.212463,1064.553101 
	C668.131531,1076.424927 691.169250,1085.665283 715.146057,1092.648193 
	C743.674316,1100.956787 772.868103,1104.647461 802.419556,1105.902710 
	C809.995972,1106.224487 817.652710,1105.643921 825.221924,1104.936768 
	C840.590881,1103.501221 856.002319,1102.212036 871.257385,1099.932861 
	C900.225830,1095.605103 927.739441,1086.123413 954.193481,1073.838379 
	C984.681946,1059.679688 1012.643921,1041.308228 1037.523438,1018.729065 
	C1056.983887,1001.068054 1075.268188,982.029114 1089.511475,959.774353 
	C1099.991211,943.399902 1109.165649,926.189880 1119.087158,908.609070 
z"/>
<path fill="#007DC6" opacity="1.000000" stroke="none" 
	d="
M1119.004395,908.980591 
	C1109.165649,926.189880 1099.991211,943.399902 1089.511475,959.774353 
	C1075.268188,982.029114 1056.983887,1001.068054 1037.523438,1018.729065 
	C1012.643921,1041.308228 984.681946,1059.679688 954.193481,1073.838379 
	C927.739441,1086.123413 900.225830,1095.605103 871.257385,1099.932861 
	C856.002319,1102.212036 840.590881,1103.501221 825.221924,1104.936768 
	C817.652710,1105.643921 809.995972,1106.224487 802.419556,1105.902710 
	C772.868103,1104.647461 743.674316,1100.956787 715.146057,1092.648193 
	C691.169250,1085.665283 668.131531,1076.424927 646.212463,1064.553101 
	C627.620361,1054.483276 609.883362,1042.984619 593.776062,1029.202637 
	C583.852112,1020.711304 573.730652,1012.338074 564.673889,1002.968506 
	C543.480347,981.042480 525.250977,956.840149 510.420532,930.061035 
	C499.915009,911.091187 490.776794,891.493896 484.692230,870.785889 
	C479.089905,851.719116 475.134613,832.132141 471.232544,812.618591 
	C469.500580,803.957336 469.571869,794.919739 469.033234,786.040283 
	C468.542206,777.946594 467.785675,769.814453 468.098694,761.736267 
	C469.212433,732.992737 472.547180,704.583313 480.503235,676.764221 
	C486.862610,654.527954 495.079712,633.123108 505.747101,612.634888 
	C516.515564,591.952454 528.771179,572.227844 544.028198,554.519409 
	C552.331055,544.882446 560.491638,535.049316 569.544556,526.146851 
	C590.609680,505.431854 614.016235,487.682312 639.739685,473.034637 
	C667.912903,456.991882 697.737915,445.045441 729.239685,437.550140 
	C741.630798,434.601898 754.302856,432.428223 766.972900,431.158844 
	C783.882690,429.464691 800.949463,427.825470 817.885437,428.321930 
	C835.543579,428.839600 853.177917,431.550659 870.729980,433.973785 
	C895.957336,437.456543 920.107239,445.268951 943.322388,455.376373 
	C959.460083,462.402405 975.022339,470.968536 990.194275,479.941315 
	C1011.012939,492.253632 1029.668091,507.483917 1047.065186,524.391724 
	C1070.216553,546.891907 1089.980835,571.879028 1105.995972,599.887024 
	C1118.060913,620.986755 1127.830444,643.069580 1135.104248,666.268555 
	C1140.640503,683.925781 1144.263306,701.952393 1147.186768,720.230347 
	C1150.856079,743.170471 1150.674683,766.219482 1149.730469,789.170654 
	C1148.666016,815.048218 1143.796265,840.572388 1135.754272,865.248230 
	C1130.962646,879.950867 1124.692627,894.171631 1119.004395,908.980591 
M560.695068,746.500183 
	C560.730835,764.388672 562.427551,782.095154 567.057922,799.412781 
	C575.097473,829.481323 590.523132,854.090637 619.471130,868.147949 
	C641.497864,878.844238 664.986694,881.509949 689.101196,879.238098 
	C712.217407,877.060181 730.602539,866.007385 743.577209,847.051086 
	C750.180115,837.404053 755.720276,826.743042 760.019897,815.860474 
	C772.165100,785.119934 775.268616,752.587646 776.883057,719.920471 
	C778.738342,682.379028 793.161194,650.537598 820.224548,624.680420 
	C851.950378,594.368591 890.903564,580.656372 933.911133,577.021484 
	C942.773376,576.272461 951.689392,576.159607 961.409363,575.715637 
	C960.053040,574.750305 959.328857,574.191040 958.563110,573.696045 
	C914.348999,545.114685 866.283813,528.111450 813.429688,525.790283 
	C753.657532,523.165222 698.667358,538.065125 649.186707,571.905273 
	C614.582458,595.571289 587.994080,626.057190 572.390808,665.451843 
	C562.184998,691.219238 560.794800,718.263428 560.695068,746.500183 
M985.623474,659.856995 
	C976.003052,658.033936 966.454102,655.473145 956.748169,654.533508 
	C932.843689,652.219360 910.159180,655.424866 891.226624,672.107666 
	C878.697021,683.148376 870.274109,697.000488 864.061646,712.277405 
	C851.923645,742.125793 847.091309,773.552551 846.145203,805.431641 
	C844.538086,859.586731 821.750244,901.417358 775.885498,930.216797 
	C743.779358,950.376892 708.031067,957.580505 670.575867,957.802551 
	C668.733582,957.813477 666.891174,957.803955 665.048889,957.803955 
	C666.776001,960.026123 668.535217,961.259399 670.342468,962.417664 
	C699.876892,981.347107 731.533081,995.295471 765.971863,1002.409241 
	C836.733276,1017.025879 903.335388,1006.187805 963.978394,966.646851 
	C1015.705688,932.919128 1050.415161,887.085205 1056.468994,823.408081 
	C1059.272339,793.920227 1059.297485,764.480896 1051.965698,735.509949 
	C1042.822876,699.382568 1023.245178,672.174316 985.623474,659.856995 
z"/>
<path fill="#FEDE00" opacity="1.000000" stroke="none" 
	d="
M560.685669,746.000122 
	C560.794800,718.263428 562.184998,691.219238 572.390808,665.451843 
	C587.994080,626.057190 614.582458,595.571289 649.186707,571.905273 
	C698.667358,538.065125 753.657532,523.165222 813.429688,525.790283 
	C866.283813,528.111450 914.348999,545.114685 958.563110,573.696045 
	C959.328857,574.191040 960.053040,574.750305 961.409363,575.715637 
	C951.689392,576.159607 942.773376,576.272461 933.911133,577.021484 
	C890.903564,580.656372 851.950378,594.368591 820.224548,624.680420 
	C793.161194,650.537598 778.738342,682.379028 776.883057,719.920471 
	C775.268616,752.587646 772.165100,785.119934 760.019897,815.860474 
	C755.720276,826.743042 750.180115,837.404053 743.577209,847.051086 
	C730.602539,866.007385 712.217407,877.060181 689.101196,879.238098 
	C664.986694,881.509949 641.497864,878.844238 619.471130,868.147949 
	C590.523132,854.090637 575.097473,829.481323 567.057922,799.412781 
	C562.427551,782.095154 560.730835,764.388672 560.685669,746.000122 
z"/>
<path fill="#FEDE00" opacity="1.000000" stroke="none" 
	d="
M986.013000,659.948120 
	C1023.245178,672.174316 1042.822876,699.382568 1051.965698,735.509949 
	C1059.297485,764.480896 1059.272339,793.920227 1056.468994,823.408081 
	C1050.415161,887.085205 1015.705688,932.919128 963.978394,966.646851 
	C903.335388,1006.187805 836.733276,1017.025879 765.971863,1002.409241 
	C731.533081,995.295471 699.876892,981.347107 670.342468,962.417664 
	C668.535217,961.259399 666.776001,960.026123 665.048889,957.803955 
	C666.891174,957.803955 668.733582,957.813477 670.575867,957.802551 
	C708.031067,957.580505 743.779358,950.376892 775.885498,930.216797 
	C821.750244,901.417358 844.538086,859.586731 846.145203,805.431641 
	C847.091309,773.552551 851.923645,742.125793 864.061646,712.277405 
	C870.274109,697.000488 878.697021,683.148376 891.226624,672.107666 
	C910.159180,655.424866 932.843689,652.219360 956.748169,654.533508 
	C966.454102,655.473145 976.003052,658.033936 986.013000,659.948120 
z"/>
</svg>