<svg version="1.1" id="Layer_1" xmlns="http://www.w3.org/2000/svg" xmlns:xlink="http://www.w3.org/1999/xlink" x="0px" y="0px"
	 width="100%" viewBox="0 0 225 225" enable-background="new 0 0 225 225" xml:space="preserve">
<path fill="#FCFCFD" opacity="1.000000" stroke="none" 
	d="
M226.000000,121.000000 
	C226.000000,155.926239 226.000000,190.852463 226.000000,226.000000 
	C191.979431,226.000000 157.958374,226.000000 123.654762,225.626740 
	C143.553146,223.624939 161.975250,217.027390 178.381866,205.194565 
	C203.250153,187.259003 218.571518,163.195938 224.136215,132.949463 
	C224.798416,129.350082 223.714096,127.969772 220.224548,128.013870 
	C213.881592,128.094009 207.467682,127.559326 201.214203,128.335388 
	C194.776001,129.134384 188.303833,130.647827 182.175797,132.790436 
	C152.554932,143.147095 132.950470,163.640579 123.238617,193.294922 
	C119.802071,203.788147 117.344940,214.733887 120.000000,226.000000 
	C116.307091,226.000000 112.614182,226.000000 108.474091,225.534851 
	C109.211876,156.830383 47.999729,120.640244 2.055954,129.423355 
	C2.055954,130.028336 1.948697,130.685562 2.071246,131.296692 
	C10.816673,174.909119 35.698971,204.874924 77.715637,220.020279 
	C85.220451,222.725479 93.225777,224.042175 101.000000,226.000000 
	C67.737946,226.000000 34.475887,226.000000 1.000000,226.000000 
	C1.000000,191.312729 1.000000,156.625031 1.405709,121.618477 
	C3.360229,121.543343 4.905336,121.967827 6.458490,121.999672 
	C13.433433,122.142647 20.515028,121.420204 27.369949,122.369270 
	C68.627037,128.081375 100.744118,156.981735 111.301392,197.411362 
	C111.943069,199.868683 112.441391,202.363419 113.208458,205.726624 
	C114.992676,199.102554 116.049751,193.350464 118.071732,187.960342 
	C134.315811,144.657669 173.471100,119.279144 219.461578,121.922699 
	C221.616257,122.046547 223.819412,121.326836 226.000000,121.000000 
z"/>
<path fill="#1C4783" opacity="1.000000" stroke="none" 
	d="
M226.000000,120.750000 
	C223.819412,121.326836 221.616257,122.046547 219.461578,121.922699 
	C173.471100,119.279144 134.315811,144.657669 118.071732,187.960342 
	C116.049751,193.350464 114.992676,199.102554 113.208458,205.726624 
	C112.441391,202.363419 111.943069,199.868683 111.301392,197.411362 
	C100.744118,156.981735 68.627037,128.081375 27.369949,122.369270 
	C20.515028,121.420204 13.433433,122.142647 6.458490,121.999672 
	C4.905336,121.967827 3.360229,121.543343 1.405709,121.149818 
	C1.000000,114.645599 1.000000,108.291206 1.368032,101.297951 
	C6.311760,66.295235 22.629795,39.012543 51.485603,19.707125 
	C64.002815,11.332728 77.439690,4.709124 93.002411,3.762498 
	C95.714249,3.597546 98.336418,1.958311 101.000000,0.999999 
	C108.020950,1.000000 115.041893,1.000000 122.822693,1.282294 
	C125.567406,1.755929 127.564064,1.865635 129.535385,2.150596 
	C173.975403,8.574500 211.216049,42.227066 222.012024,85.823273 
	C223.580338,92.156334 224.682266,98.604889 226.000000,105.000000 
	C226.000000,105.750000 226.000000,106.500000 225.680923,107.757721 
	C225.293793,109.166130 225.225739,110.066826 225.101135,111.407043 
	C225.363083,114.564384 225.681549,117.282188 226.000000,120.000000 
	C226.000000,120.000000 226.000000,120.500000 226.000000,120.750000 
M25.208818,53.746819 
	C16.608044,66.528572 10.765732,80.401451 8.249793,95.475349 
	C61.872749,98.745491 96.836136,125.610573 113.523232,176.211243 
	C123.375175,142.934006 143.648010,118.490875 175.873474,104.928658 
	C184.736679,101.198547 194.477539,99.403526 203.950150,97.336914 
	C208.506546,96.342857 213.375671,96.782173 218.152893,96.570190 
	C214.802704,68.237717 191.984131,24.733829 140.655289,10.463331 
	C98.467682,-1.265715 52.404011,15.600879 25.208818,53.746819 
z"/>
<path fill="#FEFEFE" opacity="1.000000" stroke="none" 
	d="
M226.000000,104.531342 
	C224.682266,98.604889 223.580338,92.156334 222.012024,85.823273 
	C211.216049,42.227066 173.975403,8.574500 129.535385,2.150596 
	C127.564064,1.865635 125.567406,1.755929 123.291275,1.282294 
	C157.260620,1.000000 191.521255,1.000000 226.000000,1.000000 
	C226.000000,35.353920 226.000000,69.708298 226.000000,104.531342 
z"/>
<path fill="#FEFEFE" opacity="1.000000" stroke="none" 
	d="
M100.531342,0.999999 
	C98.336418,1.958311 95.714249,3.597546 93.002411,3.762498 
	C77.439690,4.709124 64.002815,11.332728 51.485603,19.707125 
	C22.629795,39.012543 6.311760,66.295235 1.368032,100.829544 
	C1.000000,67.739731 1.000000,34.479462 1.000000,1.000000 
	C34.020573,1.000000 67.041626,1.000000 100.531342,0.999999 
z"/>
<path fill="#1D4784" opacity="1.000000" stroke="none" 
	d="
M101.437500,226.000000 
	C93.225777,224.042175 85.220451,222.725479 77.715637,220.020279 
	C35.698971,204.874924 10.816673,174.909119 2.071246,131.296692 
	C1.948697,130.685562 2.055954,130.028336 2.055954,129.423355 
	C47.999729,120.640244 109.211876,156.830383 108.013458,225.534851 
	C105.958336,226.000000 103.916664,226.000000 101.437500,226.000000 
M26.667980,148.149673 
	C22.440205,148.549347 18.212429,148.949020 13.856965,149.360764 
	C24.891348,186.625504 65.064049,217.586670 102.390488,219.062592 
	C102.946533,186.433823 73.848785,147.986877 26.667980,148.149673 
z"/>
<path fill="#1C4783" opacity="1.000000" stroke="none" 
	d="
M120.375000,226.000000 
	C117.344940,214.733887 119.802071,203.788147 123.238617,193.294922 
	C132.950470,163.640579 152.554932,143.147095 182.175797,132.790436 
	C188.303833,130.647827 194.776001,129.134384 201.214203,128.335388 
	C207.467682,127.559326 213.881592,128.094009 220.224548,128.013870 
	C223.714096,127.969772 224.798416,129.350082 224.136215,132.949463 
	C218.571518,163.195938 203.250153,187.259003 178.381866,205.194565 
	C161.975250,217.027390 143.553146,223.624939 123.186104,225.626740 
	C122.250000,226.000000 121.500000,226.000000 120.375000,226.000000 
M206.700394,148.682983 
	C158.888367,143.465942 124.585068,182.375488 124.496040,219.062714 
	C157.549347,220.706085 208.636887,180.721664 212.879852,149.530563 
	C211.114075,149.294144 209.346664,149.057510 206.700394,148.682983 
z"/>
<path fill="#93A2BD" opacity="1.000000" stroke="none" 
	d="
M226.000000,119.550018 
	C225.681549,117.282188 225.363083,114.564384 225.311676,111.412460 
	C225.578751,110.978348 226.000000,111.000000 226.000000,111.000000 
	C226.000000,113.700012 226.000000,116.400032 226.000000,119.550018 
z"/>
<path fill="#AAB5CA" opacity="1.000000" stroke="none" 
	d="
M226.000000,110.625000 
	C226.000000,111.000000 225.578751,110.978348 225.368210,110.972931 
	C225.225739,110.066826 225.293793,109.166130 225.680923,108.132721 
	C226.000000,108.750000 226.000000,109.500000 226.000000,110.625000 
z"/>
<path fill="#FEFDFD" opacity="1.000000" stroke="none" 
	d="
M25.429653,53.461857 
	C52.404011,15.600879 98.467682,-1.265715 140.655289,10.463331 
	C191.984131,24.733829 214.802704,68.237717 218.152893,96.570190 
	C213.375671,96.782173 208.506546,96.342857 203.950150,97.336914 
	C194.477539,99.403526 184.736679,101.198547 175.873474,104.928658 
	C143.648010,118.490875 123.375175,142.934006 113.523232,176.211243 
	C96.836136,125.610573 61.872749,98.745491 8.249793,95.475349 
	C10.765732,80.401451 16.608044,66.528572 25.429653,53.461857 
M57.352516,35.560791 
	C57.352516,39.282940 57.352516,43.005085 57.352516,47.198765 
	C59.060024,47.198765 60.492325,47.198765 62.093903,48.097809 
	C62.116093,58.916988 62.080467,69.736832 62.205032,80.554832 
	C62.232830,82.969116 61.755913,84.414108 58.187973,84.022667 
	C57.999439,87.692024 57.810902,91.361382 58.038437,95.865967 
	C66.419579,95.966576 74.800636,96.084587 83.182053,96.119621 
	C83.630844,96.121498 84.082558,95.424973 84.767075,94.154724 
	C84.767075,90.876633 84.767075,87.598541 84.767075,84.292168 
	C82.742744,84.041245 81.172729,83.846634 79.771088,83.672890 
	C79.771088,79.431923 79.771088,75.570992 79.771088,71.806992 
	C85.763306,71.806992 91.306946,71.806992 96.937149,71.806992 
	C96.937149,75.946709 96.937149,79.721504 96.937149,83.693253 
	C95.514900,83.850212 94.245850,83.990265 92.152527,84.398697 
	C92.152527,88.295296 92.152527,92.191895 92.152527,96.193001 
	C100.619675,96.193001 108.568344,96.233040 116.515511,96.141579 
	C117.492943,96.130333 118.462288,95.416519 119.739204,94.293381 
	C119.761742,92.209366 120.011215,90.093857 119.727959,88.052269 
	C119.535484,86.664993 118.596222,85.381332 117.260223,83.970833 
	C116.280930,83.958801 115.301628,83.946777 114.226875,83.010368 
	C114.174065,71.329292 114.121262,59.648212 114.634407,47.423317 
	C116.220757,47.195728 117.807098,46.968140 120.011063,46.651943 
	C119.642296,42.778015 119.283043,39.003944 118.027496,34.974808 
	C109.488930,34.974808 100.950363,34.974808 92.263138,34.974808 
	C92.263138,39.218643 92.263138,43.073246 92.263138,47.097584 
	C94.020180,47.097584 95.502708,47.097584 97.069778,48.012272 
	C97.069778,51.607719 97.069778,55.203171 97.069778,58.956001 
	C91.012268,58.956001 85.452118,58.956001 79.611542,58.956001 
	C79.611542,54.999863 79.611542,51.272533 79.611542,47.357975 
	C81.383759,47.159801 82.954231,46.984192 85.201759,46.732872 
	C84.760887,42.700317 84.349625,38.938530 83.029007,34.971992 
	C74.714027,35.041645 66.399055,35.111301 57.352516,35.560791 
M129.395660,47.719467 
	C129.395660,59.791317 129.395660,71.863167 129.395660,83.825470 
	C124.481544,85.020393 124.005867,86.731026 125.523262,96.592438 
	C134.218216,96.592438 142.939407,96.592438 151.739471,96.592438 
	C151.739471,92.472191 151.739471,88.606422 151.739471,84.718330 
	C149.911377,84.452530 148.503906,84.247887 147.025116,84.032875 
	C147.025116,79.959396 147.025116,76.211517 147.025116,72.004356 
	C151.032715,72.004356 154.825516,72.143784 158.604950,71.978134 
	C169.818390,71.486656 178.222412,61.877171 176.542542,51.335819 
	C175.121277,42.417168 169.836563,36.990555 160.035202,34.978394 
	C148.389389,34.978394 136.743591,34.978394 125.278351,34.978394 
	C125.278351,39.433174 125.278351,43.170921 125.278351,47.002769 
	C126.696518,47.002769 127.848938,47.002769 129.395660,47.719467 
z"/>
<path fill="#FDFDFE" opacity="1.000000" stroke="none" 
	d="
M27.127071,148.148376 
	C73.848785,147.986877 102.946533,186.433823 102.390488,219.062592 
	C65.064049,217.586670 24.891348,186.625504 13.856965,149.360764 
	C18.212429,148.949020 22.440205,148.549347 27.127071,148.148376 
z"/>
<path fill="#FDFDFE" opacity="1.000000" stroke="none" 
	d="
M207.139832,148.751923 
	C209.346664,149.057510 211.114075,149.294144 212.879852,149.530563 
	C208.636887,180.721664 157.549347,220.706085 124.496040,219.062714 
	C124.585068,182.375488 158.888367,143.465942 207.139832,148.751923 
z"/>
<path fill="#EB2429" opacity="1.000000" stroke="none" 
	d="
M83.938354,35.176746 
	C84.349625,38.938530 84.760887,42.700317 85.201759,46.732872 
	C82.954231,46.984192 81.383759,47.159801 79.611542,47.357975 
	C79.611542,51.272533 79.611542,54.999863 79.611542,58.956001 
	C85.452118,58.956001 91.012268,58.956001 97.069778,58.956001 
	C97.069778,55.203171 97.069778,51.607719 96.798500,47.242508 
	C89.966911,44.698475 94.003677,40.017216 93.147118,36.007023 
	C96.580475,36.007023 99.377586,36.089668 102.168159,35.989601 
	C107.755264,35.789249 113.338783,35.488922 118.923782,35.229870 
	C119.283043,39.003944 119.642296,42.778015 120.011063,46.651943 
	C117.807098,46.968140 116.220757,47.195728 114.036270,47.977547 
	C113.304756,59.691658 113.149887,70.851425 113.093826,82.011696 
	C113.090622,82.650642 113.894218,83.293640 114.322334,83.934753 
	C115.301628,83.946777 116.280930,83.958801 117.662033,84.462784 
	C118.090668,88.224487 118.117485,91.494247 117.671600,94.835449 
	C112.750275,94.936691 108.301666,94.987015 103.853004,94.992195 
	C93.073685,95.004745 93.073677,94.996277 92.976807,84.130318 
	C94.245850,83.990265 95.514900,83.850212 96.937149,83.693253 
	C96.937149,79.721504 96.937149,75.946709 96.937149,71.806992 
	C91.306946,71.806992 85.763306,71.806992 79.771088,71.806992 
	C79.771088,75.570992 79.771088,79.431923 79.771088,83.672890 
	C81.172729,83.846634 82.742744,84.041245 84.767075,84.292168 
	C84.767075,87.598541 84.767075,90.876633 84.212082,94.593781 
	C75.385071,94.938286 67.113045,94.843727 58.872066,94.318214 
	C58.938568,90.607697 58.974014,87.328140 59.009468,84.048576 
	C61.755913,84.414108 62.232830,82.969116 62.205032,80.554832 
	C62.080467,69.736832 62.116093,58.916988 61.777679,47.349739 
	C56.590439,44.134163 59.955299,39.631950 59.370415,36.144295 
	C61.829479,36.045464 63.817471,36.076263 65.800827,35.994492 
	C71.847626,35.745201 77.892647,35.452530 83.938354,35.176746 
z"/>
<path fill="#EB2429" opacity="1.000000" stroke="none" 
	d="
M160.954620,35.138580 
	C169.836563,36.990555 175.121277,42.417168 176.542542,51.335819 
	C178.222412,61.877171 169.818390,71.486656 158.604950,71.978134 
	C154.825516,72.143784 151.032715,72.004356 147.025116,72.004356 
	C147.025116,76.211517 147.025116,79.959396 147.025116,84.032875 
	C148.503906,84.247887 149.911377,84.452530 151.739471,84.718330 
	C151.739471,88.606422 151.739471,92.472191 151.739471,96.592438 
	C142.939407,96.592438 134.218216,96.592438 125.523262,96.592438 
	C124.005867,86.731026 124.481544,85.020393 129.395660,83.825470 
	C129.395660,71.863167 129.395660,59.791317 128.958740,47.066387 
	C123.924362,44.659672 126.456291,40.792545 126.310486,37.879250 
	C126.283234,37.334805 129.340820,36.158127 131.006668,36.093376 
	C136.775269,35.869171 142.560654,36.114925 148.334366,35.970745 
	C152.545425,35.865585 156.748169,35.427982 160.954620,35.138580 
M154.159882,59.190769 
	C158.479126,59.099102 161.318466,57.298508 160.950455,52.586544 
	C160.613678,48.274567 157.801086,46.698364 153.704971,46.857937 
	C151.291382,46.951965 148.871124,46.875111 146.494827,46.875111 
	C146.494827,51.382526 146.494827,55.128826 146.494827,59.196770 
	C148.962112,59.196770 151.111618,59.196770 154.159882,59.190769 
z"/>
<path fill="#EA0003" opacity="1.000000" stroke="none" 
	d="
M160.494904,35.058487 
	C156.748169,35.427982 152.545425,35.865585 148.334366,35.970745 
	C142.560654,36.114925 136.775269,35.869171 131.006668,36.093376 
	C129.340820,36.158127 126.283234,37.334805 126.310486,37.879250 
	C126.456291,40.792545 123.924362,44.659672 128.761597,46.708038 
	C127.848938,47.002769 126.696518,47.002769 125.278351,47.002769 
	C125.278351,43.170921 125.278351,39.433174 125.278351,34.978394 
	C136.743591,34.978394 148.389389,34.978394 160.494904,35.058487 
z"/>
<path fill="#EA0003" opacity="1.000000" stroke="none" 
	d="
M118.475639,35.102341 
	C113.338783,35.488922 107.755264,35.789249 102.168159,35.989601 
	C99.377586,36.089668 96.580475,36.007023 93.147118,36.007023 
	C94.003677,40.017216 89.966911,44.698475 96.756226,46.785164 
	C95.502708,47.097584 94.020180,47.097584 92.263138,47.097584 
	C92.263138,43.073246 92.263138,39.218643 92.263138,34.974808 
	C100.950363,34.974808 109.488930,34.974808 118.475639,35.102341 
z"/>
<path fill="#EA010D" opacity="1.000000" stroke="none" 
	d="
M92.564667,84.264511 
	C93.073677,94.996277 93.073685,95.004745 103.853004,94.992195 
	C108.301666,94.987015 112.750275,94.936691 117.987564,94.933243 
	C118.995934,94.982491 119.215652,95.005379 119.435379,95.028275 
	C118.462288,95.416519 117.492943,96.130333 116.515511,96.141579 
	C108.568344,96.233040 100.619675,96.193001 92.152527,96.193001 
	C92.152527,92.191895 92.152527,88.295296 92.564667,84.264511 
z"/>
<path fill="#EA000E" opacity="1.000000" stroke="none" 
	d="
M114.274605,83.472565 
	C113.894218,83.293640 113.090622,82.650642 113.093826,82.011696 
	C113.149887,70.851425 113.304756,59.691658 113.753296,48.249458 
	C114.121262,59.648212 114.174065,71.329292 114.274605,83.472565 
z"/>
<path fill="#EA000D" opacity="1.000000" stroke="none" 
	d="
M58.841015,94.749168 
	C67.113045,94.843727 75.385071,94.938286 84.095001,95.043205 
	C84.082558,95.424973 83.630844,96.121498 83.182053,96.119621 
	C74.800636,96.084587 66.419579,95.966576 58.141983,95.407837 
	C58.444023,94.882858 58.642517,94.816010 58.841015,94.749168 
z"/>
<path fill="#EE4043" opacity="1.000000" stroke="none" 
	d="
M58.897228,36.222443 
	C59.955299,39.631950 56.590439,44.134163 61.693039,46.900215 
	C60.492325,47.198765 59.060024,47.198765 57.352516,47.198765 
	C57.352516,43.005085 57.352516,39.282940 57.809135,35.577084 
	C58.404400,35.875168 58.614891,36.084858 58.897228,36.222443 
z"/>
<path fill="#EA0000" opacity="1.000000" stroke="none" 
	d="
M59.370415,36.144295 
	C58.614891,36.084858 58.404400,35.875168 58.174919,35.387169 
	C66.399055,35.111301 74.714027,35.041645 83.483681,35.074371 
	C77.892647,35.452530 71.847626,35.745201 65.800827,35.994492 
	C63.817471,36.076263 61.829479,36.045464 59.370415,36.144295 
z"/>
<path fill="#EE4045" opacity="1.000000" stroke="none" 
	d="
M119.587296,94.660828 
	C119.215652,95.005379 118.995934,94.982491 118.460266,94.861801 
	C118.117485,91.494247 118.090668,88.224487 118.027374,84.503029 
	C118.596222,85.381332 119.535484,86.664993 119.727959,88.052269 
	C120.011215,90.093857 119.761742,92.209366 119.587296,94.660828 
z"/>
<path fill="#EE4247" opacity="1.000000" stroke="none" 
	d="
M58.872066,94.318214 
	C58.642517,94.816010 58.444023,94.882858 57.933945,94.990219 
	C57.810902,91.361382 57.999439,87.692024 58.598717,84.035622 
	C58.974014,87.328140 58.938568,90.607697 58.872066,94.318214 
z"/>
<path fill="#FEF9F9" opacity="1.000000" stroke="none" 
	d="
M153.710510,59.193771 
	C151.111618,59.196770 148.962112,59.196770 146.494827,59.196770 
	C146.494827,55.128826 146.494827,51.382526 146.494827,46.875111 
	C148.871124,46.875111 151.291382,46.951965 153.704971,46.857937 
	C157.801086,46.698364 160.613678,48.274567 160.950455,52.586544 
	C161.318466,57.298508 158.479126,59.099102 153.710510,59.193771 
z"/>
</svg>