<svg version="1.1" id="Layer_1" xmlns="http://www.w3.org/2000/svg" xmlns:xlink="http://www.w3.org/1999/xlink" x="0px" y="0px"
	 width="100%" viewBox="0 0 206 245" enable-background="new 0 0 206 245" xml:space="preserve">
<path fill="#FCFCFC" opacity="1.000000" stroke="none" 
	d="
M207.000000,111.000000 
	C207.000000,154.833328 206.992126,198.666672 207.023331,242.499985 
	C207.024887,244.680801 207.438095,246.923126 203.679993,245.610657 
	C203.977585,244.799515 205.130539,244.382721 205.134506,243.955231 
	C205.234131,233.230286 205.212799,222.504211 205.212799,211.943420 
	C202.824844,211.943420 201.067780,211.943420 199.000000,211.943420 
	C199.000000,223.465088 199.000000,234.732544 199.000000,246.000000 
	C197.285645,246.000000 195.571289,246.000000 193.258209,245.809387 
	C192.442505,245.411713 192.225555,245.204666 192.220337,244.615982 
	C192.432083,236.543259 192.432083,228.852158 192.432083,221.082291 
	C190.273148,221.082291 188.646896,221.082291 186.601837,221.212921 
	C186.183884,228.899628 186.184738,236.455704 186.112793,244.217178 
	C186.039978,244.422562 186.152939,244.843475 186.147064,245.136887 
	C186.094116,245.620193 186.047058,245.810104 186.000000,246.000000 
	C180.645065,246.000000 175.290146,246.000000 169.686951,245.727020 
	C178.462677,242.481552 182.526749,235.105652 180.959473,224.544891 
	C179.737122,216.308258 173.617950,211.029236 165.202316,210.951096 
	C155.909149,210.864807 150.316788,215.451996 148.750229,224.095764 
	C146.973846,233.897064 150.318710,241.162003 159.000000,246.000000 
	C153.311966,246.000000 147.623917,246.000000 141.632812,245.609894 
	C141.926224,244.443405 143.031204,243.671265 143.037704,242.889984 
	C143.084412,237.272278 142.908218,231.652695 142.820480,225.672119 
	C139.604446,219.834167 133.156952,219.225616 127.241974,223.430252 
	C125.362839,222.064728 123.600357,221.118362 121.000000,219.722107 
	C121.000000,229.496063 121.000000,237.748032 121.000000,246.000000 
	C118.629440,246.000000 116.258888,246.000000 113.582153,245.620453 
	C113.886848,244.017273 114.958923,242.817337 115.023300,241.565598 
	C115.227478,237.595413 115.071861,233.605682 115.025223,229.623871 
	C114.954765,223.607071 113.316734,221.351425 108.614212,220.731186 
	C101.802460,219.832748 95.905182,222.529709 94.126877,228.693054 
	C97.172249,227.608688 99.500084,227.104935 101.493103,225.998245 
	C104.968918,224.068161 107.598831,225.220779 108.263603,229.606659 
	C106.051491,230.085785 103.761795,230.406097 101.588448,231.093964 
	C98.386101,232.107513 94.746582,232.410858 93.786064,236.850708 
	C92.852158,241.167557 94.777695,243.790588 98.000000,246.000000 
	C94.969406,246.000000 91.938812,246.000000 88.438828,245.748016 
	C87.978821,245.327988 87.988205,245.159943 88.183624,244.556305 
	C88.369667,236.457672 88.369667,228.794632 88.369667,220.348801 
	C85.809303,221.025650 83.984169,221.508148 82.082603,222.454254 
	C82.056847,229.948151 82.107521,236.978409 82.087509,244.217377 
	C82.016830,244.426102 82.127388,244.852722 82.116577,245.141876 
	C82.070518,245.620682 82.035263,245.810349 82.000000,246.000000 
	C79.629440,246.000000 77.258888,246.000000 74.591537,245.606537 
	C74.859978,244.751541 75.914536,244.294266 75.918602,243.827820 
	C76.011795,233.151581 75.990425,222.474365 75.990425,211.921371 
	C73.555664,211.921371 71.788719,211.921371 69.766327,211.921371 
	C69.766327,215.748047 69.766327,219.346832 69.398178,222.884979 
	C61.861912,218.121658 51.623383,222.095428 51.869228,232.309464 
	C52.012829,238.275421 54.064854,242.766296 59.000000,246.000000 
	C54.643101,246.000000 50.286201,246.000000 45.622391,245.608185 
	C45.899250,244.271713 46.967552,243.336395 46.985916,242.380890 
	C47.084229,237.266479 46.920628,232.147049 46.893250,226.670868 
	C44.322899,220.164398 37.083897,219.019455 31.242432,223.429443 
	C29.350609,222.063034 27.576050,221.115494 25.000000,219.740005 
	C25.000000,229.493820 25.000000,237.746902 25.000000,246.000000 
	C22.629442,246.000000 20.258884,246.000000 17.571987,245.626007 
	C17.690573,244.810562 18.502254,244.371613 18.505230,243.927277 
	C18.576208,233.316849 18.560431,222.705841 18.560431,211.891174 
	C16.120775,211.891174 14.214475,211.891174 12.000000,211.891174 
	C12.000000,223.411407 12.000000,234.705704 12.000000,246.000000 
	C8.344278,246.000000 4.688558,246.000000 1.000000,246.000000 
	C1.000000,200.979111 1.000000,155.958206 1.381451,110.632843 
	C2.297398,114.277565 2.601886,118.273994 3.401543,122.168755 
	C12.607220,167.005493 47.294197,198.878204 92.711464,204.330093 
	C141.315948,210.164597 188.352707,179.335953 202.024826,132.508774 
	C204.083969,125.456192 205.361130,118.175285 207.000000,111.000000 
M190.884811,217.320084 
	C191.618057,215.673630 192.351303,214.027191 193.341873,211.802979 
	C190.220978,211.802979 188.294189,211.802979 186.186462,211.802979 
	C186.186462,213.610611 186.186462,215.231583 186.186462,217.100601 
	C187.497940,217.178467 188.797989,217.255661 190.884811,217.320084 
M88.548561,215.245483 
	C88.962692,209.151215 84.763084,212.268784 82.139999,211.735611 
	C82.139999,213.697388 82.139999,215.317657 82.139999,217.874741 
	C84.490814,217.188751 86.501076,216.602127 88.548561,215.245483 
z"/>
<path fill="#0D1952" opacity="1.000000" stroke="none" 
	d="
M207.000000,110.666672 
	C205.361130,118.175285 204.083969,125.456192 202.024826,132.508774 
	C188.352707,179.335953 141.315948,210.164597 92.711464,204.330093 
	C47.294197,198.878204 12.607220,167.005493 3.401543,122.168755 
	C2.601886,118.273994 2.297398,114.277565 1.381451,110.164185 
	C1.000000,109.250000 1.000000,108.500000 1.368834,107.200073 
	C1.491780,104.100098 1.245890,101.550049 1.000000,99.000000 
	C1.000000,98.250000 1.000000,97.500000 1.377155,96.204300 
	C6.115039,52.137028 33.496342,18.129282 74.494064,5.552134 
	C80.557564,3.691997 86.826248,2.500728 93.000000,1.000000 
	C93.000000,1.000000 93.500000,1.000000 93.870667,1.330366 
	C95.494225,1.440489 96.747116,1.220244 98.000000,1.000000 
	C103.022095,1.000000 108.044182,1.000000 113.697876,1.379799 
	C116.598206,2.146146 118.873375,2.498428 121.134682,2.924329 
	C161.956070,10.612737 188.770187,34.439041 201.977020,73.604713 
	C204.307297,80.515289 205.358246,87.857254 207.000000,95.000000 
	C207.000000,95.750000 207.000000,96.500000 206.620743,97.815460 
	C206.494324,101.920616 206.747162,105.460312 207.000000,109.000000 
	C207.000000,109.444443 207.000000,109.888893 207.000000,110.666672 
M23.053152,158.415436 
	C40.415695,182.371506 63.454674,196.797516 93.093094,200.170853 
	C103.055077,201.304688 112.906151,201.131775 122.809486,199.119675 
	C174.924210,188.531235 208.763611,140.696747 201.118454,88.171524 
	C192.851120,31.371874 133.936539,-6.920937 78.740448,8.629297 
	C12.953417,27.163288 -14.720566,100.780479 23.053152,158.415436 
z"/>
<path fill="#FDFDFE" opacity="1.000000" stroke="none" 
	d="
M92.531342,1.000000 
	C86.826248,2.500728 80.557564,3.691997 74.494064,5.552134 
	C33.496342,18.129282 6.115039,52.137028 1.377155,95.829300 
	C1.000000,64.407585 1.000000,32.815166 1.000000,1.000000 
	C31.353865,1.000000 61.708275,1.000000 92.531342,1.000000 
z"/>
<path fill="#FDFDFE" opacity="1.000000" stroke="none" 
	d="
M207.000000,94.531342 
	C205.358246,87.857254 204.307297,80.515289 201.977020,73.604713 
	C188.770187,34.439041 161.956070,10.612737 121.134682,2.924329 
	C118.873375,2.498428 116.598206,2.146146 114.164742,1.379799 
	C144.927307,1.000000 175.854630,1.000000 207.000000,1.000000 
	C207.000000,32.020554 207.000000,63.041618 207.000000,94.531342 
z"/>
<path fill="#081750" opacity="1.000000" stroke="none" 
	d="
M159.454102,246.000000 
	C150.318710,241.162003 146.973846,233.897064 148.750229,224.095764 
	C150.316788,215.451996 155.909149,210.864807 165.202316,210.951096 
	C173.617950,211.029236 179.737122,216.308258 180.959473,224.544891 
	C182.526749,235.105652 178.462677,242.481552 169.219330,245.727020 
	C165.969406,246.000000 162.938812,246.000000 159.454102,246.000000 
M173.839462,224.220673 
	C171.357910,218.024017 168.278259,216.061615 162.565979,217.036987 
	C158.169815,217.787613 155.335052,222.044586 155.212433,228.079788 
	C155.092834,233.967712 158.074142,238.756180 162.529678,239.832474 
	C166.981201,240.907806 171.486328,238.841766 172.925430,234.334000 
	C173.853165,231.427933 173.649475,228.160645 173.839462,224.220673 
z"/>
<path fill="#081951" opacity="1.000000" stroke="none" 
	d="
M59.444164,246.000000 
	C54.064854,242.766296 52.012829,238.275421 51.869228,232.309464 
	C51.623383,222.095428 61.861912,218.121658 69.739853,222.651138 
	C70.633934,220.532196 70.646965,218.548798 71.063438,216.654083 
	C71.335022,215.418549 72.192741,214.311859 72.787903,213.147461 
	C73.522667,214.338455 74.860062,215.512894 74.893341,216.723175 
	C75.093239,223.993713 75.054276,231.273376 74.949402,238.547882 
	C74.924889,240.248779 74.336861,241.941574 74.008102,243.638092 
	C72.301804,243.145035 70.595520,242.651978 68.283394,241.983841 
	C67.933266,243.079514 67.466629,244.539764 67.000000,246.000000 
	C64.629440,246.000000 62.258884,246.000000 59.444164,246.000000 
M63.672253,225.218857 
	C58.987820,227.611130 57.132206,233.786682 59.788025,238.145660 
	C61.829945,241.497040 65.645126,241.767883 68.036690,238.731247 
	C71.535378,234.288834 69.747032,227.578674 63.672253,225.218857 
z"/>
<path fill="#081750" opacity="1.000000" stroke="none" 
	d="
M98.466118,246.000000 
	C94.777695,243.790588 92.852158,241.167557 93.786064,236.850708 
	C94.746582,232.410858 98.386101,232.107513 101.588448,231.093964 
	C103.761795,230.406097 106.051491,230.085785 108.263603,229.606659 
	C107.598831,225.220779 104.968918,224.068161 101.493103,225.998245 
	C99.500084,227.104935 97.172249,227.608688 94.126877,228.693054 
	C95.905182,222.529709 101.802460,219.832748 108.614212,220.731186 
	C113.316734,221.351425 114.954765,223.607071 115.025223,229.623871 
	C115.071861,233.605682 115.227478,237.595413 115.023300,241.565598 
	C114.958923,242.817337 113.886848,244.017273 113.137985,245.620453 
	C108.310745,246.000000 103.621490,246.000000 98.466118,246.000000 
M108.676964,236.963135 
	C108.256874,230.680511 104.495285,235.608185 102.404083,235.338654 
	C101.753845,235.254852 100.789482,237.608170 99.968918,238.845749 
	C101.383568,239.687958 103.000725,241.420975 104.163826,241.156555 
	C105.773201,240.790710 107.040833,238.921494 108.676964,236.963135 
z"/>
<path fill="#010D4A" opacity="1.000000" stroke="none" 
	d="
M12.416666,246.000000 
	C12.000000,234.705704 12.000000,223.411407 12.000000,211.891174 
	C14.214475,211.891174 16.120775,211.891174 18.560431,211.891174 
	C18.560431,222.705841 18.576208,233.316849 18.505230,243.927277 
	C18.502254,244.371613 17.690573,244.810562 17.127823,245.626007 
	C15.611111,246.000000 14.222222,246.000000 12.416666,246.000000 
z"/>
<path fill="#F0F1F4" opacity="1.000000" stroke="none" 
	d="
M41.000000,246.000000 
	C37.307091,246.000000 33.614182,246.000000 29.625309,245.609802 
	C29.937428,243.954086 30.967257,242.723465 31.075386,241.416580 
	C31.414597,237.316742 31.406715,233.188171 31.723446,228.808685 
	C35.222343,224.184875 36.980782,224.080856 40.553646,228.500916 
	C40.745453,234.641678 40.872726,240.320831 41.000000,246.000000 
z"/>
<path fill="#F0F1F3" opacity="1.000000" stroke="none" 
	d="
M137.000000,246.000000 
	C133.307098,246.000000 129.614182,246.000000 125.628342,245.606842 
	C125.979492,244.132156 127.108177,243.081879 127.180298,241.963470 
	C127.435646,238.003647 127.329865,234.020554 127.564896,229.783478 
	C130.380722,224.175888 132.857193,223.766632 136.790009,228.494781 
	C136.854431,234.640747 136.927216,240.320374 137.000000,246.000000 
z"/>
<path fill="#000043" opacity="1.000000" stroke="none" 
	d="
M199.399994,246.000000 
	C199.000000,234.732544 199.000000,223.465088 199.000000,211.943420 
	C201.067780,211.943420 202.824844,211.943420 205.212799,211.943420 
	C205.212799,222.504211 205.234131,233.230286 205.134506,243.955231 
	C205.130539,244.382721 203.977585,244.799515 203.179993,245.610657 
	C201.933334,246.000000 200.866653,246.000000 199.399994,246.000000 
M200.007416,215.899689 
	C200.007309,224.201447 199.946793,232.504196 200.084488,240.803665 
	C200.101471,241.827148 201.175644,242.833084 201.759933,243.847153 
	C202.504501,242.827225 203.873077,241.820511 203.894974,240.785309 
	C204.070587,232.487289 204.040207,224.183212 203.922409,215.883118 
	C203.909393,214.966782 202.950958,214.063873 202.430984,213.154739 
	C201.636017,213.772842 200.841049,214.390945 200.007416,215.899689 
z"/>
<path fill="#00003F" opacity="1.000000" stroke="none" 
	d="
M67.437500,246.000000 
	C67.466629,244.539764 67.933266,243.079514 68.283394,241.983841 
	C70.595520,242.651978 72.301804,243.145035 74.008102,243.638092 
	C74.336861,241.941574 74.924889,240.248779 74.949402,238.547882 
	C75.054276,231.273376 75.093239,223.993713 74.893341,216.723175 
	C74.860062,215.512894 73.522667,214.338455 72.787903,213.147461 
	C72.192741,214.311859 71.335022,215.418549 71.063438,216.654083 
	C70.646965,218.548798 70.633934,220.532196 70.108002,222.711792 
	C69.766327,219.346832 69.766327,215.748047 69.766327,211.921371 
	C71.788719,211.921371 73.555664,211.921371 75.990425,211.921371 
	C75.990425,222.474365 76.011795,233.151581 75.918602,243.827820 
	C75.914536,244.294266 74.859978,244.751541 74.147369,245.606537 
	C71.958336,246.000000 69.916664,246.000000 67.437500,246.000000 
z"/>
<path fill="#00003F" opacity="1.000000" stroke="none" 
	d="
M31.533274,229.070740 
	C31.406715,233.188171 31.414597,237.316742 31.075386,241.416580 
	C30.967257,242.723465 29.937428,243.954086 29.164673,245.609802 
	C27.933331,246.000000 26.866661,246.000000 25.399996,246.000000 
	C25.000000,237.746902 25.000000,229.493820 25.000000,219.740005 
	C27.576050,221.115494 29.350609,222.063034 30.889240,223.296082 
	C27.478455,220.834198 25.977209,221.622375 25.997953,225.757370 
	C26.020473,230.246658 25.816341,234.748001 26.101757,239.219162 
	C26.202656,240.799774 27.455036,242.306885 28.181705,243.847549 
	C28.787771,242.352524 29.640760,240.906540 29.949303,239.352448 
	C30.623955,235.954315 31.022150,232.501328 31.533274,229.070740 
z"/>
<path fill="#00003E" opacity="1.000000" stroke="none" 
	d="
M127.360970,230.046280 
	C127.329865,234.020554 127.435646,238.003647 127.180298,241.963470 
	C127.108177,243.081879 125.979492,244.132156 125.167702,245.606842 
	C123.933327,246.000000 122.866661,246.000000 121.399994,246.000000 
	C121.000000,237.748032 121.000000,229.496063 121.000000,219.722107 
	C123.600357,221.118362 125.362839,222.064728 126.889053,223.296051 
	C123.511421,220.868042 121.978790,221.579651 121.998451,225.737335 
	C122.021202,230.547836 121.860703,235.365646 122.099983,240.164307 
	C122.162743,241.423004 123.410866,242.622589 124.114624,243.849319 
	C124.743599,242.547379 125.672653,241.304230 125.941597,239.931732 
	C126.580933,236.669144 126.907829,233.345352 127.360970,230.046280 
z"/>
<path fill="#00003F" opacity="1.000000" stroke="none" 
	d="
M137.399994,246.000000 
	C136.927216,240.320374 136.854431,234.640747 137.128845,228.746429 
	C137.651855,232.476456 137.701279,236.433350 138.079025,240.358658 
	C138.195251,241.566238 139.208679,242.687485 139.811279,243.848267 
	C140.540192,242.647491 141.775330,241.499786 141.907776,240.236481 
	C142.401947,235.522751 142.534515,230.771133 142.802750,226.033722 
	C142.908218,231.652695 143.084412,237.272278 143.037704,242.889984 
	C143.031204,243.671265 141.926224,244.443405 141.164886,245.609894 
	C139.933334,246.000000 138.866653,246.000000 137.399994,246.000000 
z"/>
<path fill="#00003F" opacity="1.000000" stroke="none" 
	d="
M41.399994,246.000000 
	C40.872726,240.320831 40.745453,234.641678 40.937912,228.705704 
	C41.505573,232.329178 41.609463,236.227081 42.081104,240.079971 
	C42.241951,241.393982 43.327206,242.594849 43.990078,243.847427 
	C44.659119,242.601135 45.767414,241.405090 45.916836,240.099335 
	C46.412952,235.763947 46.564106,231.389069 46.847549,227.029343 
	C46.920628,232.147049 47.084229,237.266479 46.985916,242.380890 
	C46.967552,243.336395 45.899250,244.271713 45.157742,245.608185 
	C43.933331,246.000000 42.866661,246.000000 41.399994,246.000000 
z"/>
<path fill="#B6B9C5" opacity="1.000000" stroke="none" 
	d="
M207.000000,108.541931 
	C206.747162,105.460312 206.494324,101.920616 206.620743,98.190460 
	C207.000000,101.361290 207.000000,104.722572 207.000000,108.541931 
z"/>
<path fill="#B6B9C5" opacity="1.000000" stroke="none" 
	d="
M1.000000,99.444168 
	C1.245890,101.550049 1.491780,104.100098 1.368834,106.825073 
	C1.000000,104.629440 1.000000,102.258888 1.000000,99.444168 
z"/>
<path fill="#999EB1" opacity="1.000000" stroke="none" 
	d="
M192.008606,244.997604 
	C192.225555,245.204666 192.442505,245.411713 192.829742,245.809387 
	C190.958328,246.000000 188.916672,246.000000 186.437500,246.000000 
	C186.047058,245.810104 186.094116,245.620193 186.564606,245.151917 
	C188.661560,244.914902 190.335083,244.956253 192.008606,244.997604 
z"/>
<path fill="#A0A4B5" opacity="1.000000" stroke="none" 
	d="
M87.997589,244.991882 
	C87.988205,245.159943 87.978821,245.327988 87.984718,245.748016 
	C86.285812,246.000000 84.571625,246.000000 82.428719,246.000000 
	C82.035263,245.810349 82.070518,245.620682 82.535110,245.162689 
	C84.642174,244.926849 86.319878,244.959366 87.997589,244.991882 
z"/>
<path fill="#8A8FA4" opacity="1.000000" stroke="none" 
	d="
M97.600006,1.000000 
	C96.747116,1.220244 95.494225,1.440489 94.120667,1.330366 
	C95.066673,1.000000 96.133339,1.000000 97.600006,1.000000 
z"/>
<path fill="#041650" opacity="1.000000" stroke="none" 
	d="
M142.820480,225.672119 
	C142.534515,230.771133 142.401947,235.522751 141.907776,240.236481 
	C141.775330,241.499786 140.540192,242.647491 139.811279,243.848267 
	C139.208679,242.687485 138.195251,241.566238 138.079025,240.358658 
	C137.701279,236.433350 137.651855,232.476456 137.137207,228.280090 
	C132.857193,223.766632 130.380722,224.175888 127.564896,229.783478 
	C126.907829,233.345352 126.580933,236.669144 125.941597,239.931732 
	C125.672653,241.304230 124.743599,242.547379 124.114624,243.849319 
	C123.410866,242.622589 122.162743,241.423004 122.099983,240.164307 
	C121.860703,235.365646 122.021202,230.547836 121.998451,225.737335 
	C121.978790,221.579651 123.511421,220.868042 127.005707,223.715210 
	C133.156952,219.225616 139.604446,219.834167 142.820480,225.672119 
z"/>
<path fill="#051750" opacity="1.000000" stroke="none" 
	d="
M46.893250,226.670868 
	C46.564106,231.389069 46.412952,235.763947 45.916836,240.099335 
	C45.767414,241.405090 44.659119,242.601135 43.990078,243.847427 
	C43.327206,242.594849 42.241951,241.393982 42.081104,240.079971 
	C41.609463,236.227081 41.505573,232.329178 40.873375,228.244110 
	C36.980782,224.080856 35.222343,224.184875 31.723446,228.808685 
	C31.022150,232.501328 30.623955,235.954315 29.949303,239.352448 
	C29.640760,240.906540 28.787771,242.352524 28.181705,243.847549 
	C27.455036,242.306885 26.202656,240.799774 26.101757,239.219162 
	C25.816341,234.748001 26.020473,230.246658 25.997953,225.757370 
	C25.977209,221.622375 27.478455,220.834198 31.006504,223.714951 
	C37.083897,219.019455 44.322899,220.164398 46.893250,226.670868 
z"/>
<path fill="#051850" opacity="1.000000" stroke="none" 
	d="
M186.185593,244.011795 
	C186.184738,236.455704 186.183884,228.899628 186.870331,221.483047 
	C188.696930,222.515793 190.779449,223.365417 190.823090,224.309311 
	C191.116043,230.644287 190.975494,236.999313 190.975494,243.660477 
	C189.037476,243.802612 187.611526,243.907211 186.185593,244.011795 
z"/>
<path fill="#01164F" opacity="1.000000" stroke="none" 
	d="
M82.158188,244.008667 
	C82.107521,236.978409 82.056847,229.948151 82.504868,222.457840 
	C84.326912,222.807709 86.751045,223.559692 86.797203,224.436813 
	C87.127480,230.712906 86.973633,237.014481 86.973633,243.643280 
	C85.047890,243.789398 83.603043,243.899033 82.158188,244.008667 
z"/>
<path fill="#000045" opacity="1.000000" stroke="none" 
	d="
M186.112793,244.217178 
	C187.611526,243.907211 189.037476,243.802612 190.975494,243.660477 
	C190.975494,236.999313 191.116043,230.644287 190.823090,224.309311 
	C190.779449,223.365417 188.696930,222.515793 187.289154,221.352417 
	C188.646896,221.082291 190.273148,221.082291 192.432083,221.082291 
	C192.432083,228.852158 192.432083,236.543259 192.220337,244.615982 
	C190.335083,244.956253 188.661560,244.914902 186.570496,244.858505 
	C186.152939,244.843475 186.039978,244.422562 186.112793,244.217178 
z"/>
<path fill="#131D55" opacity="1.000000" stroke="none" 
	d="
M190.491425,217.326462 
	C188.797989,217.255661 187.497940,217.178467 186.186462,217.100601 
	C186.186462,215.231583 186.186462,213.610611 186.186462,211.802979 
	C188.294189,211.802979 190.220978,211.802979 193.341873,211.802979 
	C192.351303,214.027191 191.618057,215.673630 190.491425,217.326462 
z"/>
<path fill="#131D56" opacity="1.000000" stroke="none" 
	d="
M88.529953,215.630493 
	C86.501076,216.602127 84.490814,217.188751 82.139999,217.874741 
	C82.139999,215.317657 82.139999,213.697388 82.139999,211.735611 
	C84.763084,212.268784 88.962692,209.151215 88.529953,215.630493 
z"/>
<path fill="#000045" opacity="1.000000" stroke="none" 
	d="
M82.087509,244.217377 
	C83.603043,243.899033 85.047890,243.789398 86.973633,243.643280 
	C86.973633,237.014481 87.127480,230.712906 86.797203,224.436813 
	C86.751045,223.559692 84.326912,222.807709 82.581284,221.994202 
	C83.984169,221.508148 85.809303,221.025650 88.369667,220.348801 
	C88.369667,228.794632 88.369667,236.457672 88.183624,244.556305 
	C86.319878,244.959366 84.642174,244.926849 82.545929,244.873535 
	C82.127388,244.852722 82.016830,244.426102 82.087509,244.217377 
z"/>
<path fill="#EFF0F2" opacity="1.000000" stroke="none" 
	d="
M22.856085,158.115128 
	C-14.720566,100.780479 12.953417,27.163288 78.740448,8.629297 
	C133.936539,-6.920937 192.851120,31.371874 201.118454,88.171524 
	C208.763611,140.696747 174.924210,188.531235 122.809486,199.119675 
	C112.906151,201.131775 103.055077,201.304688 93.093094,200.170853 
	C63.454674,196.797516 40.415695,182.371506 22.856085,158.115128 
M33.044857,41.904499 
	C22.706757,53.796883 15.619303,67.327942 12.060875,83.498299 
	C9.417868,97.077507 9.052984,110.632683 12.613956,124.869965 
	C12.967901,126.008835 13.321845,127.147705 13.701143,128.089432 
	C13.701143,128.089432 13.611399,128.266785 13.697296,129.031235 
	C25.783031,174.932037 76.007950,205.776688 122.292160,195.517532 
	C158.478470,187.496643 182.742722,165.994751 194.631393,130.505753 
	C194.631393,130.505753 194.665756,130.300034 194.971191,129.805237 
	C195.084717,129.236496 195.198227,128.667740 195.821106,127.542679 
	C199.523331,113.030708 199.753769,98.461929 196.438477,83.037567 
	C196.052338,81.779205 195.666214,80.520836 195.319626,79.142540 
	C195.319626,79.142540 195.267212,79.027641 195.231598,78.225769 
	C195.108032,77.571732 195.048660,76.897675 194.851761,76.266518 
	C179.936172,28.457855 131.704559,0.625910 83.055771,11.851422 
	C63.397022,16.387598 46.689453,25.965641 33.690617,41.643005 
	C33.690617,41.643005 33.640800,41.595142 33.044857,41.904499 
z"/>
<path fill="#FAFAFB" opacity="1.000000" stroke="none" 
	d="
M173.896149,224.637970 
	C173.649475,228.160645 173.853165,231.427933 172.925430,234.334000 
	C171.486328,238.841766 166.981201,240.907806 162.529678,239.832474 
	C158.074142,238.756180 155.092834,233.967712 155.212433,228.079788 
	C155.335052,222.044586 158.169815,217.787613 162.565979,217.036987 
	C168.278259,216.061615 171.357910,218.024017 173.896149,224.637970 
z"/>
<path fill="#F6F7F8" opacity="1.000000" stroke="none" 
	d="
M64.050392,225.205887 
	C69.747032,227.578674 71.535378,234.288834 68.036690,238.731247 
	C65.645126,241.767883 61.829945,241.497040 59.788025,238.145660 
	C57.132206,233.786682 58.987820,227.611130 64.050392,225.205887 
z"/>
<path fill="#EAEBEE" opacity="1.000000" stroke="none" 
	d="
M108.565887,237.329590 
	C107.040833,238.921494 105.773201,240.790710 104.163826,241.156555 
	C103.000725,241.420975 101.383568,239.687958 99.968918,238.845749 
	C100.789482,237.608170 101.753845,235.254852 102.404083,235.338654 
	C104.495285,235.608185 108.256874,230.680511 108.565887,237.329590 
z"/>
<path fill="#02164F" opacity="1.000000" stroke="none" 
	d="
M200.026749,215.454361 
	C200.841049,214.390945 201.636017,213.772842 202.431000,213.154739 
	C202.950958,214.063873 203.909393,214.966782 203.922409,215.883118 
	C204.040207,224.183212 204.070587,232.487289 203.894974,240.785309 
	C203.873077,241.820511 202.504501,242.827225 201.759933,243.847153 
	C201.175644,242.833084 200.101471,241.827148 200.084488,240.803665 
	C199.946793,232.504196 200.007309,224.201447 200.026749,215.454361 
z"/>
<path fill="#061750" opacity="1.000000" stroke="none" 
	d="
M196.536331,83.836723 
	C199.753769,98.461929 199.523331,113.030708 195.253662,127.971794 
	C194.679398,129.033951 194.672577,129.666992 194.665756,130.300034 
	C194.665756,130.300034 194.631393,130.505753 194.194702,130.400665 
	C193.200668,130.191971 192.643295,130.088333 191.610565,130.000137 
	C151.080261,129.646988 111.025337,129.278397 70.665291,128.631165 
	C55.010654,128.269592 39.661156,128.180801 24.311531,128.134384 
	C23.889118,128.133102 23.465326,128.587067 22.619076,128.896530 
	C20.096760,129.307373 17.997543,129.650436 15.657280,129.811401 
	C14.814622,129.175125 14.213012,128.720947 13.611401,128.266785 
	C13.611399,128.266785 13.701143,128.089432 13.783998,127.780037 
	C13.407842,126.363007 12.948829,125.255371 12.489815,124.147736 
	C9.052984,110.632683 9.417868,97.077507 12.595881,83.062592 
	C14.164567,81.045799 15.198246,79.464729 16.682682,77.845398 
	C55.901653,77.671799 94.669998,77.565384 133.438019,77.389099 
	C153.229630,77.299095 173.020660,77.083771 193.096741,77.090012 
	C194.010101,77.845833 194.638657,78.436737 195.267212,79.027634 
	C195.267212,79.027641 195.319626,79.142540 195.225845,79.653778 
	C195.600143,81.388924 196.068237,82.612823 196.536331,83.836723 
M28.567226,89.414421 
	C26.628071,89.608398 24.662477,89.665787 22.757168,90.034615 
	C20.839207,90.405884 18.981180,91.086777 17.212093,92.369560 
	C18.172169,94.070686 19.132242,95.771805 19.628525,96.651154 
	C18.759064,99.439201 17.931606,102.092552 17.103642,105.498131 
	C18.179630,106.193398 19.255619,106.888657 20.349445,107.654373 
	C20.349445,107.654373 20.421942,107.649147 19.978462,108.224609 
	C19.358492,108.928802 18.738523,109.633003 17.753649,110.970833 
	C17.888535,112.763824 17.334230,115.206024 18.292540,116.223366 
	C20.781866,118.866035 23.936049,120.882439 27.715269,123.847229 
	C28.173029,121.446236 28.532782,119.559296 28.892534,117.672356 
	C31.201265,115.853172 34.399086,113.477333 34.543587,110.928398 
	C35.059608,101.826080 26.670513,104.978676 21.651968,103.492653 
	C21.760208,103.063141 21.868448,102.633621 21.976688,102.204109 
	C25.729712,101.666946 29.482735,101.129776 33.155369,100.604118 
	C34.873569,99.232407 31.676146,94.533058 36.993786,95.122375 
	C36.993786,101.470764 37.178879,107.439980 36.929157,113.390953 
	C36.760754,117.404091 38.309151,118.240410 42.431332,116.890770 
	C43.528458,115.925613 44.625580,114.960464 46.223652,114.529175 
	C55.500008,119.099243 58.990086,117.989983 63.826820,108.939346 
	C67.814171,110.467125 71.815620,112.000298 75.817070,113.533470 
	C75.630424,113.661835 75.443779,113.790199 75.257133,113.918564 
	C76.667336,115.208916 78.077538,116.499260 79.487732,117.789612 
	C80.320213,115.931198 81.480629,114.142281 81.893387,112.194908 
	C82.310043,110.229149 81.985184,108.106224 81.985184,104.815331 
	C86.150574,108.763809 89.248360,109.392326 92.407677,105.460823 
	C93.017357,104.702133 95.379646,105.351830 97.194214,105.351830 
	C97.194214,109.203453 97.194214,112.659416 97.194214,116.422531 
	C98.852455,116.422531 100.242355,116.422531 101.432724,116.422531 
	C102.617691,108.032982 103.779457,99.807686 104.553436,90.790436 
	C103.470673,90.527100 102.388199,90.036232 101.305107,90.034912 
	C87.431053,90.017929 73.556915,90.070961 59.164635,89.693069 
	C53.023685,81.757965 44.318039,81.881653 37.144409,89.992874 
	C35.751877,89.634132 34.359344,89.275391 33.268852,88.283401 
	C33.079182,86.899910 33.164967,85.369087 32.547390,84.214478 
	C32.337013,83.821159 29.585606,84.027267 29.343151,84.566040 
	C28.807970,85.755302 29.129297,87.330002 28.567226,89.414421 
M138.256683,88.031433 
	C140.385040,84.657547 138.104248,85.000954 135.863586,85.093719 
	C133.543991,85.189751 131.214432,85.026047 128.892410,85.090576 
	C127.991699,85.115601 127.099716,85.454628 126.608452,85.562096 
	C126.790512,87.724976 126.938080,89.478172 126.257698,91.203079 
	C124.504845,91.588371 121.313431,89.834755 121.920959,94.694153 
	C121.156174,94.593201 120.089363,94.780975 119.673752,94.346230 
	C115.911186,90.410309 111.108894,89.630219 107.915611,92.891487 
	C107.026398,93.799629 107.079361,95.630310 106.700073,97.037758 
	C107.978867,97.006004 109.260765,97.019119 110.535629,96.930740 
	C112.015434,96.828156 113.489059,96.636497 114.245316,96.558121 
	C116.783920,100.627670 102.836472,103.751549 116.302032,106.841980 
	C114.828796,108.715294 113.640701,111.301636 112.681587,111.219337 
	C110.746986,111.053337 108.936897,109.436249 106.277237,107.980972 
	C106.020363,109.169792 105.127281,110.745308 105.569199,111.708023 
	C107.325989,115.535210 110.757477,116.569801 114.696579,116.061150 
	C120.759895,115.278214 121.506844,110.824165 121.172455,105.992256 
	C122.684364,105.992256 123.843475,105.992256 125.040337,106.908524 
	C125.040337,110.029892 125.040337,113.151253 125.040337,116.439178 
	C126.979973,116.439178 128.506348,116.439178 130.335129,116.439178 
	C130.335129,110.316109 130.212646,104.524254 130.448181,98.746994 
	C130.490509,97.708893 132.008957,96.730972 132.845886,95.725266 
	C133.932236,102.512047 133.925934,108.314903 133.934616,114.117744 
	C133.939789,117.569443 135.398544,118.647400 139.307068,116.501114 
	C139.538483,111.283249 140.023193,106.060028 139.913071,100.849380 
	C139.838562,97.323402 140.711151,95.444550 145.134979,96.226494 
	C147.020782,98.724968 145.695511,100.337181 143.813889,102.110268 
	C142.997086,102.879951 142.417816,104.507477 142.590088,105.611259 
	C143.187698,109.440720 145.913132,111.572906 149.561783,111.323013 
	C153.809784,111.032082 155.854691,112.478203 155.599899,117.946472 
	C157.786682,116.613503 159.114838,115.803917 161.120300,114.742073 
	C161.915985,112.767357 162.711670,110.792648 163.903244,109.344215 
	C165.805817,111.809662 167.708405,114.275108 169.610977,116.740547 
	C170.370819,116.310799 171.130661,115.881050 171.890503,115.451302 
	C171.212616,113.720177 170.389862,112.029053 169.897736,110.246643 
	C169.408691,108.475266 168.732407,106.480087 169.149048,104.839828 
	C169.390152,103.890686 171.626770,103.448448 172.986877,102.767281 
	C172.986877,105.517891 172.986877,107.365173 172.986877,109.801796 
	C176.558411,108.174759 179.145203,106.996323 182.086761,105.656281 
	C182.258987,109.407043 182.206970,112.408119 182.643280,115.336433 
	C182.779755,116.252350 184.491821,117.783020 185.029251,117.611519 
	C186.122772,117.262550 187.561768,116.031258 187.693939,115.012474 
	C188.053909,112.237915 187.503143,109.344223 187.871796,106.572006 
	C188.452606,102.204292 185.203156,96.580887 191.701752,93.916199 
	C192.042206,93.776604 191.856445,92.353668 191.534836,90.742493 
	C189.773285,90.493675 188.012604,90.036240 186.250061,90.028999 
	C171.960617,89.970306 157.670456,90.043221 143.381546,89.937798 
	C141.543701,89.924248 139.711700,89.118668 138.256683,88.031433 
z"/>
<path fill="#14144F" opacity="1.000000" stroke="none" 
	d="
M192.085938,129.984695 
	C192.643295,130.088333 193.200668,130.191971 194.138702,130.488647 
	C182.742722,165.994751 158.478470,187.496643 122.292160,195.517532 
	C76.007950,205.776688 25.783031,174.932037 13.654348,128.649017 
	C14.213012,128.720947 14.814622,129.175125 15.806115,130.147552 
	C16.443377,131.282639 16.703558,131.894714 16.936302,132.517044 
	C30.480371,168.731720 56.541504,190.511948 94.732895,194.460098 
	C134.503265,198.571518 165.128082,181.586884 185.410416,146.958252 
	C188.446182,141.775162 189.900208,135.665649 192.085938,129.984695 
z"/>
<path fill="#171852" opacity="1.000000" stroke="none" 
	d="
M195.249405,78.626701 
	C194.638657,78.436737 194.010101,77.845833 192.984589,76.756325 
	C176.280396,28.688938 129.281357,2.257664 82.009552,14.067192 
	C63.542397,18.680691 48.261890,28.593534 34.828697,42.007458 
	C34.199543,41.747929 33.936348,41.673698 33.673157,41.599472 
	C46.689453,25.965641 63.397022,16.387598 83.055771,11.851422 
	C131.704559,0.625910 179.936172,28.457855 194.851761,76.266518 
	C195.048660,76.897675 195.108032,77.571732 195.249405,78.626701 
z"/>
<path fill="#1A1A53" opacity="1.000000" stroke="none" 
	d="
M16.231926,77.883652 
	C15.198246,79.464729 14.164567,81.045799 12.775279,82.722870 
	C15.619303,67.327942 22.706757,53.796883 33.509094,42.178089 
	C34.035004,42.750305 34.096672,43.048927 34.038818,43.652073 
	C31.828058,46.740009 29.237350,49.280323 27.741560,52.353550 
	C23.658079,60.743397 20.036482,69.358047 16.231926,77.883652 
z"/>
<path fill="#171852" opacity="1.000000" stroke="none" 
	d="
M196.487396,83.437149 
	C196.068237,82.612823 195.600143,81.388924 195.206070,79.713745 
	C195.666214,80.520836 196.052338,81.779205 196.487396,83.437149 
z"/>
<path fill="#14144F" opacity="1.000000" stroke="none" 
	d="
M12.551886,124.508850 
	C12.948829,125.255371 13.407842,126.363007 13.771322,127.878609 
	C13.321845,127.147705 12.967901,126.008835 12.551886,124.508850 
z"/>
<path fill="#14144F" opacity="1.000000" stroke="none" 
	d="
M194.818481,130.052643 
	C194.672577,129.666992 194.679398,129.033951 194.998962,128.249954 
	C195.198227,128.667740 195.084717,129.236496 194.818481,130.052643 
z"/>
<path fill="#171852" opacity="1.000000" stroke="none" 
	d="
M34.158340,43.347553 
	C34.096672,43.048927 34.035004,42.750305 33.807068,42.023411 
	C33.640800,41.595142 33.690617,41.643005 33.681885,41.621239 
	C33.936348,41.673698 34.199543,41.747929 34.728516,42.257545 
	C34.715645,42.911140 34.436993,43.129349 34.158340,43.347553 
z"/>
<path fill="#F17023" opacity="1.000000" stroke="none" 
	d="
M34.038818,43.652073 
	C34.436993,43.129349 34.715645,42.911140 35.094475,42.442841 
	C48.261890,28.593534 63.542397,18.680691 82.009552,14.067192 
	C129.281357,2.257664 176.280396,28.688938 192.699799,76.591400 
	C173.020660,77.083771 153.229630,77.299095 133.438019,77.389099 
	C94.669998,77.565384 55.901653,77.671799 16.682682,77.845398 
	C20.036482,69.358047 23.658079,60.743397 27.741560,52.353550 
	C29.237350,49.280323 31.828058,46.740009 34.038818,43.652073 
z"/>
<path fill="#F27023" opacity="1.000000" stroke="none" 
	d="
M191.610565,130.000137 
	C189.900208,135.665649 188.446182,141.775162 185.410416,146.958252 
	C165.128082,181.586884 134.503265,198.571518 94.732895,194.460098 
	C56.541504,190.511948 30.480371,168.731720 16.936302,132.517044 
	C16.703558,131.894714 16.443377,131.282639 16.047161,130.329651 
	C17.997543,129.650436 20.096760,129.307373 23.054115,128.962708 
	C39.598309,128.943985 55.284359,128.926895 70.970413,128.909805 
	C111.025337,129.278397 151.080261,129.646988 191.610565,130.000137 
z"/>
<path fill="#EEEFF2" opacity="1.000000" stroke="none" 
	d="
M37.917107,89.994949 
	C44.318039,81.881653 53.023685,81.757965 59.666660,90.286011 
	C62.312378,91.006958 64.455109,91.225250 66.599922,91.248154 
	C79.380089,91.384598 92.160744,91.475922 104.941231,91.582397 
	C103.779457,99.807686 102.617691,108.032982 101.432724,116.422531 
	C100.242355,116.422531 98.852455,116.422531 97.194214,116.422531 
	C97.194214,112.659416 97.194214,109.203453 97.194214,105.351830 
	C95.379646,105.351830 93.017357,104.702133 92.407677,105.460823 
	C89.248360,109.392326 86.150574,108.763809 81.985184,104.815331 
	C81.985184,108.106224 82.310043,110.229149 81.893387,112.194908 
	C81.480629,114.142281 80.320213,115.931198 79.487732,117.789612 
	C78.077538,116.499260 76.667336,115.208916 75.257133,113.918564 
	C75.443779,113.790199 75.630424,113.661835 75.817070,113.533470 
	C71.815620,112.000298 67.814171,110.467125 63.826820,108.939346 
	C58.990086,117.989983 55.500008,119.099243 46.067265,113.900986 
	C47.560249,112.824196 49.187027,112.149300 50.864464,111.981850 
	C53.181576,111.750549 56.101303,113.402565 57.288376,109.566734 
	C52.901535,107.802696 46.435795,109.337479 45.270767,103.347801 
	C44.046406,97.053062 50.570847,97.944237 53.938007,95.474091 
	C50.045387,95.474091 46.152763,95.474091 41.744904,95.474091 
	C41.744904,102.689659 41.744904,109.798500 41.744904,116.907341 
	C38.309151,118.240410 36.760754,117.404091 36.929157,113.390953 
	C37.178879,107.439980 36.993786,101.470764 36.993786,95.122375 
	C31.676146,94.533058 34.873569,99.232407 33.155369,100.604118 
	C29.482735,101.129776 25.729712,101.666946 21.976688,102.204109 
	C21.868448,102.633621 21.760208,103.063141 21.651968,103.492653 
	C26.670513,104.978676 35.059608,101.826080 34.543587,110.928398 
	C34.399086,113.477333 31.201265,115.853172 28.892534,117.672356 
	C28.532782,119.559296 28.173029,121.446236 27.715269,123.847229 
	C23.936049,120.882439 20.781866,118.866035 18.292540,116.223366 
	C17.334230,115.206024 17.888535,112.763824 18.312477,110.562286 
	C20.554483,110.619713 22.507839,110.693924 23.866274,111.630775 
	C26.982059,113.779564 28.199074,112.388374 29.473705,108.836052 
	C26.197981,108.406525 23.309961,108.027840 20.421942,107.649147 
	C20.421942,107.649147 20.349445,107.654373 20.125391,107.393356 
	C18.968941,106.336868 18.036545,105.541389 17.104149,104.745911 
	C17.931606,102.092552 18.759064,99.439201 19.628525,96.651154 
	C19.132242,95.771805 18.172169,94.070686 17.604559,91.864517 
	C22.408594,91.308273 26.826347,91.378815 31.229155,91.155151 
	C33.472328,91.041199 35.688648,90.398590 37.917107,89.994949 
M97.526825,100.056480 
	C97.655701,98.485153 97.784576,96.913826 97.939873,95.020424 
	C93.259621,95.020424 88.994453,95.013824 84.729355,95.026367 
	C83.942612,95.028679 83.156105,95.108429 82.360924,95.152916 
	C82.360924,97.940506 82.360924,100.423210 82.360924,102.108955 
	C87.416885,101.627388 92.169418,101.174721 97.526825,100.056480 
M61.590633,96.062317 
	C61.127563,97.877884 60.664490,99.693459 60.237000,101.369530 
	C58.102940,101.972832 56.036900,102.556908 53.970860,103.140984 
	C54.080650,103.504135 54.190437,103.867294 54.300224,104.230446 
	C57.307510,105.216805 60.314796,106.203163 62.458366,106.906235 
	C63.425934,105.092049 64.339691,103.563713 65.071701,101.952782 
	C65.764702,100.427681 66.267021,98.815926 66.853210,97.242287 
	C65.395317,96.827789 63.937424,96.413292 61.590633,96.062317 
M71.692650,107.266602 
	C78.934509,105.523003 75.377464,99.712112 76.648956,95.310379 
	C74.749428,95.310379 73.383522,95.310379 73.245682,95.310379 
	C71.807953,98.913383 70.534241,101.787590 69.580116,104.764229 
	C69.389000,105.360458 70.415154,106.346863 71.692650,107.266602 
M52.938438,91.203499 
	C52.959206,90.498726 53.291214,89.455208 52.951355,89.142929 
	C50.306644,86.712959 45.991798,87.502747 43.330070,90.787132 
	C43.589733,90.939781 43.847569,91.221466 44.109337,91.225166 
	C46.758945,91.262650 49.409195,91.254700 52.938438,91.203499 
z"/>
<path fill="#EEEEF1" opacity="1.000000" stroke="none" 
	d="
M160.442978,114.994324 
	C159.114838,115.803917 157.786682,116.613503 155.599899,117.946472 
	C155.854691,112.478203 153.809784,111.032082 149.561783,111.323013 
	C145.913132,111.572906 143.187698,109.440720 142.590088,105.611259 
	C142.417816,104.507477 142.997086,102.879951 143.813889,102.110268 
	C145.695511,100.337181 147.020782,98.724968 144.524261,95.735138 
	C142.341568,95.170990 140.769592,95.098198 138.549271,94.995377 
	C138.549271,102.646500 138.549271,109.772835 138.549271,116.899170 
	C135.398544,118.647400 133.939789,117.569443 133.934616,114.117744 
	C133.925934,108.314903 133.932236,102.512047 132.845886,95.725266 
	C132.008957,96.730972 130.490509,97.708893 130.448181,98.746994 
	C130.212646,104.524254 130.335129,110.316109 130.335129,116.439178 
	C128.506348,116.439178 126.979973,116.439178 125.040337,116.439178 
	C125.040337,113.151253 125.040337,110.029892 124.957458,106.087532 
	C122.588852,103.507179 120.740265,101.614235 122.729286,98.429962 
	C123.805687,98.690224 124.777985,98.925316 125.784775,99.168747 
	C126.357758,95.799820 125.574898,93.848534 122.101692,93.998276 
	C121.313431,89.834755 124.504845,91.588371 126.930855,91.468063 
	C129.718948,91.601074 131.833878,91.469109 134.416962,91.275024 
	C153.895279,91.318001 172.905472,91.423096 191.915665,91.528191 
	C191.856445,92.353668 192.042206,93.776604 191.701752,93.916199 
	C185.203156,96.580887 188.452606,102.204292 187.871796,106.572006 
	C187.503143,109.344223 188.053909,112.237915 187.693939,115.012474 
	C187.561768,116.031258 186.122772,117.262550 185.029251,117.611519 
	C184.491821,117.783020 182.779755,116.252350 182.643280,115.336433 
	C182.206970,112.408119 182.258987,109.407043 182.086761,105.656281 
	C179.145203,106.996323 176.558411,108.174759 172.986877,109.801796 
	C172.986877,107.365173 172.986877,105.517891 172.986877,102.767281 
	C171.626770,103.448448 169.390152,103.890686 169.149048,104.839828 
	C168.732407,106.480087 169.408691,108.475266 169.897736,110.246643 
	C170.389862,112.029053 171.212616,113.720177 171.890503,115.451302 
	C171.130661,115.881050 170.370819,116.310799 169.610977,116.740547 
	C167.708405,114.275108 165.805817,111.809662 163.634216,108.685501 
	C164.158646,105.281769 164.154984,101.786079 165.897964,99.935265 
	C170.743393,94.790092 176.282288,99.956955 181.768036,100.287132 
	C181.768036,98.312111 181.768036,96.780022 181.768036,95.146790 
	C174.437119,95.146790 167.365845,95.146790 160.442978,95.146790 
	C160.442978,101.879456 160.442978,108.436890 160.442978,114.994324 
M150.661514,107.117157 
	C155.555054,106.002769 156.497696,103.432518 154.999573,95.169365 
	C153.571655,95.169365 152.130554,95.169365 151.750839,95.169365 
	C150.537964,98.546432 149.374695,101.336258 148.604675,104.230698 
	C148.400497,104.998215 149.405548,106.087448 150.661514,107.117157 
z"/>
<path fill="#EBECEF" opacity="1.000000" stroke="none" 
	d="
M122.011322,94.346214 
	C125.574898,93.848534 126.357758,95.799820 125.784775,99.168747 
	C124.777985,98.925316 123.805687,98.690224 122.729286,98.429962 
	C120.740265,101.614235 122.588852,103.507179 124.938583,105.629395 
	C123.843475,105.992256 122.684364,105.992256 121.172455,105.992256 
	C121.506844,110.824165 120.759895,115.278214 114.696579,116.061150 
	C110.757477,116.569801 107.325989,115.535210 105.569199,111.708023 
	C105.127281,110.745308 106.020363,109.169792 106.277237,107.980972 
	C108.936897,109.436249 110.746986,111.053337 112.681587,111.219337 
	C113.640701,111.301636 114.828796,108.715294 116.302032,106.841980 
	C102.836472,103.751549 116.783920,100.627670 114.245316,96.558121 
	C113.489059,96.636497 112.015434,96.828156 110.535629,96.930740 
	C109.260765,97.019119 107.978867,97.006004 106.700073,97.037766 
	C107.079361,95.630310 107.026398,93.799629 107.915611,92.891487 
	C111.108894,89.630219 115.911186,90.410309 119.673752,94.346230 
	C120.089363,94.780975 121.156174,94.593201 122.011322,94.346214 
z"/>
<path fill="#050C4B" opacity="1.000000" stroke="none" 
	d="
M42.088120,116.899055 
	C41.744904,109.798500 41.744904,102.689659 41.744904,95.474091 
	C46.152763,95.474091 50.045387,95.474091 53.938007,95.474091 
	C50.570847,97.944237 44.046406,97.053062 45.270767,103.347801 
	C46.435795,109.337479 52.901535,107.802696 57.288376,109.566734 
	C56.101303,113.402565 53.181576,111.750549 50.864464,111.981850 
	C49.187027,112.149300 47.560249,112.824196 45.816792,113.634048 
	C44.625580,114.960464 43.528458,115.925613 42.088120,116.899055 
z"/>
<path fill="#040B4A" opacity="1.000000" stroke="none" 
	d="
M160.781647,114.868195 
	C160.442978,108.436890 160.442978,101.879456 160.442978,95.146790 
	C167.365845,95.146790 174.437119,95.146790 181.768036,95.146790 
	C181.768036,96.780022 181.768036,98.312111 181.768036,100.287132 
	C176.282288,99.956955 170.743393,94.790092 165.897964,99.935265 
	C164.154984,101.786079 164.158646,105.281769 163.436279,108.422363 
	C162.711670,110.792648 161.915985,112.767357 160.781647,114.868195 
z"/>
<path fill="#00004F" opacity="1.000000" stroke="none" 
	d="
M70.665291,128.631165 
	C55.284359,128.926895 39.598309,128.943985 23.477215,128.894897 
	C23.465326,128.587067 23.889118,128.133102 24.311531,128.134384 
	C39.661156,128.180801 55.010654,128.269592 70.665291,128.631165 
z"/>
<path fill="#DADCE2" opacity="1.000000" stroke="none" 
	d="
M133.948822,91.337143 
	C131.833878,91.469109 129.718948,91.601074 127.344833,91.482208 
	C126.938080,89.478172 126.790512,87.724976 126.608452,85.562096 
	C127.099716,85.454628 127.991699,85.115601 128.892410,85.090576 
	C131.214432,85.026047 133.543991,85.189751 135.863586,85.093719 
	C138.104248,85.000954 140.385040,84.657547 137.703278,88.488007 
	C136.082840,89.742096 135.015823,90.539612 133.948822,91.337143 
z"/>
<path fill="#050546" opacity="1.000000" stroke="none" 
	d="
M134.416962,91.275024 
	C135.015823,90.539612 136.082840,89.742096 137.513428,88.812286 
	C139.711700,89.118668 141.543701,89.924248 143.381546,89.937798 
	C157.670456,90.043221 171.960617,89.970306 186.250061,90.028999 
	C188.012604,90.036240 189.773285,90.493675 191.725250,91.135345 
	C172.905472,91.423096 153.895279,91.318001 134.416962,91.275024 
z"/>
<path fill="#000045" opacity="1.000000" stroke="none" 
	d="
M104.747330,91.186417 
	C92.160744,91.475922 79.380089,91.384598 66.599922,91.248154 
	C64.455109,91.225250 62.312378,91.006958 59.925739,90.492599 
	C73.556915,90.070961 87.431053,90.017929 101.305107,90.034912 
	C102.388199,90.036232 103.470673,90.527100 104.747330,91.186417 
z"/>
<path fill="#131952" opacity="1.000000" stroke="none" 
	d="
M20.200203,107.936874 
	C23.309961,108.027840 26.197981,108.406525 29.473705,108.836052 
	C28.199074,112.388374 26.982059,113.779564 23.866274,111.630775 
	C22.507839,110.693924 20.554483,110.619713 18.494930,110.245468 
	C18.738523,109.633003 19.358492,108.928802 20.200203,107.936874 
z"/>
<path fill="#EEEEF1" opacity="1.000000" stroke="none" 
	d="
M29.101179,88.747452 
	C29.129297,87.330002 28.807970,85.755302 29.343151,84.566040 
	C29.585606,84.027267 32.337013,83.821159 32.547390,84.214478 
	C33.164967,85.369087 33.079182,86.899910 32.728260,88.660187 
	C31.158838,88.940475 30.130009,88.843964 29.101179,88.747452 
z"/>
<path fill="#00003F" opacity="1.000000" stroke="none" 
	d="
M138.928162,116.700142 
	C138.549271,109.772835 138.549271,102.646500 138.549271,94.995377 
	C140.769592,95.098198 142.341568,95.170990 144.217392,95.571365 
	C140.711151,95.444550 139.838562,97.323402 139.913071,100.849380 
	C140.023193,106.060028 139.538483,111.283249 138.928162,116.700142 
z"/>
<path fill="#090A49" opacity="1.000000" stroke="none" 
	d="
M28.834202,89.080933 
	C30.130009,88.843964 31.158838,88.940475 32.577240,88.976814 
	C34.359344,89.275391 35.751877,89.634132 37.530758,89.993912 
	C35.688648,90.398590 33.472328,91.041199 31.229155,91.155151 
	C26.826347,91.378815 22.408594,91.308273 17.546959,91.495728 
	C18.981180,91.086777 20.839207,90.405884 22.757168,90.034615 
	C24.662477,89.665787 26.628071,89.608398 28.834202,89.080933 
z"/>
<path fill="#131952" opacity="1.000000" stroke="none" 
	d="
M17.103895,105.122025 
	C18.036545,105.541389 18.968941,106.336868 20.116472,107.358131 
	C19.255619,106.888657 18.179630,106.193398 17.103895,105.122025 
z"/>
<path fill="#0A1B53" opacity="1.000000" stroke="none" 
	d="
M97.224380,100.389267 
	C92.169418,101.174721 87.416885,101.627388 82.360924,102.108955 
	C82.360924,100.423210 82.360924,97.940506 82.360924,95.152916 
	C83.156105,95.108429 83.942612,95.028679 84.729355,95.026367 
	C88.994453,95.013824 93.259621,95.020424 97.939873,95.020424 
	C97.784576,96.913826 97.655701,98.485153 97.224380,100.389267 
z"/>
<path fill="#0E1C53" opacity="1.000000" stroke="none" 
	d="
M62.035080,96.030548 
	C63.937424,96.413292 65.395317,96.827789 66.853210,97.242287 
	C66.267021,98.815926 65.764702,100.427681 65.071701,101.952782 
	C64.339691,103.563713 63.425934,105.092049 62.458366,106.906235 
	C60.314796,106.203163 57.307510,105.216805 54.300224,104.230446 
	C54.190437,103.867294 54.080650,103.504135 53.970860,103.140984 
	C56.036900,102.556908 58.102940,101.972832 60.237000,101.369530 
	C60.664490,99.693459 61.127563,97.877884 62.035080,96.030548 
z"/>
<path fill="#050F4A" opacity="1.000000" stroke="none" 
	d="
M71.286346,107.209984 
	C70.415154,106.346863 69.389000,105.360458 69.580116,104.764229 
	C70.534241,101.787590 71.807953,98.913383 73.245682,95.310379 
	C73.383522,95.310379 74.749428,95.310379 76.648956,95.310379 
	C75.377464,99.712112 78.934509,105.523003 71.286346,107.209984 
z"/>
<path fill="#060B49" opacity="1.000000" stroke="none" 
	d="
M52.498852,91.231499 
	C49.409195,91.254700 46.758945,91.262650 44.109337,91.225166 
	C43.847569,91.221466 43.589733,90.939781 43.333267,90.781693 
	C45.991798,87.502747 50.306644,86.712959 52.951355,89.142929 
	C53.291214,89.455208 52.959206,90.498726 52.498852,91.231499 
z"/>
<path fill="#161F56" opacity="1.000000" stroke="none" 
	d="
M150.258438,107.073059 
	C149.405548,106.087448 148.400497,104.998215 148.604675,104.230698 
	C149.374695,101.336258 150.537964,98.546432 151.750839,95.169365 
	C152.130554,95.169365 153.571655,95.169365 154.999573,95.169365 
	C156.497696,103.432518 155.555054,106.002769 150.258438,107.073059 
z"/>
</svg>