<svg version="1.1" id="Layer_1" xmlns="http://www.w3.org/2000/svg" xmlns:xlink="http://www.w3.org/1999/xlink" x="0px" y="0px"
	 width="100%" viewBox="0 0 1200 1198" enable-background="new 0 0 1200 1198" xml:space="preserve">
<path fill="#5C822D" opacity="1.000000" stroke="none" 
	d="
M1201.000000,427.000000 
	C1201.000000,684.666687 1201.000000,941.833313 1201.000000,1199.000000 
	C801.000000,1199.000000 401.000000,1199.000000 1.000000,1199.000000 
	C1.000000,799.666687 1.000000,400.333344 1.000000,1.000000 
	C401.000000,1.000000 801.000000,1.000000 1201.000000,1.000000 
	C1201.000000,142.833328 1201.000000,284.666656 1201.000000,427.000000 
M858.986816,497.550537 
	C856.485779,483.173584 855.220398,468.448578 851.284424,454.475830 
	C824.480957,359.323639 763.211426,297.615234 668.586670,269.547211 
	C652.160706,264.674866 634.739807,263.094543 617.730225,260.286011 
	C612.011047,259.341675 611.134644,260.476654 610.990234,266.275360 
	C610.670898,279.101044 610.118591,291.926117 610.079712,304.752747 
	C609.671326,439.575775 609.351257,574.399048 608.957397,709.222107 
	C608.948975,712.101990 608.354858,714.980225 608.049133,717.723145 
	C602.234070,717.723145 597.126099,717.723145 591.507629,717.723145 
	C590.709717,565.079773 589.913147,412.704987 589.115295,260.071320 
	C585.983887,260.071320 583.629395,259.786865 581.365906,260.120422 
	C571.358826,261.595123 561.294189,262.844574 551.400940,264.900146 
	C479.305420,279.879761 422.134644,317.405731 381.503387,379.043762 
	C356.389099,417.142365 342.933472,459.385956 339.903137,504.910583 
	C338.402863,527.449341 340.210052,549.856628 344.304260,571.981262 
	C346.560486,584.173462 350.423096,596.082336 353.837036,608.040344 
	C355.459076,613.721802 359.092712,616.367554 365.615875,616.297241 
	C422.765503,615.681641 479.918488,615.360474 537.071106,615.072449 
	C540.772339,615.053772 542.242554,613.121399 542.830322,610.161499 
	C544.025513,604.142395 545.117126,598.093140 545.964722,592.016296 
	C548.810059,571.617188 551.496155,551.195923 554.305237,530.791687 
	C557.838806,505.124725 561.381165,479.458710 565.032166,453.808289 
	C566.210144,445.532562 567.743164,437.307373 569.113770,429.059052 
	C569.535706,429.070862 569.957581,429.082672 570.379517,429.094482 
	C570.583496,430.272247 570.960449,431.449097 570.966675,432.627869 
	C571.308350,497.451660 571.636353,562.275574 571.905334,627.099670 
	C571.931824,633.473694 571.424255,633.878174 565.060669,633.978210 
	C549.233765,634.227051 533.406189,634.521545 517.578003,634.588501 
	C470.916992,634.785889 424.255524,634.882141 377.594208,635.016541 
	C375.155670,635.023560 372.717072,635.017456 370.278503,635.017456 
	C369.924774,635.464661 369.571075,635.911804 369.217377,636.359009 
	C371.638062,639.940369 374.220551,643.425049 376.434174,647.130188 
	C378.666107,650.865967 381.675140,651.808044 385.946655,651.800842 
	C423.608978,651.737244 461.271729,651.914612 498.934235,652.059875 
	C501.521606,652.069824 504.107727,652.394775 508.145355,652.673340 
	C504.400024,656.048401 501.808716,658.570129 499.026978,660.860596 
	C477.972809,678.196594 460.598328,698.606445 447.461670,722.544556 
	C441.660126,733.116333 442.221619,734.649475 453.094330,739.752502 
	C458.637543,742.354187 459.754517,741.865845 462.990601,736.461914 
	C467.937714,728.200806 472.454834,719.584229 478.243134,711.943237 
	C495.937653,688.585327 516.875549,668.871216 544.044983,656.704956 
	C552.845398,652.764099 562.037842,651.341553 572.061707,652.396790 
	C572.061707,660.253967 572.292908,667.887634 571.873779,675.485474 
	C571.786072,677.075500 569.583313,679.169250 567.866821,679.932556 
	C562.758057,682.204407 557.089722,683.342957 552.207825,685.976807 
	C536.811035,694.283813 523.755005,705.663696 512.141663,718.640381 
	C503.661438,728.116089 496.978790,738.802612 492.680084,750.857727 
	C491.494843,754.181702 491.353546,757.376282 494.358093,759.988037 
	C501.197876,765.933533 508.554535,764.497620 512.127258,756.291077 
	C517.303589,744.401062 524.418030,733.853821 533.493896,724.626953 
	C543.150452,714.809753 553.849487,706.545410 567.041748,701.877808 
	C570.885193,700.517944 572.417358,701.790771 572.387024,705.510803 
	C572.355835,709.338440 572.154724,713.166748 571.944031,716.990173 
	C571.658264,722.175354 569.838257,726.383301 565.538208,729.831604 
	C552.409241,740.359863 544.256653,753.765930 542.680481,770.881348 
	C542.073914,777.468262 542.049866,777.962341 548.408203,777.969971 
	C580.723816,778.008667 613.040161,778.076172 645.355042,777.905457 
	C659.228577,777.832153 660.730408,775.400513 656.299927,762.056519 
	C651.827393,748.585754 643.739258,737.627563 633.075928,728.412354 
	C631.498474,727.049133 629.376892,725.346863 629.136536,723.579834 
	C628.286499,717.331421 628.047485,710.990906 627.776489,704.676758 
	C627.650574,701.743774 628.935608,700.204285 632.138000,701.590454 
	C635.330200,702.972168 638.707764,703.999939 641.740662,705.663208 
	C662.788086,717.205688 677.469543,734.613037 687.693970,756.050232 
	C692.051270,765.186096 692.030273,765.196167 702.000305,762.211365 
	C708.440063,760.283569 709.769409,757.879639 707.249817,751.513855 
	C698.867798,730.336670 686.080383,712.441406 667.650574,698.762390 
	C656.612305,690.569519 644.390320,684.719177 631.644226,679.770996 
	C629.938599,679.108948 627.618530,677.258118 627.489441,675.790039 
	C626.950745,669.666626 626.993530,663.476257 627.117615,657.316284 
	C627.192993,653.575256 629.255798,651.917053 633.245605,651.790039 
	C642.123108,651.507446 650.450378,653.462097 658.257141,657.404175 
	C691.539246,674.210205 716.288940,699.816406 734.490051,732.035461 
	C740.213928,742.167786 738.249329,743.567566 752.369812,737.071350 
	C755.921631,735.437256 756.986938,732.906738 755.268372,729.393860 
	C752.718933,724.182373 750.341431,718.860413 747.413452,713.865234 
	C734.434448,691.722473 716.933350,673.601074 696.968506,657.702148 
	C695.416626,656.466309 694.157837,654.862366 692.762878,653.429504 
	C692.949768,652.954163 693.136658,652.478882 693.323547,652.003601 
	C696.935669,652.003601 700.547852,652.011963 704.159973,652.002197 
	C740.989380,651.902588 777.818787,651.814880 814.647949,651.656311 
	C816.564453,651.648071 819.234802,651.710693 820.258545,650.573730 
	C824.056519,646.355713 827.311646,641.648987 830.770691,637.125854 
	C830.445923,636.645386 830.121216,636.164917 829.796448,635.684387 
	C825.516235,635.471680 821.237061,635.097900 816.955627,635.070496 
	C756.632751,634.684753 696.309570,634.347290 635.986450,633.994690 
	C628.051880,633.948303 628.013062,633.939514 628.010254,625.925537 
	C627.996521,586.762085 627.790405,547.597046 628.080994,508.435730 
	C628.277283,481.992279 629.184692,455.554077 629.773987,429.113525 
	C631.543701,433.217896 632.368164,437.386383 632.979736,441.585876 
	C635.923340,461.797668 638.880920,482.007874 641.696289,502.237762 
	C644.558105,522.801270 647.143250,543.403687 650.070557,563.957581 
	C652.200012,578.909851 654.677856,593.812683 657.024109,608.733826 
	C657.741211,613.294128 659.963989,615.271667 665.069763,615.289429 
	C702.561279,615.419739 740.051025,615.973633 777.542542,616.217102 
	C796.029419,616.337158 814.522461,616.260315 833.004639,615.879333 
	C838.126404,615.773804 844.502686,615.868347 846.047852,609.163330 
	C850.286560,590.769714 854.669678,572.372375 857.835388,553.778931 
	C860.946472,535.506836 860.702087,516.957336 858.986816,497.550537 
M508.991272,938.470398 
	C509.110565,917.973999 509.117432,897.475891 509.412628,876.982056 
	C509.510559,870.184998 510.104706,863.368774 510.927887,856.616882 
	C511.584290,851.233337 516.170166,853.346130 519.316406,852.980042 
	C522.610291,852.596741 523.756348,854.792969 523.962097,857.546021 
	C524.371460,863.024414 524.849670,868.513794 524.883911,874.001160 
	C525.012939,894.664917 524.931824,915.329956 525.043945,935.993835 
	C525.061829,939.296936 525.512390,942.621643 526.041138,945.891418 
	C526.586548,949.263733 528.580933,951.151978 532.235168,951.047058 
	C535.731628,950.946777 539.233398,951.027710 542.732788,951.033142 
	C549.602417,951.043823 551.558228,949.275024 551.963501,942.293945 
	C552.310974,936.308228 552.613770,930.312073 552.663147,924.318298 
	C552.837280,903.155151 552.877563,881.990845 553.004211,860.827271 
	C553.048401,853.441345 553.395264,852.922974 560.496643,853.023071 
	C572.977600,853.198853 585.461060,853.520081 597.927612,854.114136 
	C600.400513,854.231934 603.234985,855.315308 605.160095,856.871948 
	C612.843628,863.085083 613.027161,878.938477 605.851562,885.758911 
	C602.196655,889.232788 597.927124,888.946106 593.684875,887.728271 
	C589.700317,886.584595 588.803772,883.151367 588.657715,879.432495 
	C588.566223,877.103638 588.235229,874.778503 588.245300,872.452637 
	C588.261047,868.822449 586.165222,867.245422 582.962402,867.177368 
	C575.840576,867.025879 568.713379,867.130066 561.240723,867.130066 
	C561.240723,887.058777 561.159363,905.858521 561.274719,924.657043 
	C561.333252,934.196777 566.723267,941.166199 573.201355,947.394470 
	C574.250122,948.402771 576.063599,949.075378 577.541077,949.107727 
	C594.031250,949.469055 610.524536,949.830383 627.017700,949.866943 
	C638.358154,949.892090 639.959473,947.817871 638.924866,936.480347 
	C638.550110,932.373901 636.668396,930.040710 632.342041,929.943848 
	C621.689453,929.705505 611.039490,929.332214 600.386047,929.153748 
	C592.768188,929.026123 588.928650,926.036072 587.309570,918.594910 
	C585.943054,912.314453 588.467285,909.842896 594.852966,910.548889 
	C604.371338,911.601379 613.592285,911.463501 622.139648,905.670593 
	C635.683228,896.491638 642.744629,874.147522 637.494812,859.402466 
	C636.673462,857.095581 635.911377,854.604431 639.106506,853.028503 
	C643.800171,850.713379 646.269836,843.072754 644.939697,835.593933 
	C643.900879,829.753174 638.910950,832.239136 635.633911,831.380249 
	C633.279724,830.763245 630.665222,831.084351 628.166748,831.081421 
	C600.003845,831.048279 571.839050,830.828796 543.678589,831.080933 
	C522.691711,831.268860 501.702240,831.869446 480.730408,832.701477 
	C472.167725,833.041260 469.349640,837.597168 472.571777,845.805725 
	C473.864563,849.099243 477.254089,851.569702 479.689301,854.414795 
	C480.127808,854.141113 480.566345,853.867493 481.004852,853.593811 
	C481.004852,870.239075 481.128113,886.886597 480.828400,903.526550 
	C480.795746,905.338196 478.623016,908.173584 476.913696,908.654968 
	C474.025970,909.468262 471.886963,907.700867 470.839905,904.333923 
	C469.425507,899.785706 467.796082,895.095215 465.172333,891.197144 
	C462.992798,887.959045 462.685516,885.373657 464.140686,882.064880 
	C467.456818,874.524475 468.305878,866.532043 466.589539,858.616089 
	C462.514435,839.821228 444.938843,826.985107 424.914062,829.215454 
	C400.011993,831.989075 390.612488,844.824524 387.466553,864.462585 
	C387.001007,867.368774 387.989166,869.850037 391.502258,870.141541 
	C395.473358,870.470886 399.453430,870.890625 403.430817,870.903503 
	C411.149567,870.928589 412.108734,870.139038 414.611847,862.982788 
	C416.898529,856.445312 421.493835,852.859070 427.330688,853.056458 
	C433.825348,853.276123 439.471863,857.656860 441.329926,863.917664 
	C443.511932,871.269836 440.549408,877.227417 433.663879,879.218201 
	C430.409729,880.159119 425.589630,880.005310 424.239655,882.114441 
	C422.561005,884.737183 423.734009,889.187134 423.682678,892.848022 
	C423.668671,893.847717 423.798553,894.864502 423.660309,895.844849 
	C423.050201,900.170837 424.473236,901.888672 429.228271,902.203979 
	C434.950623,902.583618 441.013580,903.695740 443.068359,910.658264 
	C445.610809,919.273376 440.605499,928.149170 432.165985,930.000977 
	C421.725189,932.291931 414.892670,927.606750 413.777069,917.097656 
	C413.337158,912.953430 411.552246,910.534241 407.318878,910.475037 
	C400.407440,910.378357 393.493683,910.448975 386.956268,910.448975 
	C381.103058,930.333618 405.615662,956.955017 431.078766,954.591492 
	C446.775787,953.134338 458.415955,945.066101 467.062897,932.245544 
	C471.047913,926.337219 473.362793,925.464783 480.775543,927.352966 
	C481.171967,933.138184 481.660431,938.934937 481.931854,944.741882 
	C482.087097,948.064209 483.583832,950.505310 486.808258,950.644592 
	C494.068695,950.958130 501.351898,950.742981 508.989044,950.742981 
	C508.989044,946.417908 508.989044,942.938049 508.991272,938.470398 
M405.996735,1061.500977 
	C406.283752,1091.093262 406.570770,1120.685425 406.856873,1150.181152 
	C418.983978,1150.181152 430.335815,1150.181152 441.085297,1150.181152 
	C441.085297,1106.527710 441.188599,1063.389282 441.030121,1020.251770 
	C440.973511,1004.836365 433.322327,994.061401 418.579041,989.724609 
	C395.604614,982.966553 373.527710,983.842102 354.490570,1000.814331 
	C351.486420,1003.492676 349.404083,1003.423157 346.753906,1000.112976 
	C344.418762,997.196228 341.575012,994.021240 338.261353,992.693176 
	C331.563660,990.008911 324.506378,987.507812 317.397552,986.708679 
	C301.562775,984.928772 286.167480,986.576599 272.974701,997.005127 
	C271.773560,997.954468 270.262756,998.512207 268.332458,999.556519 
	C267.636871,995.512695 267.085052,992.304688 266.548279,989.184021 
	C255.329025,989.184021 244.290833,989.184021 233.022522,989.184021 
	C233.022522,990.937561 233.023590,992.255859 233.022385,993.574158 
	C232.982773,1037.072632 232.937134,1080.571045 232.908737,1124.069458 
	C232.903946,1131.402466 233.027039,1138.735718 232.980576,1146.068237 
	C232.963593,1148.746582 233.622879,1150.876587 236.655319,1150.904907 
	C246.942429,1151.000977 257.230988,1150.941528 268.004852,1150.941528 
	C268.004852,1148.538086 267.991180,1146.912231 268.006866,1145.286621 
	C268.362579,1108.457397 268.713776,1071.628174 269.085022,1034.799072 
	C269.184540,1024.926025 276.863403,1015.484558 286.564117,1014.084106 
	C292.621979,1013.209473 298.820374,1013.135559 304.960632,1013.048645 
	C312.593384,1012.940491 315.993835,1015.737854 316.921234,1023.437439 
	C317.874786,1031.353882 318.571869,1039.347168 318.654968,1047.314453 
	C318.945282,1075.144409 318.885803,1102.977661 319.049652,1130.809082 
	C319.080017,1135.964722 319.294159,1141.147827 319.940765,1146.252686 
	C320.117920,1147.651733 322.107147,1149.840332 323.373779,1149.919312 
	C332.479797,1150.487061 341.612885,1150.708862 350.739746,1150.800659 
	C353.434662,1150.827881 354.814850,1149.044800 354.804871,1146.188721 
	C354.786865,1141.023804 354.940399,1135.858521 354.997131,1130.693115 
	C355.337463,1099.697266 355.608856,1068.700684 356.034363,1037.706055 
	C356.224518,1023.854675 360.848785,1017.279236 373.259430,1014.538330 
	C379.495911,1013.161011 386.120880,1012.969360 392.542328,1013.163086 
	C399.054199,1013.359497 403.440002,1017.561707 403.989075,1024.125244 
	C405.001038,1036.222046 405.362030,1048.373413 405.996735,1061.500977 
M1006.997375,897.578369 
	C1009.150635,891.618713 1013.960388,888.353027 1019.411255,889.149597 
	C1025.467529,890.034668 1028.713989,894.027405 1028.790894,900.877197 
	C1028.925903,912.872314 1028.847168,924.871704 1029.131226,936.862793 
	C1029.417480,948.940186 1030.604858,949.963013 1042.401367,949.982910 
	C1043.900879,949.985413 1045.400635,950.012512 1046.899902,949.993713 
	C1052.439331,949.924438 1054.417847,948.264893 1054.937622,942.711121 
	C1055.433960,937.409546 1055.859497,932.080505 1055.898071,926.760498 
	C1056.064819,903.768677 1056.078613,880.775757 1056.146973,857.783203 
	C1056.152222,855.990784 1056.147705,854.198425 1056.147705,852.526367 
	C1067.458374,850.362122 1069.303223,847.641174 1067.527222,836.513794 
	C1067.422241,835.856140 1067.165405,835.207336 1067.158081,834.552429 
	C1067.126221,831.736145 1065.626587,830.984985 1062.985107,830.943176 
	C1055.991577,830.832520 1049.002808,830.238037 1042.011230,830.224121 
	C984.698364,830.109924 927.385193,830.013428 870.072266,830.079346 
	C854.750122,830.096985 839.429626,830.803162 824.106079,830.947632 
	C820.241028,830.984009 818.585449,832.283569 818.753479,836.141357 
	C818.912659,839.795837 819.123291,843.482971 818.815796,847.113770 
	C818.451904,851.411865 820.047729,853.321045 824.356140,853.030518 
	C825.124695,852.978699 825.916382,853.268982 826.944031,853.443115 
	C827.055237,855.315063 827.195190,856.944458 827.242310,858.576477 
	C827.843384,879.387390 827.942688,900.227478 829.166870,921.001343 
	C830.275452,939.814331 834.607117,947.632874 852.088379,948.772888 
	C870.839050,949.995667 889.697998,949.842957 908.507812,949.773682 
	C921.032593,949.727539 922.798096,947.234497 921.693176,934.832581 
	C921.364807,931.147156 919.916565,928.874573 916.017273,928.623535 
	C913.364441,928.452820 910.715393,928.089294 908.062927,928.072571 
	C896.233826,927.997986 884.403931,928.065918 872.574829,927.989075 
	C860.143799,927.908386 856.062622,923.930054 856.011902,911.522522 
	C855.936340,893.029236 856.044922,874.535095 856.108337,856.041382 
	C856.112671,854.786194 856.395630,853.531860 856.582642,852.001648 
	C862.464600,852.001648 867.954956,851.953918 873.444153,852.011597 
	C884.647461,852.129395 890.295288,856.712036 892.757568,867.591675 
	C895.033386,877.647095 887.431335,887.513855 877.377075,888.228210 
	C875.259277,888.378723 872.917419,890.443909 871.392700,892.234558 
	C870.217773,893.614441 870.122253,895.936340 869.613892,897.857056 
	C865.903625,911.876160 867.185486,913.620789 881.800171,912.911316 
	C906.547607,911.709839 922.726196,893.709900 919.010193,870.112000 
	C918.117737,864.444519 916.525208,858.887329 915.101685,852.604004 
	C953.005493,852.604004 990.514099,852.604004 1028.334717,852.604004 
	C1028.334717,857.622864 1028.334717,862.705994 1028.334717,868.875305 
	C1014.590759,860.882874 1002.332947,863.880249 990.095398,870.397888 
	C988.032532,871.496582 984.708008,870.545715 982.034790,870.116272 
	C975.367371,869.045288 968.732178,866.670166 962.096741,866.714417 
	C943.719666,866.836792 925.536133,889.809326 927.311584,910.340454 
	C930.078186,942.333679 961.791199,956.042786 987.906494,948.971069 
	C989.977295,948.410339 992.452881,945.305542 992.766479,943.102112 
	C993.510071,937.877014 992.999329,932.481567 993.124817,927.157959 
	C993.222961,922.995239 990.897644,922.461060 987.603088,923.219788 
	C984.538635,923.925659 981.508972,924.802917 978.423706,925.394287 
	C969.327637,927.137878 961.643921,924.185669 957.969116,917.657593 
	C953.730225,910.127441 954.756409,898.437927 960.195007,892.301086 
	C966.687927,884.974426 975.488159,886.414429 979.114868,895.501587 
	C980.197144,898.213440 980.789856,901.120789 981.587219,903.870911 
	C987.868408,903.870911 994.007874,903.995850 1000.138855,903.822205 
	C1003.602661,903.724182 1006.135132,902.012085 1006.997375,897.578369 
M353.850677,950.974060 
	C357.891998,950.327148 358.584320,947.070007 358.908569,943.930786 
	C359.455475,938.636047 359.851776,933.302612 359.889130,927.982422 
	C360.053040,904.657898 360.101959,881.332275 360.088257,858.007080 
	C360.086487,854.957764 360.399170,853.182739 364.212891,852.871948 
	C369.401947,852.449158 372.237366,846.585693 372.259613,839.237427 
	C372.278412,833.024902 367.952209,833.622925 364.087799,833.246765 
	C362.267273,833.069519 360.427643,833.046875 358.596008,833.031433 
	C316.951691,832.680359 275.307770,832.213135 233.662659,832.039978 
	C203.675644,831.915344 173.685989,832.072754 143.699539,832.335327 
	C131.820892,832.439270 131.292847,833.337280 131.987274,845.058350 
	C132.228882,849.136292 133.800247,852.233398 137.988998,853.181458 
	C141.409058,853.955627 142.063339,855.868958 142.130524,859.176880 
	C142.607437,882.650635 143.194565,906.124634 144.060959,929.586975 
	C144.454498,940.243896 153.610626,949.512878 164.400726,949.917236 
	C181.360474,950.552979 198.343750,950.574890 215.317734,950.808167 
	C221.111023,950.887756 226.906326,950.820801 232.853653,950.820801 
	C232.853653,943.436523 232.853653,936.885681 232.853653,929.936707 
	C230.720459,929.936707 228.913315,929.994080 227.110764,929.927612 
	C211.806229,929.363281 196.488693,929.009644 181.203964,928.104919 
	C172.647720,927.598450 170.149567,924.786621 170.059647,916.069824 
	C169.860474,896.761475 170.037888,877.449585 169.969040,858.139404 
	C169.957092,854.789062 171.437271,852.995911 174.655792,853.065125 
	C181.289505,853.207825 187.989624,853.089783 194.530853,854.012146 
	C203.295624,855.247925 208.098587,863.917419 207.046005,875.219971 
	C206.238220,883.893860 201.039154,888.291138 191.495483,888.024597 
	C188.752975,887.948059 187.265976,888.416748 186.619598,891.449097 
	C185.690369,895.808411 184.142120,900.035645 182.861053,904.320129 
	C180.996017,910.557556 182.901932,913.791138 189.496170,913.815735 
	C194.734512,913.835144 200.175735,913.203979 205.180252,911.704712 
	C218.202438,907.803589 229.419418,901.449097 233.439026,887.030273 
	C235.966614,877.963501 234.441650,869.302795 231.135162,860.741333 
	C228.971008,855.137756 229.598938,854.127136 235.532135,853.273804 
	C237.498993,852.990967 239.519394,853.014771 241.515503,853.011658 
	C254.844238,852.990967 268.173126,852.973145 281.501648,853.027344 
	C283.816101,853.036743 286.128357,853.402832 288.442993,853.587158 
	C293.598999,853.997620 293.901123,857.706421 293.659790,861.544739 
	C293.413300,865.465149 293.752045,869.838440 287.886597,870.273865 
	C282.096649,870.703735 276.183685,870.839355 270.582153,872.179932 
	C255.768143,875.725220 245.951462,885.086548 242.142014,899.866699 
	C238.340134,914.617493 240.000046,928.312805 252.407791,938.991028 
	C259.341431,944.958313 267.570984,947.890869 276.519745,948.613831 
	C297.855438,950.337524 316.288818,935.897095 317.057861,915.293884 
	C317.329407,908.018433 318.000671,900.757996 318.505280,893.255127 
	C323.622406,893.255127 328.523773,893.255127 334.509644,893.255127 
	C334.509644,912.372437 334.509644,931.258118 334.509644,950.997986 
	C341.376770,950.997986 347.170380,950.997986 353.850677,950.974060 
M654.547485,101.249985 
	C656.533142,87.043556 660.878052,83.155533 675.539551,83.001389 
	C688.535889,82.864761 701.556763,82.521683 714.527283,83.122932 
	C730.795593,83.877045 733.397339,87.059875 736.203308,99.886665 
	C736.380066,100.694405 736.499756,101.629166 736.986206,102.228767 
	C737.792908,103.223030 738.862671,104.725571 739.845276,104.743896 
	C749.798340,104.929459 759.756287,104.857124 769.587585,104.857124 
	C773.992432,82.578331 760.083313,56.220623 736.510620,51.480927 
	C729.902649,50.152283 723.235962,48.261715 716.579834,48.191849 
	C698.957336,48.006886 681.237427,47.684273 663.718811,49.242706 
	C638.346497,51.499794 625.302673,63.384750 622.159302,85.986221 
	C618.174805,114.635300 618.269165,143.436432 622.199524,172.081787 
	C624.389038,188.039963 631.827881,200.800095 648.603333,205.552368 
	C654.008789,207.083679 659.593323,208.370270 665.173218,208.830093 
	C686.947021,210.624435 708.766479,211.128357 730.455994,207.932755 
	C750.290344,205.010513 763.525330,197.283539 768.096130,174.255386 
	C769.161377,168.888763 770.265747,163.457352 770.518250,158.017029 
	C771.049866,146.562515 771.118958,135.082886 771.186401,123.612427 
	C771.209961,119.608269 769.139587,117.932686 764.808411,118.040848 
	C745.154175,118.531647 725.491882,118.696220 705.832947,119.007057 
	C704.895630,119.021881 703.962646,119.311531 703.238892,119.436668 
	C703.238892,130.656525 703.238892,141.573257 703.238892,153.540710 
	C713.980530,153.540710 724.375122,153.540710 734.609253,153.540710 
	C736.512939,168.080917 734.045837,172.921539 720.937866,173.982666 
	C704.081299,175.347260 687.011536,175.342697 670.111145,174.454239 
	C658.960571,173.868027 655.540283,170.133759 655.009277,159.025742 
	C654.104065,140.091171 654.497375,121.094528 654.547485,101.249985 
M614.456482,1150.696899 
	C617.887817,1150.696899 621.319153,1150.696899 624.940125,1150.696899 
	C624.940125,1137.293457 625.463379,1124.612915 624.786987,1111.996826 
	C624.160889,1100.318481 620.750061,1089.615601 608.436279,1084.572754 
	C607.832458,1084.325562 607.290283,1083.927734 606.179932,1083.290405 
	C608.217285,1081.592407 609.463501,1080.297485 610.939392,1079.366821 
	C618.536804,1074.576172 622.913940,1067.590576 625.211182,1059.073364 
	C629.239807,1044.137207 627.932983,1029.482178 623.114258,1014.970093 
	C618.801636,1001.981934 610.403564,993.504761 596.598450,991.257568 
	C590.297058,990.231873 583.922791,989.266357 577.558350,989.083557 
	C552.581909,988.366455 527.597473,987.892029 502.613129,987.520508 
	C497.185974,987.439758 491.746948,988.158020 486.170837,988.517456 
	C486.031403,990.862427 485.846771,992.510010 485.848053,994.157532 
	C485.887390,1044.982788 485.976562,1095.807983 485.931305,1146.633301 
	C485.928131,1150.180786 487.650482,1150.890137 490.482941,1150.882202 
	C498.981293,1150.858276 507.480469,1150.745483 515.977539,1150.836060 
	C519.054382,1150.868774 520.038818,1149.604980 519.942627,1146.651611 
	C519.796204,1142.158081 519.877747,1137.651245 520.020935,1133.155151 
	C520.317932,1123.830200 520.571594,1114.498779 521.183533,1105.192505 
	C521.332703,1102.924072 520.530518,1099.036865 524.533325,1099.084839 
	C541.830688,1099.291260 559.139954,1099.468384 576.411316,1100.328979 
	C582.050110,1100.609863 586.195923,1104.467529 587.105774,1110.548828 
	C587.890564,1115.793823 588.570190,1121.069214 588.952759,1126.356201 
	C589.526123,1134.279907 589.798828,1142.225464 590.226379,1150.696899 
	C598.207397,1150.696899 605.837463,1150.696899 614.456482,1150.696899 
M317.394684,210.798981 
	C326.190887,210.183884 335.014038,209.825546 343.778076,208.904297 
	C367.552673,206.405167 380.743958,193.692596 383.980286,169.971664 
	C387.757111,142.289246 387.760986,114.534256 383.856140,86.882225 
	C382.147339,74.780991 378.142548,63.052765 366.382172,57.114914 
	C358.833252,53.303421 350.294006,49.799397 342.033386,49.375160 
	C320.966766,48.293255 299.696838,47.665062 278.715393,49.384094 
	C256.306213,51.220108 242.552307,60.309364 237.840652,83.932327 
	C232.221619,112.104698 232.054718,140.615082 236.504395,168.853455 
	C240.369278,193.380554 251.270966,203.955811 275.683380,207.966599 
	C289.057007,210.163773 302.827911,209.942734 317.394684,210.798981 
M797.957397,852.364990 
	C801.726807,851.835388 805.496155,851.305725 809.964111,850.677917 
	C809.964111,845.285889 810.018982,839.988037 809.910645,834.693481 
	C809.892395,833.800842 809.399536,832.420593 808.736572,832.117676 
	C803.782654,829.853271 804.696045,825.446472 804.596313,821.405640 
	C804.205322,805.561768 798.054016,796.539246 783.096375,791.561829 
	C767.255127,786.290283 751.095520,786.086304 735.090088,790.981873 
	C721.708374,795.074890 713.695679,803.920227 712.593628,818.286926 
	C712.319336,821.862610 712.087585,825.441589 711.764771,830.037659 
	C699.170288,830.037659 687.020630,829.963074 674.872925,830.080200 
	C670.890259,830.118530 666.909912,830.624817 662.933228,830.972107 
	C659.734070,831.251465 656.699280,832.103638 656.961365,836.103088 
	C657.333496,841.780457 653.921875,849.695190 660.779541,852.228577 
	C666.687012,854.410950 666.904907,857.624268 667.007263,862.120728 
	C667.352295,877.276184 667.794067,892.430847 667.954712,907.588440 
	C668.068237,918.305664 673.141785,925.661560 682.705994,929.797485 
	C695.370117,935.273804 708.156982,935.295227 720.840820,929.533386 
	C722.843933,928.623413 724.967834,927.979553 727.744568,926.949768 
	C728.187012,933.260132 728.701599,938.681274 728.896362,944.113831 
	C729.009399,947.266846 729.914062,949.157166 733.431213,949.242981 
	C736.914001,949.327942 740.387512,949.915039 743.868103,949.945862 
	C754.430725,950.039307 754.809753,949.724182 754.885254,939.144531 
	C755.013672,921.150879 754.875000,903.155212 755.044312,885.162170 
	C755.128845,876.180176 755.634644,867.201843 755.973450,858.222717 
	C756.107178,854.678772 757.594727,852.868286 761.540222,852.871277 
	C765.516663,852.874268 766.871460,854.749084 767.059265,858.273743 
	C767.342529,863.589233 767.920532,868.900208 767.954468,874.215759 
	C768.090637,895.541748 768.036438,916.868835 768.133179,938.195190 
	C768.146729,941.178406 768.256897,944.252197 769.007385,947.103821 
	C769.398987,948.591919 771.243958,950.733887 772.499939,950.781006 
	C778.291809,950.998108 784.109375,950.628540 789.913757,950.377136 
	C793.860657,950.206177 795.060181,948.049194 795.081970,944.141113 
	C795.242065,915.488770 795.593750,886.837280 795.970276,858.186707 
	C795.994263,856.362915 796.732239,854.548645 797.957397,852.364990 
M931.295288,105.238686 
	C932.002441,105.817245 932.704346,106.892357 933.417419,106.899780 
	C943.854858,107.008301 954.293823,106.974388 965.385803,106.974388 
	C964.911560,101.450356 964.586609,96.511475 964.048767,91.595886 
	C961.211304,65.663681 945.790649,51.559052 919.934387,49.220116 
	C903.243164,47.710243 886.325500,47.647156 869.566711,48.335297 
	C859.418884,48.751980 849.171082,51.110172 839.349792,53.926777 
	C828.558838,57.021450 821.398987,64.958458 819.060852,75.960442 
	C816.867554,86.280777 815.284973,96.838310 814.666992,107.363876 
	C813.339294,129.978607 813.273315,152.641708 817.083435,175.085541 
	C820.220581,193.565338 829.695496,203.308426 847.896912,207.000504 
	C853.569702,208.151199 859.379028,208.844299 865.159790,209.209000 
	C886.777832,210.572922 908.393433,211.061539 929.825928,206.983978 
	C944.560120,204.180771 956.000793,196.920502 960.326721,181.835938 
	C962.685730,173.609634 963.657166,164.975937 965.092407,156.498550 
	C965.728455,152.741760 963.900635,150.915131 960.031860,150.966232 
	C953.703186,151.049805 947.372681,150.988358 941.043091,151.009781 
	C931.909973,151.040695 931.909912,151.048950 929.857056,159.943710 
	C927.329163,170.896408 922.962158,174.762421 911.467651,174.966797 
	C896.492126,175.233078 881.502869,175.236191 866.528931,174.914185 
	C854.665771,174.659088 849.302612,169.462524 849.098206,157.744080 
	C848.772888,139.095901 848.705994,120.431007 849.119202,101.786247 
	C849.415161,88.430779 855.091919,83.219269 868.413452,83.025955 
	C881.068420,82.842331 893.729126,82.876472 906.385437,83.003746 
	C924.594177,83.186859 928.326294,86.494583 931.295288,105.238686 
M763.010437,989.406189 
	C761.688110,989.271851 760.367126,989.036316 759.043213,989.018188 
	C733.242432,988.664246 707.441895,988.285583 681.640137,988.023560 
	C669.240417,987.897644 669.103210,988.001648 669.087036,1000.424744 
	C669.026917,1046.551636 669.046814,1092.678589 669.104004,1138.805542 
	C669.107910,1141.948364 669.452942,1145.134277 670.082764,1148.209351 
	C670.303955,1149.289429 671.841980,1150.888306 672.804382,1150.906738 
	C683.075500,1151.102661 693.351746,1151.028564 703.836243,1151.028564 
	C704.541809,1133.879028 705.209656,1117.645996 705.887390,1101.171997 
	C708.766418,1100.746338 711.030273,1100.192749 713.311096,1100.110962 
	C725.456665,1099.675415 737.623413,1099.640869 749.749329,1098.910767 
	C759.506958,1098.323364 769.321289,1097.521362 778.924133,1095.784546 
	C794.163391,1093.027832 803.705200,1084.156372 806.226074,1068.243774 
	C808.774231,1052.158936 808.769348,1036.092529 806.604309,1020.043762 
	C804.639099,1005.476013 796.237427,996.260864 781.854980,992.910828 
	C775.936523,991.532166 769.881348,990.740784 763.010437,989.406189 
M557.509033,207.920212 
	C563.598816,207.920212 569.688599,207.920212 575.824341,207.920212 
	C575.824341,170.623367 576.016724,134.137436 575.732727,97.655212 
	C575.613647,82.366013 569.285767,69.606842 557.105347,60.138103 
	C531.749207,40.426830 493.667236,42.455860 468.939575,64.658455 
	C467.068359,66.338600 464.988281,67.786163 462.243530,69.939438 
	C461.787933,63.510754 461.227814,58.405716 461.127472,53.291656 
	C461.049438,49.314289 459.007904,48.032177 455.478424,48.006504 
	C449.817230,47.965328 444.143524,47.620552 438.498169,47.888885 
	C429.608185,48.311432 429.157349,45.952461 429.181152,57.803455 
	C429.278625,106.296936 429.471680,154.790237 429.648865,203.283524 
	C429.654114,204.716812 429.874329,206.149323 429.997620,207.622040 
	C440.798950,207.622040 451.212463,207.622040 461.828644,207.622040 
	C461.918793,206.035187 462.030518,204.733398 462.061249,203.429688 
	C462.712891,175.780518 463.119751,148.122025 464.187195,120.489014 
	C464.416199,114.560867 465.937744,108.131699 468.749176,102.957809 
	C477.107971,87.575104 491.076935,81.126724 508.178772,81.725914 
	C530.037659,82.491783 541.781677,95.021950 542.024170,116.855453 
	C542.342468,145.514786 542.775757,174.172852 543.179260,202.831207 
	C543.201782,204.431580 543.402466,206.029434 543.541626,207.920197 
	C548.212952,207.920197 552.364197,207.920197 557.509033,207.920212 
M851.051392,1004.545654 
	C850.593262,1052.942261 849.959106,1101.340820 851.923462,1150.341797 
	C890.412842,1150.341797 928.132263,1150.341797 966.177979,1150.341797 
	C966.177979,1141.217896 966.177979,1132.311768 966.177979,1123.182251 
	C964.713745,1123.073120 963.419861,1122.923706 962.122742,1122.888062 
	C939.322998,1122.261230 916.525085,1121.496460 893.720947,1121.156860 
	C889.016235,1121.086914 887.953369,1119.630249 887.902527,1115.172485 
	C887.436951,1074.376465 886.742554,1033.582886 886.097046,992.788879 
	C886.077026,991.522766 885.864929,990.259644 885.732300,988.890625 
	C874.387451,988.890625 863.361938,988.890625 852.303894,988.890625 
	C851.906372,991.978210 851.525269,994.270386 851.338135,996.578369 
	C851.149902,998.899170 851.154663,1001.235596 851.051392,1004.545654 
z"/>
<path fill="#F5F7F0" opacity="1.000000" stroke="none" 
	d="
M858.994141,498.013824 
	C860.702087,516.957336 860.946472,535.506836 857.835388,553.778931 
	C854.669678,572.372375 850.286560,590.769714 846.047852,609.163330 
	C844.502686,615.868347 838.126404,615.773804 833.004639,615.879333 
	C814.522461,616.260315 796.029419,616.337158 777.542542,616.217102 
	C740.051025,615.973633 702.561279,615.419739 665.069763,615.289429 
	C659.963989,615.271667 657.741211,613.294128 657.024109,608.733826 
	C654.677856,593.812683 652.200012,578.909851 650.070557,563.957581 
	C647.143250,543.403687 644.558105,522.801270 641.696289,502.237762 
	C638.880920,482.007874 635.923340,461.797668 632.979736,441.585876 
	C632.368164,437.386383 631.543701,433.217896 629.773987,429.113525 
	C629.184692,455.554077 628.277283,481.992279 628.080994,508.435730 
	C627.790405,547.597046 627.996521,586.762085 628.010254,625.925537 
	C628.013062,633.939514 628.051880,633.948303 635.986450,633.994690 
	C696.309570,634.347290 756.632751,634.684753 816.955627,635.070496 
	C821.237061,635.097900 825.516235,635.471680 829.796448,635.684387 
	C830.121216,636.164917 830.445923,636.645386 830.770691,637.125854 
	C827.311646,641.648987 824.056519,646.355713 820.258545,650.573730 
	C819.234802,651.710693 816.564453,651.648071 814.647949,651.656311 
	C777.818787,651.814880 740.989380,651.902588 704.159973,652.002197 
	C700.547852,652.011963 696.935669,652.003601 693.323547,652.003601 
	C693.136658,652.478882 692.949768,652.954163 692.762878,653.429504 
	C694.157837,654.862366 695.416626,656.466309 696.968506,657.702148 
	C716.933350,673.601074 734.434448,691.722473 747.413452,713.865234 
	C750.341431,718.860413 752.718933,724.182373 755.268372,729.393860 
	C756.986938,732.906738 755.921631,735.437256 752.369812,737.071350 
	C738.249329,743.567566 740.213928,742.167786 734.490051,732.035461 
	C716.288940,699.816406 691.539246,674.210205 658.257141,657.404175 
	C650.450378,653.462097 642.123108,651.507446 633.245605,651.790039 
	C629.255798,651.917053 627.192993,653.575256 627.117615,657.316284 
	C626.993530,663.476257 626.950745,669.666626 627.489441,675.790039 
	C627.618530,677.258118 629.938599,679.108948 631.644226,679.770996 
	C644.390320,684.719177 656.612305,690.569519 667.650574,698.762390 
	C686.080383,712.441406 698.867798,730.336670 707.249817,751.513855 
	C709.769409,757.879639 708.440063,760.283569 702.000305,762.211365 
	C692.030273,765.196167 692.051270,765.186096 687.693970,756.050232 
	C677.469543,734.613037 662.788086,717.205688 641.740662,705.663208 
	C638.707764,703.999939 635.330200,702.972168 632.138000,701.590454 
	C628.935608,700.204285 627.650574,701.743774 627.776489,704.676758 
	C628.047485,710.990906 628.286499,717.331421 629.136536,723.579834 
	C629.376892,725.346863 631.498474,727.049133 633.075928,728.412354 
	C643.739258,737.627563 651.827393,748.585754 656.299927,762.056519 
	C660.730408,775.400513 659.228577,777.832153 645.355042,777.905457 
	C613.040161,778.076172 580.723816,778.008667 548.408203,777.969971 
	C542.049866,777.962341 542.073914,777.468262 542.680481,770.881348 
	C544.256653,753.765930 552.409241,740.359863 565.538208,729.831604 
	C569.838257,726.383301 571.658264,722.175354 571.944031,716.990173 
	C572.154724,713.166748 572.355835,709.338440 572.387024,705.510803 
	C572.417358,701.790771 570.885193,700.517944 567.041748,701.877808 
	C553.849487,706.545410 543.150452,714.809753 533.493896,724.626953 
	C524.418030,733.853821 517.303589,744.401062 512.127258,756.291077 
	C508.554535,764.497620 501.197876,765.933533 494.358093,759.988037 
	C491.353546,757.376282 491.494843,754.181702 492.680084,750.857727 
	C496.978790,738.802612 503.661438,728.116089 512.141663,718.640381 
	C523.755005,705.663696 536.811035,694.283813 552.207825,685.976807 
	C557.089722,683.342957 562.758057,682.204407 567.866821,679.932556 
	C569.583313,679.169250 571.786072,677.075500 571.873779,675.485474 
	C572.292908,667.887634 572.061707,660.253967 572.061707,652.396790 
	C562.037842,651.341553 552.845398,652.764099 544.044983,656.704956 
	C516.875549,668.871216 495.937653,688.585327 478.243134,711.943237 
	C472.454834,719.584229 467.937714,728.200806 462.990601,736.461914 
	C459.754517,741.865845 458.637543,742.354187 453.094330,739.752502 
	C442.221619,734.649475 441.660126,733.116333 447.461670,722.544556 
	C460.598328,698.606445 477.972809,678.196594 499.026978,660.860596 
	C501.808716,658.570129 504.400024,656.048401 508.145355,652.673340 
	C504.107727,652.394775 501.521606,652.069824 498.934235,652.059875 
	C461.271729,651.914612 423.608978,651.737244 385.946655,651.800842 
	C381.675140,651.808044 378.666107,650.865967 376.434174,647.130188 
	C374.220551,643.425049 371.638062,639.940369 369.217377,636.359009 
	C369.571075,635.911804 369.924774,635.464661 370.278503,635.017456 
	C372.717072,635.017456 375.155670,635.023560 377.594208,635.016541 
	C424.255524,634.882141 470.916992,634.785889 517.578003,634.588501 
	C533.406189,634.521545 549.233765,634.227051 565.060669,633.978210 
	C571.424255,633.878174 571.931824,633.473694 571.905334,627.099670 
	C571.636353,562.275574 571.308350,497.451660 570.966675,432.627869 
	C570.960449,431.449097 570.583496,430.272247 570.379517,429.094482 
	C569.957581,429.082672 569.535706,429.070862 569.113770,429.059052 
	C567.743164,437.307373 566.210144,445.532562 565.032166,453.808289 
	C561.381165,479.458710 557.838806,505.124725 554.305237,530.791687 
	C551.496155,551.195923 548.810059,571.617188 545.964722,592.016296 
	C545.117126,598.093140 544.025513,604.142395 542.830322,610.161499 
	C542.242554,613.121399 540.772339,615.053772 537.071106,615.072449 
	C479.918488,615.360474 422.765503,615.681641 365.615875,616.297241 
	C359.092712,616.367554 355.459076,613.721802 353.837036,608.040344 
	C350.423096,596.082336 346.560486,584.173462 344.304260,571.981262 
	C340.210052,549.856628 338.402863,527.449341 339.903137,504.910583 
	C342.933472,459.385956 356.389099,417.142365 381.503387,379.043762 
	C422.134644,317.405731 479.305420,279.879761 551.400940,264.900146 
	C561.294189,262.844574 571.358826,261.595123 581.365906,260.120422 
	C583.629395,259.786865 585.983887,260.071320 589.115295,260.071320 
	C589.913147,412.704987 590.709717,565.079773 591.507629,717.723145 
	C597.126099,717.723145 602.234070,717.723145 608.049133,717.723145 
	C608.354858,714.980225 608.948975,712.101990 608.957397,709.222107 
	C609.351257,574.399048 609.671326,439.575775 610.079712,304.752747 
	C610.118591,291.926117 610.670898,279.101044 610.990234,266.275360 
	C611.134644,260.476654 612.011047,259.341675 617.730225,260.286011 
	C634.739807,263.094543 652.160706,264.674866 668.586670,269.547211 
	C763.211426,297.615234 824.480957,359.323639 851.284424,454.475830 
	C855.220398,468.448578 856.485779,483.173584 858.994141,498.013824 
M783.088379,361.418274 
	C740.805542,313.466614 688.197876,285.590698 623.873779,278.375214 
	C625.251892,287.307251 626.329834,294.865448 627.595276,302.392151 
	C632.024719,328.737122 636.533691,355.068756 640.984314,381.410187 
	C645.794250,409.877960 650.532349,438.357880 655.375977,466.819885 
	C660.191528,495.116791 665.041504,523.408081 669.993530,551.681335 
	C672.138428,563.927490 674.511536,576.135254 676.927856,588.331360 
	C677.546936,591.456543 678.613831,594.106689 682.947388,594.069031 
	C730.430420,593.656372 777.914795,593.279663 825.398926,593.262268 
	C831.512817,593.260010 833.806885,591.051453 835.135559,585.496765 
	C843.229370,551.657349 845.736084,517.606934 840.145935,483.099976 
	C832.733826,437.346619 813.593994,397.111572 783.088379,361.418274 
M500.424438,298.909027 
	C463.321472,315.730774 432.353241,340.375214 407.624023,372.662506 
	C375.122833,415.097229 357.876312,463.082031 356.620148,516.641479 
	C356.043121,541.243408 359.234192,565.375061 366.158508,588.993042 
	C366.917542,591.581909 367.345734,594.148926 371.509399,594.106995 
	C418.653748,593.632446 465.801025,593.455750 512.946289,593.052551 
	C523.059509,592.966003 523.393127,592.243530 524.986755,582.569458 
	C530.353943,549.989868 535.801086,517.423279 541.288147,484.863617 
	C546.802551,452.141937 552.463501,419.444885 557.945984,386.717865 
	C563.511536,353.495087 568.910034,320.244293 574.445923,287.016479 
	C575.670471,279.666168 574.208862,278.075684 566.733093,279.251923 
	C544.014282,282.826508 522.064270,289.019196 500.424438,298.909027 
z"/>
<path fill="#F5F7F0" opacity="1.000000" stroke="none" 
	d="
M508.990173,938.964355 
	C508.989044,942.938049 508.989044,946.417908 508.989044,950.742981 
	C501.351898,950.742981 494.068695,950.958130 486.808258,950.644592 
	C483.583832,950.505310 482.087097,948.064209 481.931854,944.741882 
	C481.660431,938.934937 481.171967,933.138184 480.775543,927.352966 
	C473.362793,925.464783 471.047913,926.337219 467.062897,932.245544 
	C458.415955,945.066101 446.775787,953.134338 431.078766,954.591492 
	C405.615662,956.955017 381.103058,930.333618 386.956268,910.448975 
	C393.493683,910.448975 400.407440,910.378357 407.318878,910.475037 
	C411.552246,910.534241 413.337158,912.953430 413.777069,917.097656 
	C414.892670,927.606750 421.725189,932.291931 432.165985,930.000977 
	C440.605499,928.149170 445.610809,919.273376 443.068359,910.658264 
	C441.013580,903.695740 434.950623,902.583618 429.228271,902.203979 
	C424.473236,901.888672 423.050201,900.170837 423.660309,895.844849 
	C423.798553,894.864502 423.668671,893.847717 423.682678,892.848022 
	C423.734009,889.187134 422.561005,884.737183 424.239655,882.114441 
	C425.589630,880.005310 430.409729,880.159119 433.663879,879.218201 
	C440.549408,877.227417 443.511932,871.269836 441.329926,863.917664 
	C439.471863,857.656860 433.825348,853.276123 427.330688,853.056458 
	C421.493835,852.859070 416.898529,856.445312 414.611847,862.982788 
	C412.108734,870.139038 411.149567,870.928589 403.430817,870.903503 
	C399.453430,870.890625 395.473358,870.470886 391.502258,870.141541 
	C387.989166,869.850037 387.001007,867.368774 387.466553,864.462585 
	C390.612488,844.824524 400.011993,831.989075 424.914062,829.215454 
	C444.938843,826.985107 462.514435,839.821228 466.589539,858.616089 
	C468.305878,866.532043 467.456818,874.524475 464.140686,882.064880 
	C462.685516,885.373657 462.992798,887.959045 465.172333,891.197144 
	C467.796082,895.095215 469.425507,899.785706 470.839905,904.333923 
	C471.886963,907.700867 474.025970,909.468262 476.913696,908.654968 
	C478.623016,908.173584 480.795746,905.338196 480.828400,903.526550 
	C481.128113,886.886597 481.004852,870.239075 481.004852,853.593811 
	C480.566345,853.867493 480.127808,854.141113 479.689301,854.414795 
	C477.254089,851.569702 473.864563,849.099243 472.571777,845.805725 
	C469.349640,837.597168 472.167725,833.041260 480.730408,832.701477 
	C501.702240,831.869446 522.691711,831.268860 543.678589,831.080933 
	C571.839050,830.828796 600.003845,831.048279 628.166748,831.081421 
	C630.665222,831.084351 633.279724,830.763245 635.633911,831.380249 
	C638.910950,832.239136 643.900879,829.753174 644.939697,835.593933 
	C646.269836,843.072754 643.800171,850.713379 639.106506,853.028503 
	C635.911377,854.604431 636.673462,857.095581 637.494812,859.402466 
	C642.744629,874.147522 635.683228,896.491638 622.139648,905.670593 
	C613.592285,911.463501 604.371338,911.601379 594.852966,910.548889 
	C588.467285,909.842896 585.943054,912.314453 587.309570,918.594910 
	C588.928650,926.036072 592.768188,929.026123 600.386047,929.153748 
	C611.039490,929.332214 621.689453,929.705505 632.342041,929.943848 
	C636.668396,930.040710 638.550110,932.373901 638.924866,936.480347 
	C639.959473,947.817871 638.358154,949.892090 627.017700,949.866943 
	C610.524536,949.830383 594.031250,949.469055 577.541077,949.107727 
	C576.063599,949.075378 574.250122,948.402771 573.201355,947.394470 
	C566.723267,941.166199 561.333252,934.196777 561.274719,924.657043 
	C561.159363,905.858521 561.240723,887.058777 561.240723,867.130066 
	C568.713379,867.130066 575.840576,867.025879 582.962402,867.177368 
	C586.165222,867.245422 588.261047,868.822449 588.245300,872.452637 
	C588.235229,874.778503 588.566223,877.103638 588.657715,879.432495 
	C588.803772,883.151367 589.700317,886.584595 593.684875,887.728271 
	C597.927124,888.946106 602.196655,889.232788 605.851562,885.758911 
	C613.027161,878.938477 612.843628,863.085083 605.160095,856.871948 
	C603.234985,855.315308 600.400513,854.231934 597.927612,854.114136 
	C585.461060,853.520081 572.977600,853.198853 560.496643,853.023071 
	C553.395264,852.922974 553.048401,853.441345 553.004211,860.827271 
	C552.877563,881.990845 552.837280,903.155151 552.663147,924.318298 
	C552.613770,930.312073 552.310974,936.308228 551.963501,942.293945 
	C551.558228,949.275024 549.602417,951.043823 542.732788,951.033142 
	C539.233398,951.027710 535.731628,950.946777 532.235168,951.047058 
	C528.580933,951.151978 526.586548,949.263733 526.041138,945.891418 
	C525.512390,942.621643 525.061829,939.296936 525.043945,935.993835 
	C524.931824,915.329956 525.012939,894.664917 524.883911,874.001160 
	C524.849670,868.513794 524.371460,863.024414 523.962097,857.546021 
	C523.756348,854.792969 522.610291,852.596741 519.316406,852.980042 
	C516.170166,853.346130 511.584290,851.233337 510.927887,856.616882 
	C510.104706,863.368774 509.510559,870.184998 509.412628,876.982056 
	C509.117432,897.475891 509.110565,917.973999 508.990173,938.964355 
z"/>
<path fill="#F5F7F1" opacity="1.000000" stroke="none" 
	d="
M405.995483,1061.001465 
	C405.362030,1048.373413 405.001038,1036.222046 403.989075,1024.125244 
	C403.440002,1017.561707 399.054199,1013.359497 392.542328,1013.163086 
	C386.120880,1012.969360 379.495911,1013.161011 373.259430,1014.538330 
	C360.848785,1017.279236 356.224518,1023.854675 356.034363,1037.706055 
	C355.608856,1068.700684 355.337463,1099.697266 354.997131,1130.693115 
	C354.940399,1135.858521 354.786865,1141.023804 354.804871,1146.188721 
	C354.814850,1149.044800 353.434662,1150.827881 350.739746,1150.800659 
	C341.612885,1150.708862 332.479797,1150.487061 323.373779,1149.919312 
	C322.107147,1149.840332 320.117920,1147.651733 319.940765,1146.252686 
	C319.294159,1141.147827 319.080017,1135.964722 319.049652,1130.809082 
	C318.885803,1102.977661 318.945282,1075.144409 318.654968,1047.314453 
	C318.571869,1039.347168 317.874786,1031.353882 316.921234,1023.437439 
	C315.993835,1015.737854 312.593384,1012.940491 304.960632,1013.048645 
	C298.820374,1013.135559 292.621979,1013.209473 286.564117,1014.084106 
	C276.863403,1015.484558 269.184540,1024.926025 269.085022,1034.799072 
	C268.713776,1071.628174 268.362579,1108.457397 268.006866,1145.286621 
	C267.991180,1146.912231 268.004852,1148.538086 268.004852,1150.941528 
	C257.230988,1150.941528 246.942429,1151.000977 236.655319,1150.904907 
	C233.622879,1150.876587 232.963593,1148.746582 232.980576,1146.068237 
	C233.027039,1138.735718 232.903946,1131.402466 232.908737,1124.069458 
	C232.937134,1080.571045 232.982773,1037.072632 233.022385,993.574158 
	C233.023590,992.255859 233.022522,990.937561 233.022522,989.184021 
	C244.290833,989.184021 255.329025,989.184021 266.548279,989.184021 
	C267.085052,992.304688 267.636871,995.512695 268.332458,999.556519 
	C270.262756,998.512207 271.773560,997.954468 272.974701,997.005127 
	C286.167480,986.576599 301.562775,984.928772 317.397552,986.708679 
	C324.506378,987.507812 331.563660,990.008911 338.261353,992.693176 
	C341.575012,994.021240 344.418762,997.196228 346.753906,1000.112976 
	C349.404083,1003.423157 351.486420,1003.492676 354.490570,1000.814331 
	C373.527710,983.842102 395.604614,982.966553 418.579041,989.724609 
	C433.322327,994.061401 440.973511,1004.836365 441.030121,1020.251770 
	C441.188599,1063.389282 441.085297,1106.527710 441.085297,1150.181152 
	C430.335815,1150.181152 418.983978,1150.181152 406.856873,1150.181152 
	C406.570770,1120.685425 406.283752,1091.093262 405.995483,1061.001465 
z"/>
<path fill="#F5F7F1" opacity="1.000000" stroke="none" 
	d="
M1006.948425,897.963745 
	C1006.135132,902.012085 1003.602661,903.724182 1000.138855,903.822205 
	C994.007874,903.995850 987.868408,903.870911 981.587219,903.870911 
	C980.789856,901.120789 980.197144,898.213440 979.114868,895.501587 
	C975.488159,886.414429 966.687927,884.974426 960.195007,892.301086 
	C954.756409,898.437927 953.730225,910.127441 957.969116,917.657593 
	C961.643921,924.185669 969.327637,927.137878 978.423706,925.394287 
	C981.508972,924.802917 984.538635,923.925659 987.603088,923.219788 
	C990.897644,922.461060 993.222961,922.995239 993.124817,927.157959 
	C992.999329,932.481567 993.510071,937.877014 992.766479,943.102112 
	C992.452881,945.305542 989.977295,948.410339 987.906494,948.971069 
	C961.791199,956.042786 930.078186,942.333679 927.311584,910.340454 
	C925.536133,889.809326 943.719666,866.836792 962.096741,866.714417 
	C968.732178,866.670166 975.367371,869.045288 982.034790,870.116272 
	C984.708008,870.545715 988.032532,871.496582 990.095398,870.397888 
	C1002.332947,863.880249 1014.590759,860.882874 1028.334717,868.875305 
	C1028.334717,862.705994 1028.334717,857.622864 1028.334717,852.604004 
	C990.514099,852.604004 953.005493,852.604004 915.101685,852.604004 
	C916.525208,858.887329 918.117737,864.444519 919.010193,870.112000 
	C922.726196,893.709900 906.547607,911.709839 881.800171,912.911316 
	C867.185486,913.620789 865.903625,911.876160 869.613892,897.857056 
	C870.122253,895.936340 870.217773,893.614441 871.392700,892.234558 
	C872.917419,890.443909 875.259277,888.378723 877.377075,888.228210 
	C887.431335,887.513855 895.033386,877.647095 892.757568,867.591675 
	C890.295288,856.712036 884.647461,852.129395 873.444153,852.011597 
	C867.954956,851.953918 862.464600,852.001648 856.582642,852.001648 
	C856.395630,853.531860 856.112671,854.786194 856.108337,856.041382 
	C856.044922,874.535095 855.936340,893.029236 856.011902,911.522522 
	C856.062622,923.930054 860.143799,927.908386 872.574829,927.989075 
	C884.403931,928.065918 896.233826,927.997986 908.062927,928.072571 
	C910.715393,928.089294 913.364441,928.452820 916.017273,928.623535 
	C919.916565,928.874573 921.364807,931.147156 921.693176,934.832581 
	C922.798096,947.234497 921.032593,949.727539 908.507812,949.773682 
	C889.697998,949.842957 870.839050,949.995667 852.088379,948.772888 
	C834.607117,947.632874 830.275452,939.814331 829.166870,921.001343 
	C827.942688,900.227478 827.843384,879.387390 827.242310,858.576477 
	C827.195190,856.944458 827.055237,855.315063 826.944031,853.443115 
	C825.916382,853.268982 825.124695,852.978699 824.356140,853.030518 
	C820.047729,853.321045 818.451904,851.411865 818.815796,847.113770 
	C819.123291,843.482971 818.912659,839.795837 818.753479,836.141357 
	C818.585449,832.283569 820.241028,830.984009 824.106079,830.947632 
	C839.429626,830.803162 854.750122,830.096985 870.072266,830.079346 
	C927.385193,830.013428 984.698364,830.109924 1042.011230,830.224121 
	C1049.002808,830.238037 1055.991577,830.832520 1062.985107,830.943176 
	C1065.626587,830.984985 1067.126221,831.736145 1067.158081,834.552429 
	C1067.165405,835.207336 1067.422241,835.856140 1067.527222,836.513794 
	C1069.303223,847.641174 1067.458374,850.362122 1056.147705,852.526367 
	C1056.147705,854.198425 1056.152222,855.990784 1056.146973,857.783203 
	C1056.078613,880.775757 1056.064819,903.768677 1055.898071,926.760498 
	C1055.859497,932.080505 1055.433960,937.409546 1054.937622,942.711121 
	C1054.417847,948.264893 1052.439331,949.924438 1046.899902,949.993713 
	C1045.400635,950.012512 1043.900879,949.985413 1042.401367,949.982910 
	C1030.604858,949.963013 1029.417480,948.940186 1029.131226,936.862793 
	C1028.847168,924.871704 1028.925903,912.872314 1028.790894,900.877197 
	C1028.713989,894.027405 1025.467529,890.034668 1019.411255,889.149597 
	C1013.960388,888.353027 1009.150635,891.618713 1006.948425,897.963745 
z"/>
<path fill="#F5F7F1" opacity="1.000000" stroke="none" 
	d="
M353.407349,950.986023 
	C347.170380,950.997986 341.376770,950.997986 334.509644,950.997986 
	C334.509644,931.258118 334.509644,912.372437 334.509644,893.255127 
	C328.523773,893.255127 323.622406,893.255127 318.505280,893.255127 
	C318.000671,900.757996 317.329407,908.018433 317.057861,915.293884 
	C316.288818,935.897095 297.855438,950.337524 276.519745,948.613831 
	C267.570984,947.890869 259.341431,944.958313 252.407791,938.991028 
	C240.000046,928.312805 238.340134,914.617493 242.142014,899.866699 
	C245.951462,885.086548 255.768143,875.725220 270.582153,872.179932 
	C276.183685,870.839355 282.096649,870.703735 287.886597,870.273865 
	C293.752045,869.838440 293.413300,865.465149 293.659790,861.544739 
	C293.901123,857.706421 293.598999,853.997620 288.442993,853.587158 
	C286.128357,853.402832 283.816101,853.036743 281.501648,853.027344 
	C268.173126,852.973145 254.844238,852.990967 241.515503,853.011658 
	C239.519394,853.014771 237.498993,852.990967 235.532135,853.273804 
	C229.598938,854.127136 228.971008,855.137756 231.135162,860.741333 
	C234.441650,869.302795 235.966614,877.963501 233.439026,887.030273 
	C229.419418,901.449097 218.202438,907.803589 205.180252,911.704712 
	C200.175735,913.203979 194.734512,913.835144 189.496170,913.815735 
	C182.901932,913.791138 180.996017,910.557556 182.861053,904.320129 
	C184.142120,900.035645 185.690369,895.808411 186.619598,891.449097 
	C187.265976,888.416748 188.752975,887.948059 191.495483,888.024597 
	C201.039154,888.291138 206.238220,883.893860 207.046005,875.219971 
	C208.098587,863.917419 203.295624,855.247925 194.530853,854.012146 
	C187.989624,853.089783 181.289505,853.207825 174.655792,853.065125 
	C171.437271,852.995911 169.957092,854.789062 169.969040,858.139404 
	C170.037888,877.449585 169.860474,896.761475 170.059647,916.069824 
	C170.149567,924.786621 172.647720,927.598450 181.203964,928.104919 
	C196.488693,929.009644 211.806229,929.363281 227.110764,929.927612 
	C228.913315,929.994080 230.720459,929.936707 232.853653,929.936707 
	C232.853653,936.885681 232.853653,943.436523 232.853653,950.820801 
	C226.906326,950.820801 221.111023,950.887756 215.317734,950.808167 
	C198.343750,950.574890 181.360474,950.552979 164.400726,949.917236 
	C153.610626,949.512878 144.454498,940.243896 144.060959,929.586975 
	C143.194565,906.124634 142.607437,882.650635 142.130524,859.176880 
	C142.063339,855.868958 141.409058,853.955627 137.988998,853.181458 
	C133.800247,852.233398 132.228882,849.136292 131.987274,845.058350 
	C131.292847,833.337280 131.820892,832.439270 143.699539,832.335327 
	C173.685989,832.072754 203.675644,831.915344 233.662659,832.039978 
	C275.307770,832.213135 316.951691,832.680359 358.596008,833.031433 
	C360.427643,833.046875 362.267273,833.069519 364.087799,833.246765 
	C367.952209,833.622925 372.278412,833.024902 372.259613,839.237427 
	C372.237366,846.585693 369.401947,852.449158 364.212891,852.871948 
	C360.399170,853.182739 360.086487,854.957764 360.088257,858.007080 
	C360.101959,881.332275 360.053040,904.657898 359.889130,927.982422 
	C359.851776,933.302612 359.455475,938.636047 358.908569,943.930786 
	C358.584320,947.070007 357.891998,950.327148 353.407349,950.986023 
M285.765869,925.517639 
	C289.583130,923.895264 291.953522,921.064148 292.447021,916.937317 
	C293.075562,911.681274 293.843140,906.405640 293.928589,901.128418 
	C294.102203,890.403564 293.456116,889.933289 282.717712,889.998779 
	C271.271606,890.068604 262.139313,900.082214 262.994873,911.594910 
	C263.674377,920.737793 274.022614,929.010559 285.765869,925.517639 
M327.197052,852.991516 
	C317.712555,852.959412 317.413574,853.263611 317.886322,862.827026 
	C317.959808,864.313904 317.937134,865.881653 318.418030,867.250732 
	C318.882812,868.573914 319.860931,870.651550 320.751831,870.725220 
	C324.246216,871.014038 328.450836,871.799683 331.176758,870.255798 
	C335.743317,867.669312 334.112610,862.272217 333.919067,857.915466 
	C333.766479,854.479980 331.141235,853.322632 327.197052,852.991516 
z"/>
<path fill="#F5F7F1" opacity="1.000000" stroke="none" 
	d="
M654.446350,101.686974 
	C654.497375,121.094528 654.104065,140.091171 655.009277,159.025742 
	C655.540283,170.133759 658.960571,173.868027 670.111145,174.454239 
	C687.011536,175.342697 704.081299,175.347260 720.937866,173.982666 
	C734.045837,172.921539 736.512939,168.080917 734.609253,153.540710 
	C724.375122,153.540710 713.980530,153.540710 703.238892,153.540710 
	C703.238892,141.573257 703.238892,130.656525 703.238892,119.436668 
	C703.962646,119.311531 704.895630,119.021881 705.832947,119.007057 
	C725.491882,118.696220 745.154175,118.531647 764.808411,118.040848 
	C769.139587,117.932686 771.209961,119.608269 771.186401,123.612427 
	C771.118958,135.082886 771.049866,146.562515 770.518250,158.017029 
	C770.265747,163.457352 769.161377,168.888763 768.096130,174.255386 
	C763.525330,197.283539 750.290344,205.010513 730.455994,207.932755 
	C708.766479,211.128357 686.947021,210.624435 665.173218,208.830093 
	C659.593323,208.370270 654.008789,207.083679 648.603333,205.552368 
	C631.827881,200.800095 624.389038,188.039963 622.199524,172.081787 
	C618.269165,143.436432 618.174805,114.635300 622.159302,85.986221 
	C625.302673,63.384750 638.346497,51.499794 663.718811,49.242706 
	C681.237427,47.684273 698.957336,48.006886 716.579834,48.191849 
	C723.235962,48.261715 729.902649,50.152283 736.510620,51.480927 
	C760.083313,56.220623 773.992432,82.578331 769.587585,104.857124 
	C759.756287,104.857124 749.798340,104.929459 739.845276,104.743896 
	C738.862671,104.725571 737.792908,103.223030 736.986206,102.228767 
	C736.499756,101.629166 736.380066,100.694405 736.203308,99.886665 
	C733.397339,87.059875 730.795593,83.877045 714.527283,83.122932 
	C701.556763,82.521683 688.535889,82.864761 675.539551,83.001389 
	C660.878052,83.155533 656.533142,87.043556 654.446350,101.686974 
z"/>
<path fill="#F5F7F0" opacity="1.000000" stroke="none" 
	d="
M613.962036,1150.696899 
	C605.837463,1150.696899 598.207397,1150.696899 590.226379,1150.696899 
	C589.798828,1142.225464 589.526123,1134.279907 588.952759,1126.356201 
	C588.570190,1121.069214 587.890564,1115.793823 587.105774,1110.548828 
	C586.195923,1104.467529 582.050110,1100.609863 576.411316,1100.328979 
	C559.139954,1099.468384 541.830688,1099.291260 524.533325,1099.084839 
	C520.530518,1099.036865 521.332703,1102.924072 521.183533,1105.192505 
	C520.571594,1114.498779 520.317932,1123.830200 520.020935,1133.155151 
	C519.877747,1137.651245 519.796204,1142.158081 519.942627,1146.651611 
	C520.038818,1149.604980 519.054382,1150.868774 515.977539,1150.836060 
	C507.480469,1150.745483 498.981293,1150.858276 490.482941,1150.882202 
	C487.650482,1150.890137 485.928131,1150.180786 485.931305,1146.633301 
	C485.976562,1095.807983 485.887390,1044.982788 485.848053,994.157532 
	C485.846771,992.510010 486.031403,990.862427 486.170837,988.517456 
	C491.746948,988.158020 497.185974,987.439758 502.613129,987.520508 
	C527.597473,987.892029 552.581909,988.366455 577.558350,989.083557 
	C583.922791,989.266357 590.297058,990.231873 596.598450,991.257568 
	C610.403564,993.504761 618.801636,1001.981934 623.114258,1014.970093 
	C627.932983,1029.482178 629.239807,1044.137207 625.211182,1059.073364 
	C622.913940,1067.590576 618.536804,1074.576172 610.939392,1079.366821 
	C609.463501,1080.297485 608.217285,1081.592407 606.179932,1083.290405 
	C607.290283,1083.927734 607.832458,1084.325562 608.436279,1084.572754 
	C620.750061,1089.615601 624.160889,1100.318481 624.786987,1111.996826 
	C625.463379,1124.612915 624.940125,1137.293457 624.940125,1150.696899 
	C621.319153,1150.696899 617.887817,1150.696899 613.962036,1150.696899 
M538.502808,1018.038086 
	C534.172485,1018.038330 529.834106,1018.199341 525.514465,1017.984863 
	C522.371155,1017.828857 520.895935,1018.813660 520.916138,1022.129578 
	C521.001221,1036.102295 521.012878,1050.075928 520.955383,1064.048828 
	C520.941711,1067.371094 522.455811,1068.249390 525.576050,1068.189453 
	C534.733154,1068.012817 543.898071,1068.233154 553.054565,1068.041016 
	C560.860474,1067.877319 568.683472,1067.625977 576.453491,1066.916382 
	C583.597595,1066.263794 588.304016,1062.639771 588.783386,1056.640625 
	C589.481201,1047.907959 589.689270,1039.051025 589.057922,1030.322876 
	C588.509888,1022.747131 584.158752,1019.321899 576.436829,1019.026062 
	C564.130615,1018.554626 551.814087,1018.353516 538.502808,1018.038086 
z"/>
<path fill="#F5F7F1" opacity="1.000000" stroke="none" 
	d="
M316.907166,210.805557 
	C302.827911,209.942734 289.057007,210.163773 275.683380,207.966599 
	C251.270966,203.955811 240.369278,193.380554 236.504395,168.853455 
	C232.054718,140.615082 232.221619,112.104698 237.840652,83.932327 
	C242.552307,60.309364 256.306213,51.220108 278.715393,49.384094 
	C299.696838,47.665062 320.966766,48.293255 342.033386,49.375160 
	C350.294006,49.799397 358.833252,53.303421 366.382172,57.114914 
	C378.142548,63.052765 382.147339,74.780991 383.856140,86.882225 
	C387.760986,114.534256 387.757111,142.289246 383.980286,169.971664 
	C380.743958,193.692596 367.552673,206.405167 343.778076,208.904297 
	C335.014038,209.825546 326.190887,210.183884 316.907166,210.805557 
M351.859009,126.500610 
	C351.573578,117.348160 351.401520,108.190361 350.970520,99.044769 
	C350.548523,90.090324 345.982971,84.413208 336.963593,83.974106 
	C320.025757,83.149490 303.018280,82.778656 286.077515,83.345963 
	C275.474823,83.701035 270.338501,89.534714 270.127991,100.095291 
	C269.739990,119.556511 269.733307,139.036728 270.129974,158.497559 
	C270.338287,168.716461 275.380676,174.499832 284.731598,174.801971 
	C301.841248,175.354828 318.992645,175.315033 336.104645,174.796448 
	C344.501160,174.541962 349.032471,170.314240 349.986511,161.834213 
	C351.265869,150.463181 351.294952,138.951492 351.859009,126.500610 
z"/>
<path fill="#F5F7F0" opacity="1.000000" stroke="none" 
	d="
M797.547729,852.547485 
	C796.732239,854.548645 795.994263,856.362915 795.970276,858.186707 
	C795.593750,886.837280 795.242065,915.488770 795.081970,944.141113 
	C795.060181,948.049194 793.860657,950.206177 789.913757,950.377136 
	C784.109375,950.628540 778.291809,950.998108 772.499939,950.781006 
	C771.243958,950.733887 769.398987,948.591919 769.007385,947.103821 
	C768.256897,944.252197 768.146729,941.178406 768.133179,938.195190 
	C768.036438,916.868835 768.090637,895.541748 767.954468,874.215759 
	C767.920532,868.900208 767.342529,863.589233 767.059265,858.273743 
	C766.871460,854.749084 765.516663,852.874268 761.540222,852.871277 
	C757.594727,852.868286 756.107178,854.678772 755.973450,858.222717 
	C755.634644,867.201843 755.128845,876.180176 755.044312,885.162170 
	C754.875000,903.155212 755.013672,921.150879 754.885254,939.144531 
	C754.809753,949.724182 754.430725,950.039307 743.868103,949.945862 
	C740.387512,949.915039 736.914001,949.327942 733.431213,949.242981 
	C729.914062,949.157166 729.009399,947.266846 728.896362,944.113831 
	C728.701599,938.681274 728.187012,933.260132 727.744568,926.949768 
	C724.967834,927.979553 722.843933,928.623413 720.840820,929.533386 
	C708.156982,935.295227 695.370117,935.273804 682.705994,929.797485 
	C673.141785,925.661560 668.068237,918.305664 667.954712,907.588440 
	C667.794067,892.430847 667.352295,877.276184 667.007263,862.120728 
	C666.904907,857.624268 666.687012,854.410950 660.779541,852.228577 
	C653.921875,849.695190 657.333496,841.780457 656.961365,836.103088 
	C656.699280,832.103638 659.734070,831.251465 662.933228,830.972107 
	C666.909912,830.624817 670.890259,830.118530 674.872925,830.080200 
	C687.020630,829.963074 699.170288,830.037659 711.764771,830.037659 
	C712.087585,825.441589 712.319336,821.862610 712.593628,818.286926 
	C713.695679,803.920227 721.708374,795.074890 735.090088,790.981873 
	C751.095520,786.086304 767.255127,786.290283 783.096375,791.561829 
	C798.054016,796.539246 804.205322,805.561768 804.596313,821.405640 
	C804.696045,825.446472 803.782654,829.853271 808.736572,832.117676 
	C809.399536,832.420593 809.892395,833.800842 809.910645,834.693481 
	C810.018982,839.988037 809.964111,845.285889 809.964111,850.677917 
	C805.496155,851.305725 801.726807,851.835388 797.547729,852.547485 
M703.145630,909.864014 
	C705.140137,909.908386 707.142517,910.088318 709.127869,909.973694 
	C717.386169,909.496643 726.015991,903.724487 726.593689,896.852417 
	C727.703552,883.650085 727.754211,870.359619 728.294861,857.107849 
	C728.423828,853.948120 726.911377,852.658325 723.892944,852.568604 
	C715.432251,852.317078 706.974915,851.945801 698.513428,851.734131 
	C696.432068,851.682068 694.339966,852.058594 692.578125,852.210083 
	C692.578125,867.794006 692.604858,882.724060 692.565979,897.653992 
	C692.548523,904.370911 696.200500,907.990784 703.145630,909.864014 
M762.713989,811.401123 
	C756.327209,810.280273 750.406128,811.329468 745.508850,815.753784 
	C740.015076,820.717041 741.175232,827.246948 748.073608,829.881775 
	C754.505859,832.338501 761.142334,832.028625 767.553284,829.721741 
	C770.857605,828.532898 773.884155,826.642639 774.002319,822.405212 
	C774.117554,818.275452 771.979858,815.516113 768.547241,813.672424 
	C766.963379,812.821594 765.183716,812.335388 762.713989,811.401123 
z"/>
<path fill="#F5F7F1" opacity="1.000000" stroke="none" 
	d="
M931.197021,104.816437 
	C928.326294,86.494583 924.594177,83.186859 906.385437,83.003746 
	C893.729126,82.876472 881.068420,82.842331 868.413452,83.025955 
	C855.091919,83.219269 849.415161,88.430779 849.119202,101.786247 
	C848.705994,120.431007 848.772888,139.095901 849.098206,157.744080 
	C849.302612,169.462524 854.665771,174.659088 866.528931,174.914185 
	C881.502869,175.236191 896.492126,175.233078 911.467651,174.966797 
	C922.962158,174.762421 927.329163,170.896408 929.857056,159.943710 
	C931.909912,151.048950 931.909973,151.040695 941.043091,151.009781 
	C947.372681,150.988358 953.703186,151.049805 960.031860,150.966232 
	C963.900635,150.915131 965.728455,152.741760 965.092407,156.498550 
	C963.657166,164.975937 962.685730,173.609634 960.326721,181.835938 
	C956.000793,196.920502 944.560120,204.180771 929.825928,206.983978 
	C908.393433,211.061539 886.777832,210.572922 865.159790,209.209000 
	C859.379028,208.844299 853.569702,208.151199 847.896912,207.000504 
	C829.695496,203.308426 820.220581,193.565338 817.083435,175.085541 
	C813.273315,152.641708 813.339294,129.978607 814.666992,107.363876 
	C815.284973,96.838310 816.867554,86.280777 819.060852,75.960442 
	C821.398987,64.958458 828.558838,57.021450 839.349792,53.926777 
	C849.171082,51.110172 859.418884,48.751980 869.566711,48.335297 
	C886.325500,47.647156 903.243164,47.710243 919.934387,49.220116 
	C945.790649,51.559052 961.211304,65.663681 964.048767,91.595886 
	C964.586609,96.511475 964.911560,101.450356 965.385803,106.974388 
	C954.293823,106.974388 943.854858,107.008301 933.417419,106.899780 
	C932.704346,106.892357 932.002441,105.817245 931.197021,104.816437 
z"/>
<path fill="#F5F7F1" opacity="1.000000" stroke="none" 
	d="
M763.449402,989.544189 
	C769.881348,990.740784 775.936523,991.532166 781.854980,992.910828 
	C796.237427,996.260864 804.639099,1005.476013 806.604309,1020.043762 
	C808.769348,1036.092529 808.774231,1052.158936 806.226074,1068.243774 
	C803.705200,1084.156372 794.163391,1093.027832 778.924133,1095.784546 
	C769.321289,1097.521362 759.506958,1098.323364 749.749329,1098.910767 
	C737.623413,1099.640869 725.456665,1099.675415 713.311096,1100.110962 
	C711.030273,1100.192749 708.766418,1100.746338 705.887390,1101.171997 
	C705.209656,1117.645996 704.541809,1133.879028 703.836243,1151.028564 
	C693.351746,1151.028564 683.075500,1151.102661 672.804382,1150.906738 
	C671.841980,1150.888306 670.303955,1149.289429 670.082764,1148.209351 
	C669.452942,1145.134277 669.107910,1141.948364 669.104004,1138.805542 
	C669.046814,1092.678589 669.026917,1046.551636 669.087036,1000.424744 
	C669.103210,988.001648 669.240417,987.897644 681.640137,988.023560 
	C707.441895,988.285583 733.242432,988.664246 759.043213,989.018188 
	C760.367126,989.036316 761.688110,989.271851 763.449402,989.544189 
M704.838501,1047.493652 
	C705.169983,1052.961670 705.832153,1058.435181 705.742676,1063.896362 
	C705.647644,1069.699829 709.149780,1070.834595 713.669189,1070.968506 
	C718.157471,1071.101685 722.655518,1070.897217 727.144409,1071.019409 
	C739.382080,1071.352539 751.306519,1069.642090 763.016663,1066.077393 
	C767.567993,1064.691895 770.645569,1061.872925 771.742188,1057.439575 
	C774.511780,1046.242676 773.596497,1035.247070 767.717773,1025.228638 
	C766.157166,1022.569031 762.489441,1019.554993 759.702148,1019.467224 
	C742.966431,1018.939880 726.204712,1019.140381 709.453552,1019.299744 
	C706.496033,1019.327942 704.841064,1021.099792 704.920837,1024.544678 
	C705.090271,1031.857056 704.864319,1039.178711 704.838501,1047.493652 
z"/>
<path fill="#F5F7F1" opacity="1.000000" stroke="none" 
	d="
M557.012207,207.920197 
	C552.364197,207.920197 548.212952,207.920197 543.541626,207.920197 
	C543.402466,206.029434 543.201782,204.431580 543.179260,202.831207 
	C542.775757,174.172852 542.342468,145.514786 542.024170,116.855453 
	C541.781677,95.021950 530.037659,82.491783 508.178772,81.725914 
	C491.076935,81.126724 477.107971,87.575104 468.749176,102.957809 
	C465.937744,108.131699 464.416199,114.560867 464.187195,120.489014 
	C463.119751,148.122025 462.712891,175.780518 462.061249,203.429688 
	C462.030518,204.733398 461.918793,206.035187 461.828644,207.622040 
	C451.212463,207.622040 440.798950,207.622040 429.997620,207.622040 
	C429.874329,206.149323 429.654114,204.716812 429.648865,203.283524 
	C429.471680,154.790237 429.278625,106.296936 429.181152,57.803455 
	C429.157349,45.952461 429.608185,48.311432 438.498169,47.888885 
	C444.143524,47.620552 449.817230,47.965328 455.478424,48.006504 
	C459.007904,48.032177 461.049438,49.314289 461.127472,53.291656 
	C461.227814,58.405716 461.787933,63.510754 462.243530,69.939438 
	C464.988281,67.786163 467.068359,66.338600 468.939575,64.658455 
	C493.667236,42.455860 531.749207,40.426830 557.105347,60.138103 
	C569.285767,69.606842 575.613647,82.366013 575.732727,97.655212 
	C576.016724,134.137436 575.824341,170.623367 575.824341,207.920212 
	C569.688599,207.920212 563.598816,207.920212 557.012207,207.920197 
z"/>
<path fill="#F5F7F1" opacity="1.000000" stroke="none" 
	d="
M851.063110,1004.055420 
	C851.154663,1001.235596 851.149902,998.899170 851.338135,996.578369 
	C851.525269,994.270386 851.906372,991.978210 852.303894,988.890625 
	C863.361938,988.890625 874.387451,988.890625 885.732300,988.890625 
	C885.864929,990.259644 886.077026,991.522766 886.097046,992.788879 
	C886.742554,1033.582886 887.436951,1074.376465 887.902527,1115.172485 
	C887.953369,1119.630249 889.016235,1121.086914 893.720947,1121.156860 
	C916.525085,1121.496460 939.322998,1122.261230 962.122742,1122.888062 
	C963.419861,1122.923706 964.713745,1123.073120 966.177979,1123.182251 
	C966.177979,1132.311768 966.177979,1141.217896 966.177979,1150.341797 
	C928.132263,1150.341797 890.412842,1150.341797 851.923462,1150.341797 
	C849.959106,1101.340820 850.593262,1052.942261 851.063110,1004.055420 
z"/>
<path fill="#5C822D" opacity="1.000000" stroke="none" 
	d="
M783.327271,361.679321 
	C813.593994,397.111572 832.733826,437.346619 840.145935,483.099976 
	C845.736084,517.606934 843.229370,551.657349 835.135559,585.496765 
	C833.806885,591.051453 831.512817,593.260010 825.398926,593.262268 
	C777.914795,593.279663 730.430420,593.656372 682.947388,594.069031 
	C678.613831,594.106689 677.546936,591.456543 676.927856,588.331360 
	C674.511536,576.135254 672.138428,563.927490 669.993530,551.681335 
	C665.041504,523.408081 660.191528,495.116791 655.375977,466.819885 
	C650.532349,438.357880 645.794250,409.877960 640.984314,381.410187 
	C636.533691,355.068756 632.024719,328.737122 627.595276,302.392151 
	C626.329834,294.865448 625.251892,287.307251 623.873779,278.375214 
	C688.197876,285.590698 740.805542,313.466614 783.327271,361.679321 
z"/>
<path fill="#5C822D" opacity="1.000000" stroke="none" 
	d="
M500.761780,298.733398 
	C522.064270,289.019196 544.014282,282.826508 566.733093,279.251923 
	C574.208862,278.075684 575.670471,279.666168 574.445923,287.016479 
	C568.910034,320.244293 563.511536,353.495087 557.945984,386.717865 
	C552.463501,419.444885 546.802551,452.141937 541.288147,484.863617 
	C535.801086,517.423279 530.353943,549.989868 524.986755,582.569458 
	C523.393127,592.243530 523.059509,592.966003 512.946289,593.052551 
	C465.801025,593.455750 418.653748,593.632446 371.509399,594.106995 
	C367.345734,594.148926 366.917542,591.581909 366.158508,588.993042 
	C359.234192,565.375061 356.043121,541.243408 356.620148,516.641479 
	C357.876312,463.082031 375.122833,415.097229 407.624023,372.662506 
	C432.353241,340.375214 463.321472,315.730774 500.761780,298.733398 
z"/>
<path fill="#5E832F" opacity="1.000000" stroke="none" 
	d="
M285.413971,925.681763 
	C274.022614,929.010559 263.674377,920.737793 262.994873,911.594910 
	C262.139313,900.082214 271.271606,890.068604 282.717712,889.998779 
	C293.456116,889.933289 294.102203,890.403564 293.928589,901.128418 
	C293.843140,906.405640 293.075562,911.681274 292.447021,916.937317 
	C291.953522,921.064148 289.583130,923.895264 285.413971,925.681763 
z"/>
<path fill="#5E832F" opacity="1.000000" stroke="none" 
	d="
M327.631531,853.011841 
	C331.141235,853.322632 333.766479,854.479980 333.919067,857.915466 
	C334.112610,862.272217 335.743317,867.669312 331.176758,870.255798 
	C328.450836,871.799683 324.246216,871.014038 320.751831,870.725220 
	C319.860931,870.651550 318.882812,868.573914 318.418030,867.250732 
	C317.937134,865.881653 317.959808,864.313904 317.886322,862.827026 
	C317.413574,853.263611 317.712555,852.959412 327.631531,853.011841 
z"/>
<path fill="#5D832E" opacity="1.000000" stroke="none" 
	d="
M539.002319,1018.038086 
	C551.814087,1018.353516 564.130615,1018.554626 576.436829,1019.026062 
	C584.158752,1019.321899 588.509888,1022.747131 589.057922,1030.322876 
	C589.689270,1039.051025 589.481201,1047.907959 588.783386,1056.640625 
	C588.304016,1062.639771 583.597595,1066.263794 576.453491,1066.916382 
	C568.683472,1067.625977 560.860474,1067.877319 553.054565,1068.041016 
	C543.898071,1068.233154 534.733154,1068.012817 525.576050,1068.189453 
	C522.455811,1068.249390 520.941711,1067.371094 520.955383,1064.048828 
	C521.012878,1050.075928 521.001221,1036.102295 520.916138,1022.129578 
	C520.895935,1018.813660 522.371155,1017.828857 525.514465,1017.984863 
	C529.834106,1018.199341 534.172485,1018.038330 539.002319,1018.038086 
z"/>
<path fill="#5D832E" opacity="1.000000" stroke="none" 
	d="
M351.859924,127.000397 
	C351.294952,138.951492 351.265869,150.463181 349.986511,161.834213 
	C349.032471,170.314240 344.501160,174.541962 336.104645,174.796448 
	C318.992645,175.315033 301.841248,175.354828 284.731598,174.801971 
	C275.380676,174.499832 270.338287,168.716461 270.129974,158.497559 
	C269.733307,139.036728 269.739990,119.556511 270.127991,100.095291 
	C270.338501,89.534714 275.474823,83.701035 286.077515,83.345963 
	C303.018280,82.778656 320.025757,83.149490 336.963593,83.974106 
	C345.982971,84.413208 350.548523,90.090324 350.970520,99.044769 
	C351.401520,108.190361 351.573578,117.348160 351.859924,127.000397 
z"/>
<path fill="#5E832F" opacity="1.000000" stroke="none" 
	d="
M702.742188,909.748779 
	C696.200500,907.990784 692.548523,904.370911 692.565979,897.653992 
	C692.604858,882.724060 692.578125,867.794006 692.578125,852.210083 
	C694.339966,852.058594 696.432068,851.682068 698.513428,851.734131 
	C706.974915,851.945801 715.432251,852.317078 723.892944,852.568604 
	C726.911377,852.658325 728.423828,853.948120 728.294861,857.107849 
	C727.754211,870.359619 727.703552,883.650085 726.593689,896.852417 
	C726.015991,903.724487 717.386169,909.496643 709.127869,909.973694 
	C707.142517,910.088318 705.140137,909.908386 702.742188,909.748779 
z"/>
<path fill="#5E832F" opacity="1.000000" stroke="none" 
	d="
M763.103394,811.542480 
	C765.183716,812.335388 766.963379,812.821594 768.547241,813.672424 
	C771.979858,815.516113 774.117554,818.275452 774.002319,822.405212 
	C773.884155,826.642639 770.857605,828.532898 767.553284,829.721741 
	C761.142334,832.028625 754.505859,832.338501 748.073608,829.881775 
	C741.175232,827.246948 740.015076,820.717041 745.508850,815.753784 
	C750.406128,811.329468 756.327209,810.280273 763.103394,811.542480 
z"/>
<path fill="#5D822E" opacity="1.000000" stroke="none" 
	d="
M704.819458,1046.995117 
	C704.864319,1039.178711 705.090271,1031.857056 704.920837,1024.544678 
	C704.841064,1021.099792 706.496033,1019.327942 709.453552,1019.299744 
	C726.204712,1019.140381 742.966431,1018.939880 759.702148,1019.467224 
	C762.489441,1019.554993 766.157166,1022.569031 767.717773,1025.228638 
	C773.596497,1035.247070 774.511780,1046.242676 771.742188,1057.439575 
	C770.645569,1061.872925 767.567993,1064.691895 763.016663,1066.077393 
	C751.306519,1069.642090 739.382080,1071.352539 727.144409,1071.019409 
	C722.655518,1070.897217 718.157471,1071.101685 713.669189,1070.968506 
	C709.149780,1070.834595 705.647644,1069.699829 705.742676,1063.896362 
	C705.832153,1058.435181 705.169983,1052.961670 704.819458,1046.995117 
z"/>
</svg>