<svg version="1.1" id="Layer_1" xmlns="http://www.w3.org/2000/svg" xmlns:xlink="http://www.w3.org/1999/xlink" x="0px" y="0px"
	 width="100%" viewBox="0 0 227 222" enable-background="new 0 0 227 222" xml:space="preserve">
<path fill="#134580" opacity="1.000000" stroke="none" 
	d="
M39.000000,223.000000 
	C26.340921,223.000000 13.681844,223.000000 1.017074,223.000000 
	C1.011383,149.051926 1.011383,75.103844 1.011383,1.077881 
	C76.569344,1.077881 152.138794,1.077881 227.854126,1.077881 
	C227.854126,74.999786 227.854126,148.999863 227.854126,223.000000 
	C220.929214,223.000000 213.933395,223.000000 206.488861,222.619415 
	C206.738754,220.384125 207.769882,218.576782 208.042877,216.661392 
	C208.318634,214.726578 207.842957,212.684677 207.696472,210.689697 
	C205.850983,210.917130 204.010361,211.205017 202.158554,211.353836 
	C200.525833,211.485062 198.601929,212.044769 197.283890,211.415512 
	C183.469025,204.820114 171.948669,210.476776 165.000000,223.000000 
	C157.645752,223.000000 150.291504,223.000000 142.468414,222.539948 
	C141.999420,220.257233 142.006912,218.434494 141.997772,216.611862 
	C141.960617,209.205200 141.073807,208.838242 133.765503,206.767883 
	C125.222084,204.347656 117.013878,207.055145 108.675323,207.325317 
	C104.860886,207.448914 104.318878,211.303192 104.428612,214.607819 
	C104.521622,217.408447 104.802345,220.202850 105.000000,223.000000 
	C95.979103,223.000000 86.958214,223.000000 77.468842,222.547089 
	C77.069244,219.449036 76.672562,216.685303 77.309395,214.184814 
	C78.438278,209.752274 76.345406,208.841980 72.698044,209.003937 
	C65.510475,209.323074 58.314728,209.520676 51.137577,209.997543 
	C38.994034,210.804398 38.999004,210.879181 39.000000,223.000000 
M147.595886,37.591232 
	C147.064514,37.387012 146.533127,37.182793 145.970612,36.512096 
	C145.970612,36.512096 145.951248,36.044987 145.701828,35.649578 
	C145.502975,35.403126 145.261642,35.209682 144.314194,35.065395 
	C143.871826,35.057991 143.429459,35.050587 142.626617,34.466305 
	C141.417923,33.984573 140.209229,33.502842 138.997009,33.006470 
	C138.997009,33.006470 138.977356,33.006580 138.948273,32.266113 
	C136.639603,25.893333 131.629471,24.521954 126.172050,28.993269 
	C125.123253,28.996494 124.074448,28.999718 122.503242,28.492281 
	C119.202667,28.082941 115.843391,27.933859 112.614738,27.205635 
	C107.250580,25.995747 105.724663,26.732073 104.069817,32.063354 
	C104.069817,32.063354 104.143082,32.068909 103.730598,32.249481 
	C103.464226,32.395176 103.233498,32.584347 102.394951,33.030907 
	C101.563705,33.356197 100.732452,33.681484 99.129639,34.004898 
	C89.358063,35.645927 84.790932,42.438702 81.722626,51.052952 
	C80.871834,53.441559 78.394768,55.202686 77.124664,57.505829 
	C76.156082,59.262215 75.369766,61.445282 75.460136,63.394115 
	C75.672867,67.981659 76.557999,72.533699 76.969711,77.118187 
	C77.171745,79.367836 77.479294,81.146393 80.258232,80.780052 
	C80.258232,80.780052 80.222763,80.681854 80.317856,81.169960 
	C80.426521,81.489586 80.601891,81.767036 81.055786,82.595093 
	C81.127899,83.007156 81.200012,83.419220 80.761353,84.380226 
	C79.709457,91.707397 82.848854,96.575554 89.437668,97.385414 
	C89.527061,97.787270 89.616463,98.189125 89.454239,99.204742 
	C89.015915,104.506538 89.717300,105.025970 97.612228,104.998344 
	C97.953316,105.100800 98.123734,105.330124 98.084038,106.361954 
	C98.074738,106.587379 98.065445,106.812813 98.300346,107.382225 
	C98.483330,107.599014 98.697624,107.778412 99.342094,108.380989 
	C98.977226,109.783623 98.612350,111.186264 98.295830,112.403008 
	C101.610443,117.256180 105.799492,115.696930 109.789986,114.653748 
	C106.431297,117.462364 105.512390,123.849182 98.315453,121.559204 
	C94.567856,121.402679 90.820259,121.246147 86.299606,121.065063 
	C83.534737,121.357925 80.769867,121.650787 77.960739,121.200363 
	C76.964844,119.590714 75.968941,117.981064 74.973045,116.371414 
	C73.594269,118.407280 72.215500,120.443146 70.733025,122.777184 
	C70.733025,122.777184 70.427818,122.857834 69.921425,122.442650 
	C69.248520,123.824852 68.144051,125.184532 68.070320,126.597992 
	C68.028473,127.400261 69.674919,128.290588 70.387810,129.801270 
	C70.145752,130.185242 69.903694,130.569214 69.048309,131.230850 
	C63.791874,134.016998 63.746948,138.800934 64.338058,143.856949 
	C64.338058,143.856949 64.282158,143.967728 63.548153,144.197708 
	C63.120106,145.573044 62.692059,146.948395 62.220398,148.116867 
	C62.220398,148.116867 62.429798,148.087845 61.868629,148.475906 
	C61.658649,149.092560 61.448669,149.709198 61.242340,150.221619 
	C61.242340,150.221619 61.344101,150.244461 60.607006,149.960861 
	C59.750546,148.322571 58.230156,146.714355 58.154305,145.040680 
	C57.850540,138.338165 57.995029,131.615341 57.955772,124.140381 
	C56.329651,122.131706 55.063747,119.275932 52.963284,118.382751 
	C51.286873,117.669884 47.071209,118.795723 46.612572,120.059685 
	C44.508690,125.857796 41.550282,123.950020 38.182285,121.802750 
	C36.502018,120.731499 34.814766,119.638016 33.021091,118.785004 
	C29.681925,117.197006 27.530182,118.756378 26.702204,123.741798 
	C26.473047,126.209000 26.071287,128.674606 26.048328,131.143707 
	C25.988525,137.575256 26.377167,144.023529 26.032099,150.435257 
	C25.814970,154.469818 27.952938,157.762131 32.252316,158.284256 
	C36.178074,158.761002 39.115845,156.047180 39.058147,151.697433 
	C39.021702,148.949921 38.568962,146.207916 38.145245,141.836395 
	C39.631878,144.172974 40.271000,145.354889 41.076366,146.409882 
	C43.445477,149.513275 43.988167,154.300385 49.443081,155.616608 
	C51.997135,155.750610 54.551186,155.884613 57.645618,155.739090 
	C58.182522,155.455002 58.719429,155.170898 59.974129,155.156464 
	C63.547001,156.767609 66.728531,156.696976 69.864655,152.879181 
	C74.681122,151.439957 78.965302,151.137878 82.455315,156.046158 
	C84.874283,159.448151 88.189262,159.479630 91.656807,155.786301 
	C95.383804,153.361328 92.895622,150.984558 91.563522,148.649338 
	C88.595764,143.446823 86.502327,138.023071 86.863075,131.863327 
	C90.298073,134.890213 94.231445,137.230362 94.336517,142.640396 
	C94.384491,145.110275 96.057182,147.548584 96.949982,150.775391 
	C96.633362,153.758713 94.502563,157.194977 99.513054,159.435501 
	C102.330200,159.280869 105.147339,159.126236 107.965248,158.505524 
	C107.965248,158.505524 107.955719,158.039551 108.431961,157.545914 
	C109.682129,157.000412 110.932304,156.454910 112.600822,155.945175 
	C112.600822,155.945175 113.017700,155.995300 113.035194,156.594421 
	C114.724091,157.373322 116.412979,158.152206 118.707138,158.905975 
	C119.110931,158.899323 119.514717,158.892670 120.365067,159.244217 
	C121.961891,159.604431 124.217308,156.741074 125.343040,160.412216 
	C125.498787,160.920105 128.738495,160.482300 130.550491,160.482300 
	C130.553482,160.090103 130.556473,159.697906 130.559464,159.305710 
	C128.686417,157.861420 126.813354,156.417130 125.043358,154.355606 
	C125.355141,153.583389 125.666924,152.811188 126.056343,151.511215 
	C126.086090,151.336212 126.115829,151.161194 126.910973,150.996948 
	C127.927948,150.992081 128.944931,150.987198 130.439362,151.468079 
	C132.628784,152.975677 134.818192,154.483292 137.164703,156.694489 
	C138.967407,159.520477 140.874405,160.301468 143.802094,157.005051 
	C145.379044,157.411163 146.987564,157.723267 148.527359,158.240097 
	C154.341171,160.191589 156.976334,159.237366 160.543457,154.266006 
	C161.147034,153.424820 162.830994,153.358856 164.668320,153.166260 
	C169.034592,157.653397 174.100632,159.247253 180.873413,156.949371 
	C184.062683,156.391418 187.033188,155.511139 188.979172,151.985046 
	C193.821472,152.246582 199.151733,151.321518 201.703339,157.218262 
	C201.738953,157.300552 202.545242,157.049332 203.696716,156.859070 
	C205.421860,156.278534 207.147003,155.697998 209.277603,154.737976 
	C209.130585,153.670807 208.983551,152.603638 208.918533,150.575562 
	C210.732025,141.696259 203.771103,135.862350 201.137192,128.530746 
	C200.506409,126.775002 198.483856,125.519279 196.794815,123.521103 
	C196.817078,123.126938 196.839325,122.732780 196.818176,121.579811 
	C195.678299,120.144043 194.662094,117.632225 193.374191,117.484184 
	C190.145813,117.113083 187.303940,118.609749 185.299759,121.884964 
	C182.761444,120.990128 181.332535,121.614189 180.939285,124.541222 
	C180.775574,125.759850 179.678879,126.853119 178.835724,127.429115 
	C177.555283,127.286659 176.274841,127.144203 174.950302,126.421104 
	C173.721527,125.884598 172.492752,125.348083 171.086792,124.091110 
	C170.813705,123.326477 170.773285,122.205177 170.231827,121.851936 
	C164.276093,117.966591 157.674652,118.779678 151.134674,119.545769 
	C150.667923,119.600441 150.339523,120.836296 149.624359,122.160110 
	C149.472992,123.095779 149.321609,124.031448 148.617249,124.981285 
	C148.432922,124.979713 148.248596,124.978142 148.045197,124.216560 
	C148.010803,123.457115 147.976410,122.697678 147.699158,121.577621 
	C147.511063,121.352119 147.289185,121.167122 146.391205,120.797440 
	C146.578079,118.500206 146.764954,116.202972 147.049179,112.708961 
	C145.382828,112.265015 142.357224,111.458939 139.331619,110.652863 
	C139.003464,111.114090 138.675308,111.575325 138.347137,112.036552 
	C140.233414,116.690254 142.119675,121.343964 143.295868,125.870438 
	C141.745239,124.404541 140.247375,122.877136 138.629944,121.489082 
	C136.809570,119.926872 134.881378,118.490303 133.139145,116.243942 
	C133.423859,114.207733 133.708572,112.171516 134.690262,109.959709 
	C137.666199,107.931099 140.642136,105.902489 144.345001,103.998398 
	C146.389664,103.410599 149.713821,103.389862 150.267227,102.141159 
	C153.396072,95.081406 160.777405,89.627403 159.296875,79.925011 
	C159.491791,75.638687 159.686707,71.352371 160.380371,66.460716 
	C161.209320,58.422817 159.708664,51.074966 153.870346,44.328995 
	C152.578079,43.213619 151.285797,42.098248 149.973389,40.516685 
	C149.973389,40.516685 149.962418,40.050194 149.829529,39.444065 
	C149.220337,38.961121 148.611160,38.478176 148.000000,38.000000 
	C148.000000,38.000000 148.003830,37.998173 147.595886,37.591232 
z"/>
<path fill="#184B82" opacity="1.000000" stroke="none" 
	d="
M105.468658,223.000000 
	C104.802345,220.202850 104.521622,217.408447 104.428612,214.607819 
	C104.318878,211.303192 104.860886,207.448914 108.675323,207.325317 
	C117.013878,207.055145 125.222084,204.347656 133.765503,206.767883 
	C141.073807,208.838242 141.960617,209.205200 141.997772,216.611862 
	C142.006912,218.434494 141.999420,220.257233 141.999786,222.539948 
	C129.979111,223.000000 117.958214,223.000000 105.468658,223.000000 
z"/>
<path fill="#184984" opacity="1.000000" stroke="none" 
	d="
M39.468658,223.000000 
	C38.999004,210.879181 38.994034,210.804398 51.137577,209.997543 
	C58.314728,209.520676 65.510475,209.323074 72.698044,209.003937 
	C76.345406,208.841980 78.438278,209.752274 77.309395,214.184814 
	C76.672562,216.685303 77.069244,219.449036 77.000183,222.547089 
	C64.645775,223.000000 52.291546,223.000000 39.468658,223.000000 
z"/>
<path fill="#184A84" opacity="1.000000" stroke="none" 
	d="
M165.468658,223.000000 
	C171.948669,210.476776 183.469025,204.820114 197.283890,211.415512 
	C198.601929,212.044769 200.525833,211.485062 202.158554,211.353836 
	C204.010361,211.205017 205.850983,210.917130 207.696472,210.689697 
	C207.842957,212.684677 208.318634,214.726578 208.042877,216.661392 
	C207.769882,218.576782 206.738754,220.384125 206.020081,222.619415 
	C192.645767,223.000000 179.291550,223.000000 165.468658,223.000000 
z"/>
<path fill="#EAF7F8" opacity="1.000000" stroke="none" 
	d="
M149.170242,124.967117 
	C149.321609,124.031448 149.472992,123.095779 150.250671,121.914330 
	C157.850616,121.708786 164.965652,120.985321 171.233978,125.819099 
	C174.877899,132.079102 173.806824,136.218109 167.126129,142.369507 
	C168.768036,144.526901 170.413681,146.689209 172.038147,149.218262 
	C172.184982,154.095581 169.079620,151.868317 166.976196,151.908752 
	C166.846283,151.846664 166.826462,151.559372 166.718414,151.262756 
	C166.306793,150.683563 166.003235,150.400970 165.431885,149.938934 
	C163.790070,148.132050 162.416031,146.504623 160.956909,144.504623 
	C159.502808,143.759796 158.133789,143.387512 156.124176,142.841049 
	C156.124176,147.301758 156.124176,150.874695 156.124176,155.196960 
	C153.425430,154.749527 151.274048,154.392853 149.198761,153.571045 
	C149.214005,144.063873 149.153152,135.021805 149.194458,125.732941 
	C149.254486,125.313133 149.212372,125.140121 149.170242,124.967117 
M156.938583,128.940613 
	C156.938583,128.940613 156.935745,128.819626 156.437607,129.023834 
	C156.331741,129.335709 156.225891,129.647568 155.979904,130.646622 
	C156.028671,131.109100 156.077438,131.571594 155.997513,132.860443 
	C155.724030,137.125275 156.590271,138.758514 161.689468,137.348389 
	C165.148300,136.391891 166.254425,134.402679 167.588760,131.312973 
	C165.231842,127.694748 161.731171,127.552063 157.448380,128.095398 
	C157.238113,128.376389 157.027847,128.657364 156.938583,128.940613 
z"/>
<path fill="#E9F5F7" opacity="1.000000" stroke="none" 
	d="
M69.661629,130.953186 
	C69.903694,130.569214 70.145752,130.185242 70.648750,129.181870 
	C70.749062,126.660927 70.588440,124.759377 70.427818,122.857834 
	C70.427818,122.857834 70.733025,122.777184 71.100235,122.434181 
	C72.964607,122.068314 74.461761,122.045448 76.145233,122.332504 
	C81.168503,133.312210 86.005463,143.981995 90.430801,154.740219 
	C86.425934,155.432449 84.108894,153.754898 81.128624,151.699417 
	C78.227196,149.698318 73.317383,150.609207 69.289383,150.241516 
	C69.217995,151.173904 69.146606,152.106293 69.075226,153.038681 
	C66.728531,156.696976 63.547001,156.767609 59.763161,154.730240 
	C60.149494,152.950836 60.746799,151.597641 61.344101,150.244461 
	C61.344101,150.244461 61.242340,150.221619 61.527889,150.099930 
	C62.018890,149.348114 62.224342,148.717972 62.429794,148.087845 
	C62.429798,148.087845 62.220398,148.116867 62.501507,147.983765 
	C63.282463,146.556366 63.782307,145.262039 64.282158,143.967728 
	C64.282158,143.967728 64.338058,143.856949 64.571266,143.561066 
	C66.423523,139.161179 68.042580,135.057175 69.661629,130.953186 
M73.807861,139.486893 
	C74.125877,140.327988 74.443893,141.169067 75.206390,143.185745 
	C75.544266,139.742981 75.738792,137.760788 75.933327,135.778595 
	C75.648438,135.727768 75.363548,135.676941 75.078659,135.626099 
	C74.665024,136.660141 74.251389,137.694183 73.807861,139.486893 
z"/>
<path fill="#E0EAEF" opacity="1.000000" stroke="none" 
	d="
M208.836517,151.536469 
	C208.983551,152.603638 209.130585,153.670807 208.688599,154.867859 
	C206.357346,155.229950 204.615082,155.462173 202.622040,155.498413 
	C201.584900,153.512543 200.798523,151.722641 199.921555,149.576141 
	C196.785065,146.303604 190.530151,146.793915 189.026611,150.286530 
	C188.744827,150.827805 188.473526,150.999527 187.763275,151.007095 
	C185.914108,149.315811 184.414261,147.647018 182.915497,145.682175 
	C183.012894,144.805969 183.109207,144.225830 183.442749,143.502029 
	C183.823853,143.241943 183.967697,143.125488 184.270874,142.809875 
	C184.565765,142.297546 184.701309,141.984406 184.796967,141.669769 
	C184.757080,141.668274 184.749924,141.588760 185.127350,141.662476 
	C190.416397,140.218338 192.144226,135.169739 188.899780,131.572678 
	C189.082077,129.081421 189.218842,126.966759 189.306534,124.469093 
	C191.792175,123.503601 194.326874,122.921104 196.861572,122.338615 
	C196.839325,122.732780 196.817078,123.126938 196.977966,124.132294 
	C201.052917,133.674484 204.944717,142.605469 208.836517,151.536469 
M193.467087,144.501556 
	C193.467087,144.501556 193.513794,144.483994 193.467087,144.501556 
z"/>
<path fill="#EDF8F8" opacity="1.000000" stroke="none" 
	d="
M98.123489,105.686310 
	C98.123734,105.330124 97.953316,105.100800 97.311951,104.644165 
	C95.992233,103.226852 94.972786,102.163719 94.109741,100.821915 
	C95.163811,99.439575 96.061485,98.335899 97.330688,97.143066 
	C103.067879,93.349487 108.433525,89.645050 114.164932,86.013336 
	C114.995369,85.924965 115.460052,85.763878 116.121681,85.910675 
	C119.851860,88.475441 123.385109,90.732315 126.728317,93.217712 
	C125.692902,93.974625 124.847511,94.502998 123.641602,95.076691 
	C119.647362,97.036560 115.976517,98.884598 112.391029,100.885590 
	C109.217697,102.656555 109.169647,104.800713 111.974884,107.400818 
	C111.973679,108.414375 111.962433,109.090065 111.573334,109.775940 
	C106.838150,108.419518 102.480820,107.052917 98.123489,105.686310 
z"/>
<path fill="#244C76" opacity="1.000000" stroke="none" 
	d="
M90.842415,154.651779 
	C86.005463,143.981995 81.168503,133.312210 76.485977,122.316040 
	C77.095276,121.974319 77.550133,121.958984 78.004997,121.943649 
	C80.769867,121.650787 83.534737,121.357925 86.878738,121.289810 
	C87.770393,121.739349 88.082924,121.964134 88.292969,122.517303 
	C89.349548,124.731071 90.508614,126.616470 91.643570,128.856995 
	C96.396324,134.565277 100.296707,140.255753 98.570488,148.092255 
	C97.857491,148.787735 97.425240,149.394485 96.992981,150.001221 
	C96.057182,147.548584 94.384491,145.110275 94.336517,142.640396 
	C94.231445,137.230362 90.298073,134.890213 86.863075,131.863327 
	C86.502327,138.023071 88.595764,143.446823 91.563522,148.649338 
	C92.895622,150.984558 95.383804,153.361328 91.295135,155.550018 
	C90.903122,155.093109 90.872772,154.872452 90.842415,154.651779 
z"/>
<path fill="#285079" opacity="1.000000" stroke="none" 
	d="
M27.039865,122.970955 
	C27.530182,118.756378 29.681925,117.197006 33.021091,118.785004 
	C34.814766,119.638016 36.502018,120.731499 38.182285,121.802750 
	C41.550282,123.950020 44.508690,125.857796 46.612572,120.059685 
	C47.071209,118.795723 51.286873,117.669884 52.963284,118.382751 
	C55.063747,119.275932 56.329651,122.131706 57.722668,124.557114 
	C57.489563,124.973839 57.004154,125.040764 56.930870,125.127823 
	C56.857582,125.214882 56.672264,125.081337 56.778927,124.777451 
	C56.597950,123.965508 56.310310,123.457451 55.684361,122.788040 
	C51.224586,121.684952 49.189270,122.801537 49.587650,127.542305 
	C49.968403,132.073318 49.669781,136.661438 49.669781,141.342484 
	C45.929287,136.338211 42.094803,131.764618 38.912987,126.774826 
	C36.378551,122.800301 33.489964,121.279350 28.723846,123.026054 
	C27.937815,122.999428 27.488840,122.985191 27.039865,122.970955 
z"/>
<path fill="#C3E6EC" opacity="1.000000" stroke="none" 
	d="
M159.881622,67.066048 
	C159.686707,71.352371 159.491791,75.638687 158.817017,80.533035 
	C156.619781,84.889900 155.183975,88.809074 153.063644,92.314178 
	C152.036484,94.012161 149.725449,94.933510 148.023285,95.842636 
	C148.340820,94.336159 148.630737,93.193527 149.092819,91.759941 
	C149.551865,90.392990 149.838745,89.316994 150.471100,88.180161 
	C151.600769,87.131958 152.384979,86.144592 153.486877,84.998833 
	C154.846802,81.195351 155.889038,77.550270 156.968399,73.481781 
	C156.960205,71.082901 156.914871,69.107422 156.857391,66.732712 
	C155.280121,62.156425 153.715012,57.979389 152.050720,53.466396 
	C150.632187,51.735802 149.312866,50.341164 147.710205,48.761314 
	C145.492798,43.893719 141.525955,42.300678 137.205750,41.483849 
	C140.094894,40.840973 142.705780,40.381821 145.615326,40.014336 
	C147.286911,41.358330 148.659805,42.610657 150.129913,44.104774 
	C150.492966,44.562328 150.758835,44.778088 151.058701,45.262505 
	C151.361664,45.755505 151.630615,45.979855 152.037338,46.512589 
	C154.743958,53.569328 157.312790,60.317688 159.881622,67.066048 
z"/>
<path fill="#25486B" opacity="1.000000" stroke="none" 
	d="
M26.871035,123.356377 
	C27.488840,122.985191 27.937815,122.999428 28.742992,123.491028 
	C29.099195,134.206223 29.099195,144.444061 29.099195,154.629364 
	C31.812490,154.629364 33.735905,154.629364 36.122849,154.629364 
	C36.122849,148.312210 36.122849,142.276413 36.122849,135.032440 
	C41.003826,142.000534 45.156158,147.928406 49.225540,154.151962 
	C49.079254,154.642349 49.015915,154.837051 48.952579,155.031738 
	C43.988167,154.300385 43.445477,149.513275 41.076366,146.409882 
	C40.271000,145.354889 39.631878,144.172974 38.145245,141.836395 
	C38.568962,146.207916 39.021702,148.949921 39.058147,151.697433 
	C39.115845,156.047180 36.178074,158.761002 32.252316,158.284256 
	C27.952938,157.762131 25.814970,154.469818 26.032099,150.435257 
	C26.377167,144.023529 25.988525,137.575256 26.048328,131.143707 
	C26.071287,128.674606 26.473047,126.209000 26.871035,123.356377 
z"/>
<path fill="#214872" opacity="1.000000" stroke="none" 
	d="
M149.122681,154.036163 
	C151.274048,154.392853 153.425430,154.749527 156.124176,155.196960 
	C156.124176,150.874695 156.124176,147.301758 156.124176,142.841049 
	C158.133789,143.387512 159.502808,143.759796 160.949417,144.896149 
	C162.023254,148.085052 163.019531,150.509888 164.015793,152.934723 
	C162.830994,153.358856 161.147034,153.424820 160.543457,154.266006 
	C156.976334,159.237366 154.341171,160.191589 148.527359,158.240097 
	C146.987564,157.723267 145.379044,157.411163 143.217468,156.817749 
	C142.513565,156.510117 142.394302,156.389755 142.477585,156.017654 
	C145.009460,154.834442 145.547531,153.736633 144.381210,151.075150 
	C141.820984,145.232880 139.898010,139.111359 138.106567,133.114624 
	C139.348892,134.315552 140.144760,135.549820 141.060974,136.687103 
	C143.303665,139.470901 145.601944,142.209915 147.911621,145.409760 
	C148.337814,148.580444 148.730255,151.308304 149.122681,154.036163 
z"/>
<path fill="#134780" opacity="1.000000" stroke="none" 
	d="
M147.877869,144.966949 
	C145.601944,142.209915 143.303665,139.470901 141.060974,136.687103 
	C140.144760,135.549820 139.348892,134.315552 137.792603,132.928894 
	C135.671829,129.279526 134.256729,125.826653 132.862732,122.012192 
	C132.922577,120.100098 132.961334,118.549591 133.000076,116.999084 
	C134.881378,118.490303 136.809570,119.926872 138.629944,121.489082 
	C140.247375,122.877136 141.745239,124.404541 143.931320,126.070518 
	C145.668915,127.186073 146.771072,128.101547 147.891129,129.481964 
	C147.898651,134.953568 147.888260,139.960266 147.877869,144.966949 
z"/>
<path fill="#214872" opacity="1.000000" stroke="none" 
	d="
M96.971481,150.388306 
	C97.425240,149.394485 97.857491,148.787735 98.662308,148.513794 
	C99.051674,149.672913 98.798363,150.638672 99.138741,151.297882 
	C99.971588,152.910858 100.885880,155.477554 102.113617,155.693695 
	C105.125069,156.223846 106.309227,154.080154 106.049019,151.071747 
	C105.878761,149.103210 106.272942,147.071213 105.989159,145.129776 
	C104.971352,138.166458 108.599091,133.427094 113.126747,128.892822 
	C114.216576,127.801392 114.943924,125.726326 114.764931,124.232170 
	C114.664047,123.390083 112.373505,122.810318 111.031906,122.032974 
	C110.994461,121.953560 110.909904,121.799652 111.064911,121.493423 
	C112.706917,121.185616 114.203613,121.079659 115.677773,121.216476 
	C116.797447,121.320389 117.888458,121.733208 118.991898,122.381081 
	C118.990807,123.498482 118.990036,124.243385 118.860291,125.245209 
	C117.250938,128.639648 115.860016,131.823410 114.267586,134.902985 
	C112.267555,138.770813 108.534157,142.482269 108.357285,146.388382 
	C108.052757,153.113708 107.712669,158.390427 99.390434,158.686020 
	C99.256248,158.690765 99.128471,158.875931 98.997711,158.976913 
	C94.502563,157.194977 96.633362,153.758713 96.971481,150.388306 
z"/>
<path fill="#C4E2EE" opacity="1.000000" stroke="none" 
	d="
M96.959160,97.232216 
	C96.061485,98.335899 95.163811,99.439575 93.795151,100.726990 
	C92.118065,100.137474 90.911957,99.364227 89.705856,98.590981 
	C89.616463,98.189125 89.527061,97.787270 89.057625,96.891991 
	C86.209099,92.209473 83.740608,88.020378 81.272125,83.831284 
	C81.200012,83.419220 81.127899,83.007156 80.976891,82.029510 
	C80.672920,81.203239 80.447838,80.942551 80.222763,80.681854 
	C80.222763,80.681854 80.258232,80.780052 80.283028,80.336349 
	C77.821144,66.848618 80.007515,54.942501 88.951675,44.988029 
	C89.337723,45.873165 89.657852,46.436172 89.956253,47.356918 
	C89.965981,48.190132 89.997429,48.665607 89.839737,49.422424 
	C88.087799,52.694843 86.525002,55.685913 84.638123,58.801670 
	C83.921997,59.911362 83.529945,60.896366 82.935020,62.266644 
	C83.093307,68.603836 83.454468,74.555756 83.765945,80.818924 
	C84.022293,82.092659 84.328339,83.055168 84.711792,84.380043 
	C87.658867,88.812775 90.432419,92.958252 93.495377,96.877556 
	C93.990524,97.511131 95.772186,97.139305 96.959160,97.232216 
z"/>
<path fill="#174580" opacity="1.000000" stroke="none" 
	d="
M99.255386,159.206207 
	C99.128471,158.875931 99.256248,158.690765 99.390434,158.686020 
	C107.712669,158.390427 108.052757,153.113708 108.357285,146.388382 
	C108.534157,142.482269 112.267555,138.770813 114.267586,134.902985 
	C115.860016,131.823410 117.250938,128.639648 119.249741,125.256287 
	C122.821350,125.025391 123.492340,126.875793 122.611633,129.272903 
	C121.831322,131.396759 120.262924,133.238266 119.539993,135.372925 
	C119.186867,136.415634 119.966270,137.841858 120.071533,139.409302 
	C119.576698,140.799072 119.243393,141.874008 118.629044,143.061462 
	C117.934425,143.797211 117.520851,144.420471 116.900360,144.838776 
	C115.974663,141.385925 113.977287,141.803772 112.237564,143.441147 
	C109.886856,145.653564 110.933372,150.060959 114.001663,152.360901 
	C113.389862,153.761169 112.786171,154.835297 112.182480,155.909409 
	C110.932304,156.454910 109.682129,157.000412 108.097015,157.893829 
	C107.639351,158.527008 107.706825,158.770294 107.964485,158.971588 
	C105.147339,159.126236 102.330200,159.280869 99.255386,159.206207 
z"/>
<path fill="#174580" opacity="1.000000" stroke="none" 
	d="
M118.992218,122.008583 
	C117.888458,121.733208 116.797447,121.320389 115.677773,121.216476 
	C114.203613,121.079659 112.706917,121.185616 110.772011,121.446854 
	C109.059303,122.264366 107.521210,122.535637 106.580170,123.433006 
	C103.578575,126.295280 101.435692,125.982452 98.989899,122.017731 
	C105.512390,123.849182 106.431297,117.462364 110.232666,114.262177 
	C112.939026,113.905090 115.573219,113.199226 117.397285,114.112106 
	C122.989937,116.911064 123.633926,116.798409 124.685501,110.645386 
	C124.718277,110.644028 124.741844,110.705505 125.070511,110.787369 
	C125.622017,110.905807 125.844841,110.942383 126.390343,110.971664 
	C127.138641,111.003204 127.564270,111.042038 128.066483,111.453827 
	C127.909164,114.059441 128.498383,117.227158 127.259262,118.317955 
	C125.096565,120.221779 121.808594,120.847321 118.992218,122.008583 
z"/>
<path fill="#234D73" opacity="1.000000" stroke="none" 
	d="
M88.885750,44.665897 
	C80.007515,54.942501 77.821144,66.848618 80.328430,80.310577 
	C77.479294,81.146393 77.171745,79.367836 76.969711,77.118187 
	C76.557999,72.533699 75.672867,67.981659 75.460136,63.394115 
	C75.369766,61.445282 76.156082,59.262215 77.124664,57.505829 
	C78.394768,55.202686 80.871834,53.441559 81.722626,51.052952 
	C84.790932,42.438702 89.358063,35.645927 99.381638,34.311375 
	C96.051010,37.967201 92.468376,41.316551 88.885750,44.665897 
z"/>
<path fill="#184777" opacity="1.000000" stroke="none" 
	d="
M174.994400,127.001747 
	C176.274841,127.144203 177.555283,127.286659 178.919556,128.162338 
	C179.650986,132.380692 177.082932,136.826324 182.028915,139.358551 
	C182.031830,140.132507 182.035507,140.575226 181.822861,141.261139 
	C179.428436,144.664200 177.250336,147.824051 174.886597,150.755463 
	C174.140182,149.981934 173.579376,149.436844 173.007111,148.523254 
	C172.567352,146.001648 171.034988,142.736298 171.895752,141.881866 
	C176.380341,137.430359 174.537720,132.042206 174.994400,127.001747 
z"/>
<path fill="#1A4678" opacity="1.000000" stroke="none" 
	d="
M124.652733,110.646744 
	C123.633926,116.798409 122.989937,116.911064 117.397285,114.112106 
	C115.573219,113.199226 112.939026,113.905090 110.340057,113.937149 
	C105.799492,115.696930 101.610443,117.256180 98.295830,112.403008 
	C98.612350,111.186264 98.977226,109.783623 99.018677,107.982162 
	C98.509804,107.369293 98.296776,107.187599 98.056152,107.038239 
	C98.065445,106.812813 98.074738,106.587379 98.103760,106.024132 
	C102.480820,107.052917 106.838150,108.419518 111.970612,109.915878 
	C116.714745,110.246002 120.683739,110.446373 124.652733,110.646744 
z"/>
<path fill="#BCE8E6" opacity="1.000000" stroke="none" 
	d="
M88.951675,44.988029 
	C92.468376,41.316551 96.051010,37.967201 99.767426,34.312309 
	C100.732452,33.681484 101.563705,33.356197 102.969986,32.939316 
	C103.744385,32.588120 103.943733,32.328514 104.143082,32.068909 
	C104.143082,32.068909 104.069817,32.063354 104.495178,32.096260 
	C110.948280,31.424990 116.976013,30.720810 123.346985,30.162495 
	C125.842720,30.835348 127.995216,31.362341 129.898834,32.144283 
	C129.390564,33.300659 129.131149,34.202084 128.567459,34.928757 
	C125.835915,34.531700 123.408646,34.309395 120.654541,34.034908 
	C119.889732,34.021782 119.451752,34.060837 118.668289,33.901733 
	C110.916069,32.011635 104.958214,35.514587 98.717842,39.126942 
	C97.638847,39.816483 96.861794,40.466320 95.783691,41.251160 
	C93.647758,43.257168 91.812874,45.128174 89.977982,46.999184 
	C89.657852,46.436172 89.337723,45.873165 88.951675,44.988029 
z"/>
<path fill="#1A4678" opacity="1.000000" stroke="none" 
	d="
M118.991898,122.381081 
	C121.808594,120.847321 125.096565,120.221779 127.259262,118.317955 
	C128.498383,117.227158 127.909164,114.059441 128.397095,111.245277 
	C130.431839,110.487625 132.212555,110.311462 133.993286,110.135300 
	C133.708572,112.171516 133.423859,114.207733 133.069611,116.621513 
	C132.961334,118.549591 132.922577,120.100098 132.441681,122.006882 
	C129.771698,122.363159 127.543877,122.363159 126.138016,122.363159 
	C125.686905,125.790352 125.343269,128.401077 124.696411,131.187958 
	C123.006485,133.940918 121.619774,136.517700 120.233063,139.094498 
	C119.966270,137.841858 119.186867,136.415634 119.539993,135.372925 
	C120.262924,133.238266 121.831322,131.396759 122.611633,129.272903 
	C123.492340,126.875793 122.821350,125.025391 119.378723,124.999359 
	C118.990036,124.243385 118.990807,123.498482 118.991898,122.381081 
z"/>
<path fill="#C8E9EE" opacity="1.000000" stroke="none" 
	d="
M134.341766,110.047501 
	C132.212555,110.311462 130.431839,110.487625 128.320496,110.872330 
	C127.564270,111.042038 127.138641,111.003204 126.277962,110.780090 
	C125.475891,110.632378 125.108864,110.668945 124.741844,110.705505 
	C124.741844,110.705505 124.718277,110.644028 124.685501,110.645386 
	C120.683739,110.446373 116.714745,110.246002 112.348465,109.905693 
	C111.962433,109.090065 111.973679,108.414375 112.395927,107.416794 
	C122.255234,109.103638 131.068573,107.803780 139.053650,101.895401 
	C139.077774,101.728432 139.042862,101.392830 139.392883,101.468231 
	C141.291412,101.019264 142.839905,100.494888 144.287048,100.246262 
	C143.996490,101.639290 143.807281,102.756584 143.618073,103.873871 
	C140.642136,105.902489 137.666199,107.931099 134.341766,110.047501 
z"/>
<path fill="#124586" opacity="1.000000" stroke="none" 
	d="
M182.029694,139.027313 
	C177.082932,136.826324 179.650986,132.380692 179.004898,128.449463 
	C179.678879,126.853119 180.775574,125.759850 180.939285,124.541222 
	C181.332535,121.614189 182.761444,120.990128 185.644470,122.334526 
	C185.982040,126.202103 185.974884,129.620117 185.901108,133.418884 
	C185.737122,135.332245 185.639755,136.864868 185.553223,138.424484 
	C185.564041,138.451492 185.533112,138.500778 185.176697,138.415939 
	C183.890076,138.563171 182.959885,138.795242 182.029694,139.027313 
z"/>
<path fill="#2A4E6B" opacity="1.000000" stroke="none" 
	d="
M98.652679,121.788467 
	C101.435692,125.982452 103.578575,126.295280 106.580170,123.433006 
	C107.521210,122.535637 109.059303,122.264366 110.617004,121.753082 
	C110.909904,121.799652 110.994461,121.953560 110.892899,122.350876 
	C108.057449,126.355713 105.323563,129.963242 102.260689,134.004898 
	C100.250961,130.896484 98.282509,127.851913 96.290901,124.421646 
	C93.643639,123.420273 91.019547,122.804604 88.395454,122.188919 
	C88.082924,121.964134 87.770393,121.739349 87.265259,121.302094 
	C90.820259,121.246147 94.567856,121.402679 98.652679,121.788467 
z"/>
<path fill="#1A4678" opacity="1.000000" stroke="none" 
	d="
M147.873215,129.017029 
	C146.771072,128.101547 145.668915,127.186073 144.286346,126.134132 
	C142.119675,121.343964 140.233414,116.690254 138.347137,112.036552 
	C138.675308,111.575325 139.003464,111.114090 139.331619,110.652863 
	C142.357224,111.458939 145.382828,112.265015 147.049179,112.708961 
	C146.764954,116.202972 146.578079,118.500206 146.832581,121.091782 
	C147.458725,121.616058 147.681396,121.800095 147.942017,121.938232 
	C147.976410,122.697678 148.010803,123.457115 147.937042,124.695541 
	C147.643372,125.457489 147.679047,125.722191 147.950150,126.350037 
	C147.933975,127.493301 147.903595,128.255157 147.873215,129.017029 
z"/>
<path fill="#295272" opacity="1.000000" stroke="none" 
	d="
M143.981537,103.936142 
	C143.807281,102.756584 143.996490,101.639290 144.566345,100.144348 
	C145.963226,98.579964 146.979446,97.393219 147.995682,96.206482 
	C149.725449,94.933510 152.036484,94.012161 153.063644,92.314178 
	C155.183975,88.809074 156.619781,84.889900 158.591202,80.863983 
	C160.777405,89.627403 153.396072,95.081406 150.267227,102.141159 
	C149.713821,103.389862 146.389664,103.410599 143.981537,103.936142 
z"/>
<path fill="#25486B" opacity="1.000000" stroke="none" 
	d="
M208.877533,151.056015 
	C204.944717,142.605469 201.052917,133.674484 197.131256,124.388535 
	C198.483856,125.519279 200.506409,126.775002 201.137192,128.530746 
	C203.771103,135.862350 210.732025,141.696259 208.877533,151.056015 
z"/>
<path fill="#325172" opacity="1.000000" stroke="none" 
	d="
M174.972351,126.711426 
	C174.537720,132.042206 176.380341,137.430359 171.895752,141.881866 
	C171.034988,142.736298 172.567352,146.001648 172.765656,148.551422 
	C172.535645,148.948074 172.059311,148.851501 172.059311,148.851501 
	C170.413681,146.689209 168.768036,144.526901 167.126129,142.369507 
	C173.806824,136.218109 174.877899,132.079102 171.257690,125.665100 
	C171.173477,125.109787 171.263977,124.811569 171.263977,124.811569 
	C172.492752,125.348083 173.721527,125.884598 174.972351,126.711426 
z"/>
<path fill="#30547A" opacity="1.000000" stroke="none" 
	d="
M171.175385,124.451340 
	C171.263977,124.811569 171.173477,125.109787 171.149750,125.263794 
	C164.965652,120.985321 157.850616,121.708786 150.411896,121.595741 
	C150.339523,120.836296 150.667923,119.600441 151.134674,119.545769 
	C157.674652,118.779678 164.276093,117.966591 170.231827,121.851936 
	C170.773285,122.205177 170.813705,123.326477 171.175385,124.451340 
z"/>
<path fill="#1C4671" opacity="1.000000" stroke="none" 
	d="
M123.003746,30.016632 
	C116.976013,30.720810 110.948280,31.424990 104.502975,32.132164 
	C105.724663,26.732073 107.250580,25.995747 112.614738,27.205635 
	C115.843391,27.933859 119.202667,28.082941 122.759575,29.001034 
	C123.011856,29.678736 123.007797,29.847685 123.003746,30.016632 
z"/>
<path fill="#184777" opacity="1.000000" stroke="none" 
	d="
M185.967712,133.038132 
	C185.974884,129.620117 185.982040,126.202103 185.992813,122.392822 
	C187.303940,118.609749 190.145813,117.113083 193.374191,117.484184 
	C194.662094,117.632225 195.678299,120.144043 196.839874,121.959213 
	C194.326874,122.921104 191.792175,123.503601 188.937607,124.609207 
	C187.734406,127.767593 186.851059,130.402863 185.967712,133.038132 
z"/>
<path fill="#204467" opacity="1.000000" stroke="none" 
	d="
M90.430801,154.740219 
	C90.872772,154.872452 90.903122,155.093109 90.977478,155.644669 
	C88.189262,159.479630 84.874283,159.448151 82.455315,156.046158 
	C78.965302,151.137878 74.681122,151.439957 69.469940,152.958923 
	C69.146606,152.106293 69.217995,151.173904 69.289383,150.241516 
	C73.317383,150.609207 78.227196,149.698318 81.128624,151.699417 
	C84.108894,153.754898 86.425934,155.432449 90.430801,154.740219 
z"/>
<path fill="#204467" opacity="1.000000" stroke="none" 
	d="
M160.130997,66.763382 
	C157.312790,60.317688 154.743958,53.569328 152.074097,46.212444 
	C151.980804,45.403049 151.988556,45.202183 152.332611,44.997749 
	C153.117432,44.985878 153.565933,44.977577 154.014450,44.969276 
	C159.708664,51.074966 161.209320,58.422817 160.130997,66.763382 
z"/>
<path fill="#204467" opacity="1.000000" stroke="none" 
	d="
M164.342056,153.050491 
	C163.019531,150.509888 162.023254,148.085052 161.034485,145.268707 
	C162.416031,146.504623 163.790070,148.132050 165.538208,150.236893 
	C166.217010,150.995987 166.521744,151.277679 166.826462,151.559372 
	C166.826462,151.559372 166.846283,151.846664 167.080368,152.269836 
	C170.186935,153.452530 173.059433,154.212051 176.316849,154.992462 
	C177.472855,155.021622 178.243912,155.029907 179.156128,155.275391 
	C179.571228,155.976105 179.845169,156.439651 180.119110,156.903183 
	C174.100632,159.247253 169.034592,157.653397 164.342056,153.050491 
z"/>
<path fill="#E2F3F8" opacity="1.000000" stroke="none" 
	d="
M180.496262,156.926270 
	C179.845169,156.439651 179.571228,155.976105 179.271057,154.932266 
	C180.468018,151.560715 181.691208,148.769470 182.914398,145.978226 
	C184.414261,147.647018 185.914108,149.315811 187.747070,151.247253 
	C188.080154,151.509888 188.201538,151.975632 188.201538,151.975632 
	C187.033188,155.511139 184.062683,156.391418 180.496262,156.926270 
z"/>
<path fill="#143A5B" opacity="1.000000" stroke="none" 
	d="
M57.004158,125.040764 
	C57.004154,125.040764 57.489563,124.973839 57.731647,124.936935 
	C57.995029,131.615341 57.850540,138.338165 58.154305,145.040680 
	C58.230156,146.714355 59.750546,148.322571 60.975555,150.102661 
	C60.746799,151.597641 60.149494,152.950836 59.404263,154.595413 
	C58.719429,155.170898 58.182522,155.455002 57.283123,155.518982 
	C56.831257,154.813904 56.741886,154.328918 56.706802,153.389771 
	C56.842110,143.637314 56.923134,134.339035 57.004158,125.040764 
z"/>
<path fill="#325172" opacity="1.000000" stroke="none" 
	d="
M112.391647,155.927292 
	C112.786171,154.835297 113.389862,153.761169 114.068268,152.076202 
	C114.475777,151.010529 114.808578,150.555664 115.254509,150.447678 
	C116.424622,152.175858 117.481598,153.557175 118.538574,154.938492 
	C119.992645,153.753922 121.463455,152.589005 122.890724,151.372986 
	C123.325958,151.002151 123.641327,150.490646 124.091187,150.336304 
	C124.773430,151.099030 125.376068,151.569000 125.978706,152.038971 
	C125.666924,152.811188 125.355141,153.583389 124.693268,154.811798 
	C122.868294,156.474014 121.393402,157.680023 119.918510,158.886017 
	C119.514717,158.892670 119.110931,158.899323 118.281441,158.596558 
	C116.243065,157.523193 114.630379,156.759247 113.017700,155.995300 
	C113.017700,155.995300 112.600822,155.945175 112.391647,155.927292 
z"/>
<path fill="#1C4671" opacity="1.000000" stroke="none" 
	d="
M126.957657,28.984028 
	C131.629471,24.521954 136.639603,25.893333 138.601273,32.574856 
	C134.488739,31.583740 130.723190,30.283884 126.957657,28.984028 
z"/>
<path fill="#214872" opacity="1.000000" stroke="none" 
	d="
M81.016739,84.105759 
	C83.740608,88.020378 86.209099,92.209473 88.797600,96.713211 
	C82.848854,96.575554 79.709457,91.707397 81.016739,84.105759 
z"/>
<path fill="#204467" opacity="1.000000" stroke="none" 
	d="
M188.590363,151.980347 
	C188.201538,151.975632 188.080154,151.509888 188.096375,151.269745 
	C188.473526,150.999527 188.744827,150.827805 189.476868,150.276611 
	C193.355560,150.003433 196.683868,149.968094 200.012161,149.932739 
	C200.798523,151.722641 201.584900,153.512543 202.658142,155.812683 
	C202.960602,156.533188 202.976212,156.743469 202.991837,156.953766 
	C202.545242,157.049332 201.738953,157.300552 201.703339,157.218262 
	C199.151733,151.321518 193.821472,152.246582 188.590363,151.980347 
z"/>
<path fill="#174580" opacity="1.000000" stroke="none" 
	d="
M120.141785,159.065125 
	C121.393402,157.680023 122.868294,156.474014 124.641739,155.120422 
	C126.813354,156.417130 128.686417,157.861420 130.559464,159.305710 
	C130.556473,159.697906 130.553482,160.090103 130.550491,160.482300 
	C128.738495,160.482300 125.498787,160.920105 125.343040,160.412216 
	C124.217308,156.741074 121.961891,159.604431 120.141785,159.065125 
z"/>
<path fill="#184777" opacity="1.000000" stroke="none" 
	d="
M77.982864,121.572006 
	C77.550133,121.958984 77.095276,121.974319 76.299667,122.006119 
	C74.461761,122.045448 72.964607,122.068314 71.152084,122.285095 
	C72.215500,120.443146 73.594269,118.407280 74.973045,116.371414 
	C75.968941,117.981064 76.964844,119.590714 77.982864,121.572006 
z"/>
<path fill="#214872" opacity="1.000000" stroke="none" 
	d="
M89.580048,98.897858 
	C90.911957,99.364227 92.118065,100.137474 93.638748,101.005646 
	C94.972786,102.163719 95.992233,103.226852 97.087601,104.602013 
	C89.717300,105.025970 89.015915,104.506538 89.580048,98.897858 
z"/>
<path fill="#295272" opacity="1.000000" stroke="none" 
	d="
M126.564850,28.988647 
	C130.723190,30.283884 134.488739,31.583740 138.615814,32.945091 
	C138.977356,33.006580 138.997009,33.006470 139.119385,33.317924 
	C139.417130,34.257584 139.592499,34.885784 139.412430,35.406242 
	C136.087234,34.162109 133.117477,33.025723 130.147705,31.889332 
	C127.995216,31.362341 125.842720,30.835348 123.346985,30.162495 
	C123.007797,29.847685 123.011856,29.678736 123.020782,29.256363 
	C124.074448,28.999718 125.123253,28.996494 126.564850,28.988647 
z"/>
<path fill="#204467" opacity="1.000000" stroke="none" 
	d="
M137.007614,155.990891 
	C134.818192,154.483292 132.628784,152.975677 130.214233,150.948593 
	C130.000595,150.059540 130.012070,149.689987 130.400894,149.236099 
	C131.550385,149.113113 132.322556,149.074432 133.284058,149.053650 
	C133.473389,149.071564 133.853302,149.052917 134.146454,149.103928 
	C134.628967,149.214096 134.818329,149.273270 135.098663,149.483002 
	C135.356598,149.805695 135.553970,149.929169 135.930115,150.306686 
	C136.760147,151.984100 137.441849,153.358856 137.969452,154.970398 
	C137.546082,155.468445 137.276855,155.729660 137.007614,155.990891 
z"/>
<path fill="#295272" opacity="1.000000" stroke="none" 
	d="
M150.032700,43.862984 
	C148.659805,42.610657 147.286911,41.358330 145.430420,39.734718 
	C143.596649,38.258846 142.246490,37.154251 141.156235,35.920097 
	C141.939804,35.541416 142.463440,35.292297 142.987091,35.043179 
	C143.429459,35.050587 143.871826,35.057991 144.783173,35.253120 
	C145.455292,35.676811 145.688324,35.878193 145.951248,36.044987 
	C145.951248,36.044987 145.970612,36.512096 146.187515,36.953133 
	C146.937561,37.595505 147.470688,37.796841 148.003830,37.998173 
	C148.003830,37.998173 148.000000,38.000000 148.074036,38.296356 
	C148.752869,39.078537 149.357651,39.564365 149.962418,40.050194 
	C149.962418,40.050194 149.973389,40.516685 149.983154,41.110313 
	C150.006165,42.423622 150.019424,43.143307 150.032700,43.862984 
z"/>
<path fill="#143A5B" opacity="1.000000" stroke="none" 
	d="
M69.354965,131.092010 
	C68.042580,135.057175 66.423523,139.161179 64.519379,143.527039 
	C63.746948,138.800934 63.791874,134.016998 69.354965,131.092010 
z"/>
<path fill="#184777" opacity="1.000000" stroke="none" 
	d="
M70.174622,122.650238 
	C70.588440,124.759377 70.749062,126.660927 70.735359,128.851868 
	C69.674919,128.290588 68.028473,127.400261 68.070320,126.597992 
	C68.144051,125.184532 69.248520,123.824852 70.174622,122.650238 
z"/>
<path fill="#A2BED2" opacity="1.000000" stroke="none" 
	d="
M56.652512,153.843948 
	C56.741886,154.328918 56.831257,154.813904 57.012932,155.658752 
	C54.551186,155.884613 51.997135,155.750610 49.197830,155.324173 
	C49.015915,154.837051 49.079254,154.642349 49.632114,154.209595 
	C52.298595,153.929001 54.475555,153.886475 56.652512,153.843948 
z"/>
<path fill="#214872" opacity="1.000000" stroke="none" 
	d="
M137.086151,156.342682 
	C137.276855,155.729660 137.546082,155.468445 138.252808,155.127472 
	C139.885208,155.454941 141.080124,155.862183 142.275040,156.269409 
	C142.394302,156.389755 142.513565,156.510117 142.811462,156.811035 
	C140.874405,160.301468 138.967407,159.520477 137.086151,156.342682 
z"/>
<path fill="#1C4671" opacity="1.000000" stroke="none" 
	d="
M150.129913,44.104774 
	C150.019424,43.143307 150.006165,42.423622 149.993225,41.343407 
	C151.285797,42.098248 152.578079,43.213619 153.942398,44.649136 
	C153.565933,44.977577 153.117432,44.985878 152.089798,44.993713 
	C151.510681,44.993244 151.024689,44.993851 151.024689,44.993851 
	C150.758835,44.778088 150.492966,44.562328 150.129913,44.104774 
z"/>
<path fill="#174580" opacity="1.000000" stroke="none" 
	d="
M113.026443,156.294861 
	C114.630379,156.759247 116.243065,157.523193 117.978806,158.609116 
	C116.412979,158.152206 114.724091,157.373322 113.026443,156.294861 
z"/>
<path fill="#1C4671" opacity="1.000000" stroke="none" 
	d="
M142.806854,34.754742 
	C142.463440,35.292297 141.939804,35.541416 140.937561,35.903915 
	C140.152863,35.953503 139.922485,35.785736 139.767853,35.513985 
	C139.592499,34.885784 139.417130,34.257584 139.121155,33.325245 
	C140.209229,33.502842 141.417923,33.984573 142.806854,34.754742 
z"/>
<path fill="#143A5B" opacity="1.000000" stroke="none" 
	d="
M203.344269,156.906418 
	C202.976212,156.743469 202.960602,156.533188 202.908920,156.008667 
	C204.615082,155.462173 206.357346,155.229950 208.485870,155.057587 
	C207.147003,155.697998 205.421860,156.278534 203.344269,156.906418 
z"/>
<path fill="#325172" opacity="1.000000" stroke="none" 
	d="
M130.023560,149.320404 
	C130.012070,149.689987 130.000595,150.059540 129.975510,150.705719 
	C128.944931,150.987198 127.927948,150.992081 126.482651,150.725861 
	C126.027451,150.097443 126.000565,149.740082 126.368088,149.269058 
	C127.849510,149.210388 128.936523,149.265396 130.023560,149.320404 
z"/>
<path fill="#143A5B" opacity="1.000000" stroke="none" 
	d="
M63.915154,144.082718 
	C63.782307,145.262039 63.282463,146.556366 62.523315,148.087204 
	C62.692059,146.948395 63.120106,145.573044 63.915154,144.082718 
z"/>
<path fill="#204467" opacity="1.000000" stroke="none" 
	d="
M125.973686,149.382751 
	C126.000565,149.740082 126.027451,150.097443 126.099953,150.720490 
	C126.115829,151.161194 126.086090,151.336212 126.017525,151.775085 
	C125.376068,151.569000 124.773430,151.099030 124.279259,150.131378 
	C124.916382,149.550049 125.445038,149.466400 125.973686,149.382751 
z"/>
<path fill="#1C4671" opacity="1.000000" stroke="none" 
	d="
M149.895966,39.747128 
	C149.357651,39.564365 148.752869,39.078537 148.075027,38.293972 
	C148.611160,38.478176 149.220337,38.961121 149.895966,39.747128 
z"/>
<path fill="#143A5B" opacity="1.000000" stroke="none" 
	d="
M62.149212,148.281876 
	C62.224342,148.717972 62.018890,149.348114 61.526066,150.152039 
	C61.448669,149.709198 61.658649,149.092560 62.149212,148.281876 
z"/>
<path fill="#1C4671" opacity="1.000000" stroke="none" 
	d="
M147.799866,37.794701 
	C147.470688,37.796841 146.937561,37.595505 146.203094,37.186371 
	C146.533127,37.182793 147.064514,37.387012 147.799866,37.794701 
z"/>
<path fill="#30547A" opacity="1.000000" stroke="none" 
	d="
M147.935928,125.968636 
	C147.679047,125.722191 147.643372,125.457489 147.946564,125.075554 
	C148.248596,124.978142 148.432922,124.979713 148.893738,124.974197 
	C149.212372,125.140121 149.254486,125.313133 148.905472,125.718307 
	C148.321533,125.956512 148.128723,125.962570 147.935928,125.968636 
z"/>
<path fill="#1C4671" opacity="1.000000" stroke="none" 
	d="
M103.936844,32.159195 
	C103.943733,32.328514 103.744385,32.588120 103.291725,32.832359 
	C103.233498,32.584347 103.464226,32.395176 103.936844,32.159195 
z"/>
<path fill="#214872" opacity="1.000000" stroke="none" 
	d="
M107.964867,158.738556 
	C107.706825,158.770294 107.639351,158.527008 107.858894,158.140656 
	C107.955719,158.039551 107.965248,158.505524 107.964867,158.738556 
z"/>
<path fill="#214872" opacity="1.000000" stroke="none" 
	d="
M98.178253,107.210236 
	C98.296776,107.187599 98.509804,107.369293 98.819237,107.751877 
	C98.697624,107.778412 98.483330,107.599014 98.178253,107.210236 
z"/>
<path fill="#214872" opacity="1.000000" stroke="none" 
	d="
M80.270309,80.925903 
	C80.447838,80.942551 80.672920,81.203239 80.870987,81.733124 
	C80.601891,81.767036 80.426521,81.489586 80.270309,80.925903 
z"/>
<path fill="#30547A" opacity="1.000000" stroke="none" 
	d="
M147.820587,121.757927 
	C147.681396,121.800095 147.458725,121.616058 147.153748,121.204376 
	C147.289185,121.167122 147.511063,121.352119 147.820587,121.757927 
z"/>
<path fill="#1C4671" opacity="1.000000" stroke="none" 
	d="
M145.826538,35.847282 
	C145.688324,35.878193 145.455292,35.676811 145.114990,35.255047 
	C145.261642,35.209682 145.502975,35.403126 145.826538,35.847282 
z"/>
<path fill="#244C76" opacity="1.000000" stroke="none" 
	d="
M156.126221,132.034073 
	C156.077438,131.571594 156.028671,131.109100 156.223602,130.143280 
	C156.663834,129.389557 156.819977,129.116119 156.935745,128.819626 
	C156.935745,128.819626 156.938583,128.940613 157.094421,128.840454 
	C157.537811,128.597488 157.783020,128.401657 157.985855,128.152771 
	C161.731171,127.552063 165.231842,127.694748 167.331818,131.692764 
	C163.421204,133.232559 159.762177,135.916336 156.126221,132.034073 
z"/>
<path fill="#284362" opacity="1.000000" stroke="none" 
	d="
M156.061859,132.447266 
	C159.762177,135.916336 163.421204,133.232559 167.378906,132.036560 
	C166.254425,134.402679 165.148300,136.391891 161.689468,137.348389 
	C156.590271,138.758514 155.724030,137.125275 156.061859,132.447266 
z"/>
<path fill="#D3E9F4" opacity="1.000000" stroke="none" 
	d="
M175.931915,154.971588 
	C173.059433,154.212051 170.186935,153.452530 167.210281,152.331909 
	C169.079620,151.868317 172.184982,154.095581 172.038147,149.218262 
	C172.059311,148.851501 172.535645,148.948074 172.777100,148.919922 
	C173.579376,149.436844 174.140182,149.981934 174.845154,151.107086 
	C175.303513,152.781967 175.617722,153.876770 175.931915,154.971588 
z"/>
<path fill="#0D3150" opacity="1.000000" stroke="none" 
	d="
M147.950150,126.350037 
	C148.128723,125.962570 148.321533,125.956512 148.803314,125.965096 
	C149.153152,135.021805 149.214005,144.063873 149.198761,153.571045 
	C148.730255,151.308304 148.337814,148.580444 147.911621,145.409760 
	C147.888260,139.960266 147.898651,134.953568 147.891129,129.481964 
	C147.903595,128.255157 147.933975,127.493301 147.950150,126.350037 
z"/>
<path fill="#D3E9F4" opacity="1.000000" stroke="none" 
	d="
M166.718414,151.262756 
	C166.521744,151.277679 166.217010,150.995987 165.805984,150.416336 
	C166.003235,150.400970 166.306793,150.683563 166.718414,151.262756 
z"/>
<path fill="#284362" opacity="1.000000" stroke="none" 
	d="
M156.686676,128.921722 
	C156.819977,129.116119 156.663834,129.389557 156.293671,129.799683 
	C156.225891,129.647568 156.331741,129.335709 156.686676,128.921722 
z"/>
<path fill="#284362" opacity="1.000000" stroke="none" 
	d="
M157.717117,128.124084 
	C157.783020,128.401657 157.537811,128.597488 157.033920,128.839325 
	C157.027847,128.657364 157.238113,128.376389 157.717117,128.124084 
z"/>
<path fill="#284362" opacity="1.000000" stroke="none" 
	d="
M73.822800,139.107559 
	C74.251389,137.694183 74.665024,136.660141 75.078659,135.626099 
	C75.363548,135.676941 75.648438,135.727768 75.933327,135.778595 
	C75.738792,137.760788 75.544266,139.742981 75.206390,143.185745 
	C74.443893,141.169067 74.125877,140.327988 73.822800,139.107559 
z"/>
<path fill="#285079" opacity="1.000000" stroke="none" 
	d="
M176.316849,154.992462 
	C175.617722,153.876770 175.303513,152.781967 175.030762,151.335526 
	C177.250336,147.824051 179.428436,144.664200 182.045502,141.547607 
	C182.724838,142.275803 182.965179,142.960739 183.205521,143.645676 
	C183.109207,144.225830 183.012894,144.805969 182.915497,145.682175 
	C181.691208,148.769470 180.468018,151.560715 179.129913,154.695068 
	C178.243912,155.029907 177.472855,155.021622 176.316849,154.992462 
z"/>
<path fill="#E2F3F8" opacity="1.000000" stroke="none" 
	d="
M188.854279,131.949280 
	C192.144226,135.169739 190.416397,140.218338 185.178711,141.346344 
	C185.079453,140.137909 185.306274,139.319351 185.533112,138.500778 
	C185.533112,138.500778 185.564041,138.451492 185.782471,138.186340 
	C186.952026,135.930542 187.903152,133.939911 188.854279,131.949280 
z"/>
<path fill="#2A4E6B" opacity="1.000000" stroke="none" 
	d="
M188.899796,131.572678 
	C187.903152,133.939911 186.952026,135.930542 185.771637,138.159332 
	C185.639755,136.864868 185.737122,135.332245 185.901093,133.418884 
	C186.851059,130.402863 187.734406,127.767593 188.986679,124.992210 
	C189.218842,126.966759 189.082077,129.081421 188.899796,131.572678 
z"/>
<path fill="#E2F3F8" opacity="1.000000" stroke="none" 
	d="
M199.921555,149.576141 
	C196.683868,149.968094 193.355560,150.003433 189.577026,150.048706 
	C190.530151,146.793915 196.785065,146.303604 199.921555,149.576141 
z"/>
<path fill="#2A4E6B" opacity="1.000000" stroke="none" 
	d="
M185.176697,138.415939 
	C185.306274,139.319351 185.079453,140.137909 184.801270,141.272614 
	C184.749924,141.588760 184.757080,141.668274 184.564453,141.818619 
	C184.285049,142.315659 184.198288,142.662354 184.111511,143.009048 
	C183.967697,143.125488 183.823853,143.241943 183.442749,143.502029 
	C182.965179,142.960739 182.724838,142.275803 182.261841,141.304413 
	C182.035507,140.575226 182.031830,140.132507 182.028915,139.358551 
	C182.959885,138.795242 183.890076,138.563171 185.176697,138.415939 
z"/>
<path fill="#E2F3F8" opacity="1.000000" stroke="none" 
	d="
M193.490448,144.492767 
	C193.513794,144.483994 193.467087,144.501556 193.490448,144.492767 
z"/>
<path fill="#E2F3F8" opacity="1.000000" stroke="none" 
	d="
M184.270859,142.809875 
	C184.198288,142.662354 184.285049,142.315659 184.604340,141.820114 
	C184.701309,141.984406 184.565765,142.297546 184.270859,142.809875 
z"/>
<path fill="#315A98" opacity="1.000000" stroke="none" 
	d="
M97.330688,97.143066 
	C95.772186,97.139305 93.990524,97.511131 93.495377,96.877556 
	C90.432419,92.958252 87.658867,88.812775 85.040161,84.145081 
	C95.132835,80.306396 104.516121,82.526443 113.799179,85.940613 
	C108.433525,89.645050 103.067879,93.349487 97.330688,97.143066 
z"/>
<path fill="#92D6E2" opacity="1.000000" stroke="none" 
	d="
M150.125626,88.241005 
	C149.838745,89.316994 149.551865,90.392990 148.632660,91.738815 
	C141.985641,92.291138 135.970932,92.573631 129.839828,92.771469 
	C129.418320,92.608063 129.177505,92.709976 128.846481,93.052841 
	C128.692017,93.113113 128.363632,93.159294 128.002380,93.116257 
	C127.400200,93.045204 127.159279,93.017189 126.918358,92.989182 
	C123.385109,90.732315 119.851860,88.475441 116.229858,85.613518 
	C118.509254,83.399643 120.877411,81.790825 123.498878,80.125641 
	C124.156372,79.771881 124.560555,79.474480 125.300903,79.118279 
	C126.089577,79.018677 126.542076,78.977867 127.121048,79.278679 
	C130.355194,81.009987 133.399643,82.570740 136.585770,83.748116 
	C141.043716,85.395500 145.607254,86.757126 150.125626,88.241005 
z"/>
<path fill="#97D6E7" opacity="1.000000" stroke="none" 
	d="
M126.728317,93.217712 
	C127.159279,93.017189 127.400200,93.045204 128.020508,93.425713 
	C130.559387,95.435791 132.718842,97.093361 135.177292,98.888947 
	C135.901993,99.125320 136.327698,99.223686 136.910400,99.535919 
	C137.725891,100.297478 138.384369,100.845154 139.042862,101.392830 
	C139.042862,101.392830 139.077774,101.728432 138.651443,101.885468 
	C136.455109,102.443359 134.696503,102.906235 132.912964,103.233322 
	C127.755112,104.179222 122.604927,105.207146 117.409866,105.879402 
	C116.229996,106.032082 114.880974,104.877670 113.609818,104.324905 
	C114.647362,103.239319 115.610474,102.068336 116.737862,101.085846 
	C119.113678,99.015366 121.575554,97.043625 124.002121,95.031372 
	C124.847511,94.502998 125.692902,93.974625 126.728317,93.217712 
z"/>
<path fill="#309AC8" opacity="1.000000" stroke="none" 
	d="
M123.245575,80.181999 
	C120.877411,81.790825 118.509254,83.399643 116.032921,85.305618 
	C115.460052,85.763878 114.995369,85.924965 114.164932,86.013336 
	C104.516121,82.526443 95.132835,80.306396 84.962769,83.782700 
	C84.328339,83.055168 84.022293,82.092659 83.981628,80.599731 
	C84.562599,79.809891 84.878197,79.550484 85.558220,79.177437 
	C91.337257,77.110847 96.751862,75.157890 102.537903,73.166382 
	C104.598541,72.747925 106.287735,72.368027 107.989647,72.239944 
	C108.010117,72.659691 108.017868,72.827606 108.011559,73.232368 
	C107.997498,73.469223 107.980392,73.943298 107.617783,74.021294 
	C102.961357,75.800697 98.667534,77.502113 94.373711,79.203522 
	C94.539391,79.807404 94.705070,80.411293 94.870750,81.015175 
	C99.239120,81.015175 103.607498,81.015175 108.266220,81.237801 
	C112.224525,82.995987 115.712448,83.515915 119.179588,80.675728 
	C120.071335,79.945236 121.865807,80.316742 123.245575,80.181999 
z"/>
<path fill="#A8D2D6" opacity="1.000000" stroke="none" 
	d="
M123.641602,95.076691 
	C121.575554,97.043625 119.113678,99.015366 116.737862,101.085846 
	C115.610474,102.068336 114.647362,103.239319 113.609818,104.324905 
	C114.880974,104.877670 116.229996,106.032082 117.409866,105.879402 
	C122.604927,105.207146 127.755112,104.179222 132.912964,103.233322 
	C134.696503,102.906235 136.455109,102.443359 138.627319,102.052437 
	C131.068573,107.803780 122.255234,109.103638 112.385880,107.078934 
	C109.169647,104.800713 109.217697,102.656555 112.391029,100.885590 
	C115.976517,98.884598 119.647362,97.036560 123.641602,95.076691 
z"/>
<path fill="#EFF9FA" opacity="1.000000" stroke="none" 
	d="
M96.314064,124.807350 
	C98.282509,127.851913 100.250961,130.896484 102.260689,134.004898 
	C105.323563,129.963242 108.057449,126.355713 110.930344,122.430283 
	C112.373505,122.810318 114.664047,123.390083 114.764931,124.232170 
	C114.943924,125.726326 114.216576,127.801392 113.126747,128.892822 
	C108.599091,133.427094 104.971352,138.166458 105.989159,145.129776 
	C106.272942,147.071213 105.878761,149.103210 106.049019,151.071747 
	C106.309227,154.080154 105.125069,156.223846 102.113617,155.693695 
	C100.885880,155.477554 99.971588,152.910858 99.138741,151.297882 
	C98.798363,150.638672 99.051674,149.672913 98.943069,148.425079 
	C100.296707,140.255753 96.396324,134.565277 91.772049,128.464294 
	C93.387772,126.746765 94.850922,125.777061 96.314064,124.807350 
z"/>
<path fill="#C4E2EE" opacity="1.000000" stroke="none" 
	d="
M96.290901,124.421646 
	C94.850922,125.777061 93.387772,126.746765 91.796143,128.109161 
	C90.508614,126.616470 89.349548,124.731071 88.292969,122.517303 
	C91.019547,122.804604 93.643639,123.420273 96.290901,124.421646 
z"/>
<path fill="#EBF5F7" opacity="1.000000" stroke="none" 
	d="
M56.706802,153.389771 
	C54.475555,153.886475 52.298595,153.929001 49.715065,153.913910 
	C45.156158,147.928406 41.003826,142.000534 36.122849,135.032440 
	C36.122849,142.276413 36.122849,148.312210 36.122849,154.629364 
	C33.735905,154.629364 31.812490,154.629364 29.099195,154.629364 
	C29.099195,144.444061 29.099195,134.206223 29.080050,123.503418 
	C33.489964,121.279350 36.378551,122.800301 38.912987,126.774826 
	C42.094803,131.764618 45.929287,136.338211 49.669781,141.342484 
	C49.669781,136.661438 49.968403,132.073318 49.587650,127.542305 
	C49.189270,122.801537 51.224586,121.684952 55.691677,123.074142 
	C56.248955,124.041512 56.460609,124.561424 56.672264,125.081337 
	C56.672264,125.081337 56.857582,125.214882 56.930870,125.127823 
	C56.923134,134.339035 56.842110,143.637314 56.706802,153.389771 
z"/>
<path fill="#A2BED2" opacity="1.000000" stroke="none" 
	d="
M56.778927,124.777451 
	C56.460609,124.561424 56.248955,124.041512 56.029987,123.235497 
	C56.310310,123.457451 56.597950,123.965508 56.778927,124.777451 
z"/>
<path fill="#E9F8F4" opacity="1.000000" stroke="none" 
	d="
M139.412430,35.406242 
	C139.922485,35.785736 140.152863,35.953503 140.677643,36.033478 
	C142.246490,37.154251 143.596649,38.258846 145.131744,39.643055 
	C142.705780,40.381821 140.094894,40.840973 136.916931,41.697681 
	C132.257004,44.994797 128.267731,48.058002 124.035095,50.736641 
	C121.190308,52.536968 118.001114,53.793053 114.657997,55.123337 
	C111.859207,52.952171 109.368431,50.950294 106.987045,48.776897 
	C107.096451,48.605377 107.229584,48.220890 107.616676,48.200226 
	C113.767334,45.813576 119.680984,43.740639 125.206825,40.910496 
	C126.959969,40.012592 127.679321,37.096207 128.871735,35.103512 
	C129.131149,34.202084 129.390564,33.300659 129.898834,32.144283 
	C133.117477,33.025723 136.087234,34.162109 139.412430,35.406242 
z"/>
<path fill="#9CD5E4" opacity="1.000000" stroke="none" 
	d="
M114.966011,55.292633 
	C118.001114,53.793053 121.190308,52.536968 124.035095,50.736641 
	C128.267731,48.058002 132.257004,44.994797 136.638672,41.881409 
	C141.525955,42.300678 145.492798,43.893719 147.680664,49.131359 
	C146.775696,50.587421 145.641464,51.522205 144.452728,52.381603 
	C142.316833,53.925797 140.148224,55.424736 137.688782,57.097328 
	C136.293793,57.524864 135.203323,57.797653 133.683014,58.049156 
	C131.832474,58.019348 130.411774,58.010834 128.986938,57.645470 
	C128.476822,56.409554 127.828606,54.718071 127.487038,54.777882 
	C124.297882,55.336304 121.161346,56.195229 117.703705,56.892292 
	C116.581596,56.631813 115.765358,56.446182 114.953964,56.018585 
	C114.958824,55.776619 114.966011,55.292637 114.966011,55.292633 
z"/>
<path fill="#8BCCB1" opacity="1.000000" stroke="none" 
	d="
M134.112839,58.070442 
	C135.203323,57.797653 136.293793,57.524864 138.075836,57.096249 
	C143.228226,55.894398 147.689072,54.848373 152.149902,53.802349 
	C153.715012,57.979389 155.280121,62.156425 156.401611,66.678879 
	C149.304337,66.693871 142.650681,66.363441 135.670715,65.879089 
	C132.560379,64.453346 129.776367,63.181530 127.033157,61.637241 
	C127.384064,60.925152 127.694183,60.485535 128.264526,60.246521 
	C130.387451,59.654900 132.250153,58.862671 134.112839,58.070442 
z"/>
<path fill="#8BCCB1" opacity="1.000000" stroke="none" 
	d="
M150.471100,88.180161 
	C145.607254,86.757126 141.043716,85.395500 136.585770,83.748116 
	C133.399643,82.570740 130.355194,81.009987 127.361069,79.035889 
	C129.644409,77.557190 131.814209,76.662903 134.353760,75.747917 
	C136.817566,75.130524 138.911652,74.533829 141.382690,73.945244 
	C142.508453,73.870041 143.257233,73.786728 144.246643,73.737007 
	C144.487274,73.770607 144.954651,73.637672 145.371094,73.680313 
	C147.174728,73.648102 148.561905,73.573250 150.321899,73.606285 
	C151.461411,73.834358 152.228119,73.954544 152.887573,74.414139 
	C149.901199,78.333893 151.306442,81.754112 153.169189,85.157227 
	C152.384979,86.144592 151.600769,87.131958 150.471100,88.180161 
z"/>
<path fill="#3AA3BA" opacity="1.000000" stroke="none" 
	d="
M134.878311,98.750938 
	C132.718842,97.093361 130.559387,95.435791 128.381775,93.468750 
	C128.363632,93.159294 128.692017,93.113113 129.088348,93.039978 
	C129.484665,92.966835 129.956238,92.856117 129.956238,92.856125 
	C135.970932,92.573631 141.985641,92.291138 148.460495,92.029770 
	C148.630737,93.193527 148.340820,94.336159 148.023285,95.842636 
	C146.979446,97.393219 145.963226,98.579964 144.667694,99.868607 
	C142.839905,100.494888 141.291412,101.019264 139.392883,101.468231 
	C138.384369,100.845154 137.725891,100.297478 137.312012,99.448883 
	C140.471970,98.743118 143.381821,98.330193 144.696762,93.950768 
	C140.596024,94.183205 137.117615,94.380371 133.366745,94.592979 
	C133.994476,96.319725 134.436386,97.535332 134.878311,98.750938 
z"/>
<path fill="#2C9259" opacity="1.000000" stroke="none" 
	d="
M152.994827,74.074738 
	C152.228119,73.954544 151.461411,73.834358 150.318069,73.248436 
	C148.639664,68.035355 144.262558,70.216446 141.410934,68.959587 
	C139.539825,68.134888 137.797211,67.018677 135.997040,66.033020 
	C142.650681,66.363441 149.304337,66.693871 156.413757,67.078125 
	C156.914871,69.107422 156.960205,71.082901 156.576645,73.528107 
	C155.096771,74.023476 154.045807,74.049110 152.994827,74.074738 
z"/>
<path fill="#99CAAC" opacity="1.000000" stroke="none" 
	d="
M152.887573,74.414139 
	C154.045807,74.049110 155.096771,74.023476 156.539505,73.951508 
	C155.889038,77.550270 154.846802,81.195351 153.486877,84.998833 
	C151.306442,81.754112 149.901199,78.333893 152.887573,74.414139 
z"/>
<path fill="#9AD4DB" opacity="1.000000" stroke="none" 
	d="
M152.050720,53.466396 
	C147.689072,54.848373 143.228226,55.894398 138.380341,56.941505 
	C140.148224,55.424736 142.316833,53.925797 144.452728,52.381603 
	C145.641464,51.522205 146.775696,50.587421 147.964020,49.316566 
	C149.312866,50.341164 150.632187,51.735802 152.050720,53.466396 
z"/>
<path fill="#295272" opacity="1.000000" stroke="none" 
	d="
M151.058701,45.262505 
	C151.024689,44.993851 151.510681,44.993244 151.753479,44.997280 
	C151.988556,45.202183 151.980804,45.403049 151.936310,45.904060 
	C151.630615,45.979855 151.361664,45.755505 151.058701,45.262505 
z"/>
<path fill="#E5F0F4" opacity="1.000000" stroke="none" 
	d="
M142.477585,156.017654 
	C141.080124,155.862183 139.885208,155.454941 138.406921,154.890656 
	C137.441849,153.358856 136.760147,151.984100 135.975708,150.117065 
	C135.872986,149.624786 135.906143,149.236099 135.879944,148.896912 
	C134.564453,147.098831 133.275146,145.639923 132.320038,144.004578 
	C132.057053,141.047653 131.459839,138.267166 130.622131,134.366882 
	C129.047821,137.644791 128.135529,139.544327 127.109604,141.080872 
	C126.330536,137.482529 125.665085,134.247162 124.999634,131.011795 
	C125.343269,128.401077 125.686905,125.790352 126.138016,122.363159 
	C127.543877,122.363159 129.771698,122.363159 132.420593,122.368469 
	C134.256729,125.826653 135.671829,129.279526 137.400894,132.918121 
	C139.898010,139.111359 141.820984,145.232880 144.381210,151.075150 
	C145.547531,153.736633 145.009460,154.834442 142.477585,156.017654 
z"/>
<path fill="#8DD6E6" opacity="1.000000" stroke="none" 
	d="
M114.657997,55.123344 
	C114.966011,55.292637 114.958824,55.776619 114.641449,56.172726 
	C104.785645,60.737679 94.963249,60.951435 84.962204,58.676983 
	C86.525002,55.685913 88.087799,52.694843 90.299843,49.363350 
	C96.258606,48.998093 101.568130,48.973255 106.877647,48.948418 
	C109.368431,50.950294 111.859207,52.952171 114.657997,55.123344 
z"/>
<path fill="#26A3BD" opacity="1.000000" stroke="none" 
	d="
M84.638123,58.801670 
	C94.963249,60.951435 104.785645,60.737679 114.636589,56.414692 
	C115.765358,56.446182 116.581596,56.631813 117.927345,57.139378 
	C120.311600,58.796551 122.166359,60.131794 123.929825,61.825890 
	C121.571419,63.714756 119.197388,65.111382 117.070305,66.816132 
	C115.304626,68.231232 113.829666,70.009056 111.954460,71.902786 
	C110.463875,72.451416 109.244751,72.723465 108.025620,72.995514 
	C108.017868,72.827606 108.010117,72.659691 108.143448,71.947784 
	C107.141464,69.706490 106.301582,66.916954 104.802818,66.500885 
	C98.307259,64.697693 91.619308,63.587540 84.691704,62.161751 
	C83.967361,62.025875 83.552635,61.953625 83.137894,61.881374 
	C83.529945,60.896366 83.921997,59.911362 84.638123,58.801670 
M107.804443,64.889481 
	C112.206650,65.773529 115.868332,64.799706 118.838097,61.011333 
	C114.215126,58.483406 110.650139,59.669891 107.804443,64.889481 
z"/>
<path fill="#34A2A8" opacity="1.000000" stroke="none" 
	d="
M106.987045,48.776897 
	C101.568130,48.973255 96.258606,48.998093 90.488983,49.082005 
	C89.997429,48.665607 89.965981,48.190132 89.956253,47.356922 
	C91.812874,45.128174 93.647758,43.257168 95.942001,41.547684 
	C99.563339,43.524818 102.725311,45.340435 106.087097,47.361435 
	C106.601135,47.784847 106.915359,48.002869 107.229584,48.220890 
	C107.229584,48.220890 107.096451,48.605377 106.987045,48.776897 
z"/>
<path fill="#3A5D86" opacity="1.000000" stroke="none" 
	d="
M82.935028,62.266644 
	C83.552635,61.953625 83.967361,62.025875 84.684250,62.500000 
	C84.996239,63.587864 85.006065,64.273857 85.003815,65.414612 
	C85.004807,68.585899 85.017891,71.302444 85.026283,74.454086 
	C85.078995,76.356491 85.136398,77.823776 85.193802,79.291069 
	C84.878197,79.550484 84.562599,79.809891 84.031319,80.288498 
	C83.454468,74.555756 83.093307,68.603836 82.935028,62.266644 
z"/>
<path fill="#F3FCFD" opacity="1.000000" stroke="none" 
	d="
M131.985840,144.181015 
	C133.275146,145.639923 134.564453,147.098831 135.648468,148.856384 
	C135.443176,149.155045 135.007675,149.332428 135.007675,149.332428 
	C134.818329,149.273270 134.628967,149.214096 134.139801,148.866608 
	C133.591553,148.730774 133.343124,148.883255 133.094711,149.035751 
	C132.322556,149.074432 131.550385,149.113113 130.400879,149.236084 
	C128.936523,149.265396 127.849510,149.210388 126.368088,149.269073 
	C125.445038,149.466400 124.916382,149.550049 124.199661,149.838623 
	C123.641327,150.490646 123.325958,151.002151 122.890724,151.372986 
	C121.463455,152.589005 119.992645,153.753922 118.538574,154.938492 
	C117.481598,153.557175 116.424622,152.175858 115.552582,150.305939 
	C116.194099,148.226151 116.650688,146.634933 117.107285,145.043732 
	C117.520851,144.420471 117.934425,143.797211 118.937790,143.050674 
	C122.030403,143.300385 124.533226,143.673370 127.269302,144.112183 
	C128.014084,144.867477 128.525620,145.556946 129.315781,146.621979 
	C129.606842,145.516205 129.821518,144.700684 130.357910,143.956482 
	C131.115051,144.078873 131.550446,144.129944 131.985840,144.181015 
z"/>
<path fill="#E0EAEF" opacity="1.000000" stroke="none" 
	d="
M127.036049,144.046356 
	C124.533226,143.673370 122.030403,143.300385 119.218834,142.938171 
	C119.243393,141.874008 119.576698,140.799072 120.071533,139.409302 
	C121.619774,136.517700 123.006485,133.940918 124.696411,131.187958 
	C125.665085,134.247162 126.330536,137.482529 127.102005,141.339630 
	C127.143211,142.299255 127.078392,142.637146 127.021790,143.242828 
	C127.032028,143.689194 127.034042,143.867783 127.036049,144.046356 
z"/>
<path fill="#0E4176" opacity="1.000000" stroke="none" 
	d="
M116.900360,144.838776 
	C116.650688,146.634933 116.194099,148.226151 115.439445,149.959076 
	C114.808578,150.555664 114.475777,151.010529 114.076385,151.750061 
	C110.933372,150.060959 109.886856,145.653564 112.237564,143.441147 
	C113.977287,141.803772 115.974663,141.385925 116.900360,144.838776 
z"/>
<path fill="#1A4678" opacity="1.000000" stroke="none" 
	d="
M125.070511,110.787369 
	C125.108864,110.668945 125.475891,110.632378 125.955292,110.787384 
	C125.844841,110.942383 125.622017,110.905807 125.070511,110.787369 
z"/>
<path fill="#12944C" opacity="1.000000" stroke="none" 
	d="
M105.887291,47.156044 
	C102.725311,45.340435 99.563339,43.524818 96.243057,41.412682 
	C96.861794,40.466320 97.638847,39.816483 99.024918,39.329205 
	C105.950928,37.991570 112.269615,36.498348 118.577248,34.959820 
	C118.780571,34.910229 118.870811,34.396992 119.013771,34.099892 
	C119.451752,34.060837 119.889732,34.021782 120.761520,34.339745 
	C124.354393,38.541668 123.794304,40.349316 119.157455,42.021820 
	C114.697075,43.630676 110.307808,45.436668 105.887291,47.156044 
z"/>
<path fill="#2F8C57" opacity="1.000000" stroke="none" 
	d="
M106.087097,47.361435 
	C110.307808,45.436668 114.697075,43.630676 119.157455,42.021820 
	C123.794304,40.349316 124.354393,38.541668 121.088348,34.391926 
	C123.408646,34.309395 125.835915,34.531700 128.567474,34.928761 
	C127.679321,37.096207 126.959969,40.012592 125.206825,40.910496 
	C119.680984,43.740639 113.767334,45.813576 107.616676,48.200226 
	C106.915359,48.002869 106.601135,47.784847 106.087097,47.361435 
z"/>
<path fill="#2F8C57" opacity="1.000000" stroke="none" 
	d="
M118.668289,33.901733 
	C118.870811,34.396992 118.780571,34.910229 118.577248,34.959820 
	C112.269615,36.498348 105.950928,37.991570 99.326866,39.289497 
	C104.958214,35.514587 110.916069,32.011635 118.668289,33.901733 
z"/>
<path fill="#325172" opacity="1.000000" stroke="none" 
	d="
M135.098663,149.483002 
	C135.007675,149.332428 135.443176,149.155045 135.674652,149.195572 
	C135.906143,149.236099 135.872986,149.624786 135.827393,149.814392 
	C135.553970,149.929169 135.356598,149.805695 135.098663,149.483002 
z"/>
<path fill="#325172" opacity="1.000000" stroke="none" 
	d="
M133.284058,149.053650 
	C133.343124,148.883255 133.591553,148.730774 133.846634,148.815598 
	C133.853302,149.052917 133.473389,149.071564 133.284058,149.053650 
z"/>
<path fill="#139353" opacity="1.000000" stroke="none" 
	d="
M112.225914,71.626198 
	C113.829666,70.009056 115.304626,68.231232 117.070305,66.816132 
	C119.197388,65.111382 121.571419,63.714756 124.294067,61.929924 
	C125.497177,61.753304 126.244774,61.831509 126.992371,61.909714 
	C129.776367,63.181530 132.560379,64.453346 135.670715,65.879089 
	C137.797211,67.018677 139.539825,68.134888 141.410934,68.959587 
	C144.262558,70.216446 148.639664,68.035355 149.945251,73.140556 
	C148.561905,73.573250 147.174728,73.648102 145.259155,73.606613 
	C144.449799,73.414398 144.208221,73.485435 144.006027,73.703407 
	C143.257233,73.786728 142.508453,73.870041 141.083160,73.735374 
	C137.755081,72.810791 135.150909,72.239441 133.984009,75.768616 
	C131.814209,76.662903 129.644409,77.557190 127.234604,78.694267 
	C126.542076,78.977867 126.089577,79.018677 125.050369,78.877762 
	C120.384415,76.339424 116.305161,73.982811 112.225914,71.626198 
z"/>
<path fill="#1BAABE" opacity="1.000000" stroke="none" 
	d="
M111.954460,71.902786 
	C116.305161,73.982811 120.384415,76.339424 124.714203,78.936554 
	C124.560555,79.474480 124.156372,79.771881 123.498886,80.125641 
	C121.865807,80.316742 120.071335,79.945236 119.179588,80.675728 
	C115.712448,83.515915 112.224525,82.995987 108.457581,80.960945 
	C108.232521,78.288742 108.106461,76.116020 107.980392,73.943298 
	C107.980392,73.943298 107.997498,73.469223 108.011559,73.232368 
	C109.244751,72.723465 110.463875,72.451416 111.954460,71.902786 
z"/>
<path fill="#97D6E7" opacity="1.000000" stroke="none" 
	d="
M129.839828,92.771461 
	C129.956238,92.856117 129.484665,92.966835 129.242798,92.979698 
	C129.177505,92.709976 129.418320,92.608063 129.839828,92.771461 
z"/>
<path fill="#1CA6D1" opacity="1.000000" stroke="none" 
	d="
M135.177292,98.888947 
	C134.436386,97.535332 133.994476,96.319725 133.366745,94.592979 
	C137.117615,94.380371 140.596024,94.183205 144.696762,93.950768 
	C143.381821,98.330193 140.471970,98.743118 137.155029,99.235001 
	C136.327698,99.223686 135.901993,99.125320 135.177292,98.888947 
z"/>
<path fill="#1A63A0" opacity="1.000000" stroke="none" 
	d="
M85.015892,64.959854 
	C85.006065,64.273857 84.996239,63.587864 84.993866,62.563625 
	C91.619308,63.587540 98.307259,64.697693 104.802818,66.500885 
	C106.301582,66.916954 107.141464,69.706490 108.130737,71.695969 
	C106.287735,72.368027 104.598541,72.747925 102.491371,73.109253 
	C102.073402,73.090675 101.982796,72.981339 102.046646,72.635284 
	C102.961426,69.905785 102.020752,69.058479 99.604362,68.939545 
	C97.873817,68.854370 96.149437,68.290695 94.459511,67.809776 
	C91.297379,66.909904 88.162254,65.915146 85.015892,64.959854 
z"/>
<path fill="#1CA6D1" opacity="1.000000" stroke="none" 
	d="
M107.617783,74.021294 
	C108.106461,76.116020 108.232521,78.288742 108.167229,80.738319 
	C103.607498,81.015175 99.239120,81.015175 94.870750,81.015175 
	C94.705070,80.411293 94.539391,79.807404 94.373711,79.203522 
	C98.667534,77.502113 102.961357,75.800697 107.617783,74.021294 
z"/>
<path fill="#1A63A0" opacity="1.000000" stroke="none" 
	d="
M85.558228,79.177437 
	C85.136398,77.823776 85.078995,76.356491 85.435669,74.457596 
	C91.227432,73.677773 96.605118,73.329552 101.982796,72.981339 
	C101.982796,72.981339 102.073402,73.090675 102.119934,73.147804 
	C96.751862,75.157890 91.337257,77.110847 85.558228,79.177437 
z"/>
<path fill="#90D9F3" opacity="1.000000" stroke="none" 
	d="
M127.033157,61.637245 
	C126.244774,61.831509 125.497177,61.753304 124.385345,61.571068 
	C122.166359,60.131794 120.311600,58.796551 118.233215,57.214226 
	C121.161346,56.195229 124.297882,55.336304 127.487038,54.777882 
	C127.828606,54.718071 128.476822,56.409554 128.783173,57.853382 
	C128.390472,58.960728 128.197388,59.503323 128.004303,60.045914 
	C127.694183,60.485535 127.384064,60.925152 127.033157,61.637245 
z"/>
<path fill="#9AD4DB" opacity="1.000000" stroke="none" 
	d="
M128.264526,60.246521 
	C128.197388,59.503323 128.390472,58.960728 128.787323,58.210228 
	C130.411774,58.010834 131.832474,58.019348 133.683014,58.049156 
	C132.250153,58.862671 130.387451,59.654900 128.264526,60.246521 
z"/>
<path fill="#2C9259" opacity="1.000000" stroke="none" 
	d="
M134.353760,75.747917 
	C135.150909,72.239441 137.755081,72.810791 140.706207,73.727264 
	C138.911652,74.533829 136.817566,75.130524 134.353760,75.747917 
z"/>
<path fill="#2C9259" opacity="1.000000" stroke="none" 
	d="
M144.246643,73.737007 
	C144.208221,73.485435 144.449799,73.414398 144.842697,73.563980 
	C144.954651,73.637672 144.487274,73.770607 144.246643,73.737007 
z"/>
<path fill="#325172" opacity="1.000000" stroke="none" 
	d="
M127.013573,142.975052 
	C127.078392,142.637146 127.143211,142.299255 127.215622,141.702606 
	C128.135529,139.544327 129.047821,137.644791 130.622131,134.366882 
	C131.459839,138.267166 132.057053,141.047653 132.320038,144.004578 
	C131.550446,144.129944 131.115051,144.078873 130.195221,143.652512 
	C128.811707,143.176498 127.912643,143.075775 127.013573,142.975052 
z"/>
<path fill="#1CA6D1" opacity="1.000000" stroke="none" 
	d="
M107.663055,64.591759 
	C110.650139,59.669891 114.215126,58.483406 118.838097,61.011333 
	C115.868332,64.799706 112.206650,65.773529 107.663055,64.591759 
z"/>
<path fill="#2F54A0" opacity="1.000000" stroke="none" 
	d="
M102.046646,72.635284 
	C96.605118,73.329552 91.227432,73.677773 85.440369,74.022484 
	C85.017891,71.302444 85.004807,68.585899 85.003815,65.414612 
	C88.162254,65.915146 91.297379,66.909904 94.459511,67.809776 
	C96.149437,68.290695 97.873817,68.854370 99.604362,68.939545 
	C102.020752,69.058479 102.961426,69.905785 102.046646,72.635284 
z"/>
<path fill="#E5F0F4" opacity="1.000000" stroke="none" 
	d="
M127.021790,143.242828 
	C127.912643,143.075775 128.811707,143.176498 129.873474,143.581207 
	C129.821518,144.700684 129.606842,145.516205 129.315781,146.621979 
	C128.525620,145.556946 128.014084,144.867477 127.269302,144.112183 
	C127.034042,143.867783 127.032028,143.689194 127.021790,143.242828 
z"/>
</svg>