<svg version="1.1" id="Layer_1" xmlns="http://www.w3.org/2000/svg" xmlns:xlink="http://www.w3.org/1999/xlink" x="0px" y="0px"
	 width="100%" viewBox="0 0 600 600" enable-background="new 0 0 600 600" xml:space="preserve">
<path fill="#FFFFFF" opacity="1.000000" stroke="none" 
	d="
M396.000000,601.000000 
	C264.000000,601.000000 132.500000,601.000000 1.000000,601.000000 
	C1.000000,401.000000 1.000000,201.000000 1.000000,1.000000 
	C201.000000,1.000000 401.000000,1.000000 601.000000,1.000000 
	C601.000000,201.000000 601.000000,401.000000 601.000000,601.000000 
	C532.833313,601.000000 464.666656,601.000000 396.000000,601.000000 
M376.620667,402.556305 
	C374.539032,412.817749 372.457367,423.079193 370.375732,433.340637 
	C370.999023,433.800751 371.622345,434.260864 372.245667,434.720978 
	C382.190338,430.803864 392.135010,426.886719 402.235626,423.924011 
	C403.861237,434.309998 405.486877,444.695953 407.112488,455.081940 
	C407.811279,455.307709 408.510071,455.533508 409.208862,455.759277 
	C417.315918,448.535004 425.422974,441.310730 433.495972,434.021912 
	C433.495972,434.021912 433.446625,434.075684 433.639191,434.808563 
	C438.103516,444.591705 443.108490,454.044159 450.609802,463.307800 
	C456.325439,453.399719 461.597076,444.261322 466.743622,435.339783 
	C474.762238,441.970764 482.968048,448.756561 491.875702,456.122742 
	C495.204742,444.365356 497.619934,433.934601 497.513397,423.094482 
	C497.513397,423.094482 497.665588,422.948181 498.400787,423.144867 
	C508.281555,426.993988 518.162354,430.843140 528.043091,434.692261 
	C528.542603,434.292664 529.042053,433.893066 529.541504,433.493469 
	C527.694214,422.998322 525.846985,412.503174 523.971375,401.847168 
	C534.804260,401.847168 545.202942,401.847168 557.399963,401.847168 
	C551.956665,392.593628 547.232849,384.668304 542.646240,376.664368 
	C541.869751,375.309326 541.683472,373.615997 541.998413,372.127167 
	C551.543518,368.843658 561.088684,365.560150 570.633789,362.276611 
	C570.724487,361.480774 570.815247,360.684906 570.905945,359.889038 
	C562.589600,353.419189 554.273315,346.949371 546.143372,340.179382 
	C546.221375,339.927277 546.166321,339.708679 546.643738,339.215485 
	C554.745911,332.740784 562.848083,326.266083 570.950317,319.791382 
	C570.741028,319.134827 570.531738,318.478271 570.322449,317.821716 
	C560.434875,314.191589 550.547363,310.561493 540.730530,306.957367 
	C545.867188,298.008453 551.115906,288.864258 556.875977,278.829315 
	C545.002563,277.492310 534.304321,277.333374 523.520813,277.974731 
	C525.536377,267.612091 527.551880,257.249451 529.567444,246.886826 
	C529.039978,246.508911 528.512573,246.130997 527.985168,245.753067 
	C518.047607,249.313690 508.110046,252.874313 498.271942,256.399323 
	C496.436951,246.181015 494.545013,235.645676 492.378143,223.579254 
	C482.864868,231.513763 474.651764,238.363876 466.818420,244.897278 
	C461.444519,235.774323 456.099365,226.700165 450.754181,217.625992 
	C450.069641,217.619919 449.385071,217.613846 448.700500,217.607773 
	C443.623566,227.064606 438.546600,236.521454 433.505005,246.011307 
	C433.505005,246.011307 433.531281,245.970749 433.004883,245.489365 
	C425.047607,238.547073 417.090332,231.604797 409.133026,224.662506 
	C408.463776,224.902588 407.794495,225.142670 407.125244,225.382751 
	C405.427826,235.980606 403.730408,246.578445 401.345184,256.959381 
	C391.608490,253.131866 381.871796,249.304352 370.898621,244.990768 
	C371.597656,250.942596 371.941467,255.035538 372.584564,259.080902 
	C373.636597,265.698883 374.883362,272.285889 375.119354,278.681488 
	C364.807556,277.501038 354.528625,277.451111 342.652374,279.173401 
	C348.897888,289.129456 354.496643,298.054504 359.666046,307.600342 
	C349.604187,311.057709 339.542328,314.515076 329.480469,317.972443 
	C329.391785,318.751282 329.303131,319.530121 329.214478,320.308960 
	C337.408936,326.691345 345.603424,333.073700 353.728760,339.732300 
	C353.783752,340.029755 353.920044,340.277863 353.525757,340.914429 
	C344.711487,346.686096 336.784271,353.455933 328.673126,362.281677 
	C339.936127,366.108856 350.058533,369.548462 359.897827,373.617340 
	C354.424164,382.568542 348.950531,391.519745 342.725281,401.700043 
	C355.381104,401.700043 366.083862,401.700043 376.620667,402.556305 
M245.822952,293.708130 
	C244.841949,291.594482 243.906769,289.458191 242.873230,287.370544 
	C218.781677,238.708084 164.377884,214.080261 113.362114,228.731842 
	C34.265438,251.448181 4.594034,351.088593 57.759647,415.452118 
	C101.080666,467.897522 178.735519,470.567474 224.244751,420.092072 
	C257.459656,383.252625 263.366394,340.585663 245.822952,293.708130 
M290.740906,240.501099 
	C290.740906,312.580200 290.740906,384.659302 290.740906,457.126007 
	C292.904510,456.998840 294.438629,456.908661 295.848755,456.825775 
	C295.848755,378.882935 295.848755,301.479919 295.848755,223.720062 
	C293.986877,223.831909 292.448456,223.924347 290.740845,224.026932 
	C290.740845,229.527878 290.740845,234.514984 290.740906,240.501099 
M530.291626,169.508179 
	C530.291626,184.426422 530.291626,199.344650 530.291626,214.352905 
	C533.190308,214.352905 535.556641,214.352905 538.421814,214.352905 
	C538.421814,207.941498 538.421814,201.896393 538.421814,195.308990 
	C539.603394,195.907379 540.181458,196.137939 540.694580,196.469193 
	C552.270386,203.942688 565.799255,199.003876 569.699463,185.834152 
	C571.651855,179.241684 571.417358,172.662109 569.057495,166.222504 
	C564.986877,155.114487 551.977783,151.174774 542.359192,158.067673 
	C541.254333,158.859482 540.163818,159.671356 538.658875,160.772217 
	C538.343872,158.628769 538.134155,157.202042 537.924011,155.772369 
	C535.268005,155.772369 532.864624,155.772369 530.292480,155.772369 
	C530.292480,160.243820 530.292480,164.378693 530.291626,169.508179 
M491.572205,156.927750 
	C491.572205,151.019043 491.572205,145.110321 491.572205,139.210938 
	C488.521912,139.210938 486.240662,139.210938 483.647034,139.210938 
	C483.647034,158.848572 483.647034,178.269882 483.647034,197.962921 
	C485.963623,197.962921 488.236877,197.962921 490.674622,197.962921 
	C491.014465,196.496292 491.355042,195.026642 491.735748,193.383804 
	C501.124176,200.531784 510.832947,200.657898 517.849854,193.961304 
	C523.260315,188.797699 524.210815,182.142746 524.075195,175.131226 
	C523.926025,167.423416 522.156006,160.251160 514.705688,156.549500 
	C507.344055,152.891922 499.904236,152.995087 493.323944,158.918045 
	C493.189392,159.039154 492.178345,158.186478 491.572205,156.927750 
z"/>
<path fill="#02993B" opacity="1.000000" stroke="none" 
	d="
M245.952637,294.066772 
	C263.366394,340.585663 257.459656,383.252625 224.244751,420.092072 
	C178.735519,470.567474 101.080666,467.897522 57.759647,415.452118 
	C4.594034,351.088593 34.265438,251.448181 113.362114,228.731842 
	C164.377884,214.080261 218.781677,238.708084 242.873230,287.370544 
	C243.906769,289.458191 244.841949,291.594482 245.952637,294.066772 
M163.998154,360.321198 
	C166.208603,367.964172 170.241074,374.475311 177.200272,378.459778 
	C190.847015,386.273254 205.036758,386.583771 218.555466,378.649841 
	C231.327255,371.154297 234.931641,358.668091 233.842606,344.620270 
	C232.492188,327.200592 220.879196,315.587341 203.002350,313.404633 
	C185.230057,311.234650 169.480301,320.344879 164.383163,335.864807 
	C161.821976,343.663208 161.863953,351.583862 163.998154,360.321198 
M111.964699,375.461151 
	C116.763557,370.452667 119.727837,364.319824 119.961098,357.580902 
	C120.587967,339.470306 120.827126,321.333344 120.546104,303.217316 
	C120.500076,300.249969 117.714417,296.039764 115.025887,294.623962 
	C104.076599,288.857910 94.402039,295.106110 94.350876,307.431549 
	C94.294907,320.913147 94.469582,334.397217 94.275154,347.876343 
	C94.103218,359.795654 86.315056,364.524139 75.394081,359.318726 
	C72.189117,357.791077 69.465508,355.253571 66.521507,353.178528 
	C55.759602,359.980194 55.907928,373.653442 66.688034,380.058594 
	C75.815529,385.481812 101.077293,386.931519 111.964699,375.461151 
M154.962280,375.040863 
	C155.092575,358.387390 155.467651,341.730713 155.251999,325.081726 
	C155.140839,316.499115 151.469711,313.783142 142.236237,313.909210 
	C134.304779,314.017517 130.304031,317.505035 130.191589,325.349823 
	C129.971863,340.678619 130.019318,356.013885 130.179932,371.344177 
	C130.249664,378.001404 133.211395,381.662537 138.556732,382.736511 
	C146.780563,384.388794 151.756485,382.272034 154.962280,375.040863 
M145.104172,306.891205 
	C153.432297,305.003723 157.008438,300.588776 156.276154,293.098663 
	C155.620560,286.392975 150.742447,282.381226 143.065979,282.234558 
	C135.549011,282.090912 130.376221,286.045746 129.413300,292.672638 
	C128.166107,301.255768 133.909286,306.778046 145.104172,306.891205 
z"/>
<path fill="#ADC908" opacity="1.000000" stroke="none" 
	d="
M545.978271,339.523590 
	C546.166321,339.708679 546.221375,339.927277 545.669495,340.354919 
	C537.032288,344.588806 528.868958,348.647156 520.478760,352.818298 
	C521.468018,353.675140 522.690552,354.525360 523.656250,355.605255 
	C528.813354,361.372253 533.906189,367.196686 538.617371,373.019165 
	C529.578674,374.164673 520.943909,375.292267 512.297546,376.421326 
	C515.804688,384.325775 519.314575,392.236420 522.824463,400.147064 
	C522.405029,400.684814 521.985535,401.222534 521.566101,401.760284 
	C513.792236,399.809570 506.018341,397.858887 498.028076,395.685181 
	C497.190277,395.641602 496.568817,395.820984 495.928650,396.421021 
	C496.495178,405.543793 497.080414,414.246002 497.665588,422.948181 
	C497.665588,422.948181 497.513397,423.094482 497.045776,423.026672 
	C489.134766,417.882690 481.691406,412.806519 474.430878,407.855042 
	C471.998962,416.303558 469.560516,424.774902 467.122070,433.246246 
	C466.451935,433.349792 465.781799,433.453369 465.111664,433.556946 
	C460.250427,426.734680 455.389191,419.912445 450.543945,412.852478 
	C450.009918,412.742218 449.459808,412.869659 448.675598,413.238739 
	C443.443207,420.345459 438.444916,427.210571 433.446594,434.075684 
	C433.446625,434.075684 433.495972,434.021912 433.318604,433.717896 
	C430.373688,424.991974 427.606079,416.570068 424.701172,407.730225 
	C423.370728,408.757141 422.049713,409.972992 420.550110,410.899933 
	C414.382141,414.712463 408.159882,418.437195 401.976624,421.709961 
	C402.461548,412.574371 402.927429,403.923035 403.367310,395.754578 
	C394.608124,397.661652 385.756439,399.588898 376.972168,401.099426 
	C380.430481,392.492584 383.821381,384.302368 387.051025,376.501678 
	C378.364624,375.359985 369.519531,374.197418 360.763428,372.688477 
	C366.921661,365.632111 372.990936,358.922180 378.720856,352.587433 
	C370.777557,348.674194 362.457611,344.575439 354.137665,340.476654 
	C353.920044,340.277863 353.783752,340.029755 354.089905,339.616882 
	C362.616974,335.622498 370.782837,331.743469 378.871094,327.901337 
	C374.029846,322.873383 369.132660,317.981201 364.494293,312.854889 
	C363.054047,311.263153 362.315948,309.036102 361.669006,307.121948 
	C370.570374,306.174286 379.059052,305.204590 387.734650,304.213531 
	C383.870392,295.827850 379.966827,287.356934 376.476807,278.900970 
	C385.812653,280.859650 394.734985,282.803314 403.440674,284.699799 
	C402.960785,275.710815 402.486542,266.827454 402.372742,257.978699 
	C409.531250,262.328949 416.329285,266.644562 423.263885,271.240784 
	C424.457489,272.319580 425.763000,274.348755 426.084045,270.616699 
	C428.633911,262.145844 431.082611,254.058289 433.531311,245.970749 
	C433.531281,245.970749 433.505005,246.011307 433.645630,246.318924 
	C438.827454,253.428696 443.868622,260.230865 448.956329,267.322479 
	C449.341248,267.907806 449.679596,268.203705 450.017914,268.499603 
	C450.343872,267.999481 450.669830,267.499359 451.260681,266.790527 
	C456.197662,259.796753 460.869812,253.011642 465.541962,246.226547 
	C466.132416,246.361038 466.722839,246.495544 467.313293,246.630035 
	C469.544373,254.753357 471.775482,262.876678 473.989014,271.315552 
	C474.928986,271.404724 475.886475,271.178375 477.160614,270.827637 
	C483.871002,266.254150 490.264740,261.805115 496.658478,257.356079 
	C497.168518,257.757996 497.678528,258.159943 498.188568,258.561890 
	C497.543091,267.346527 496.897614,276.131195 496.282562,284.501801 
	C505.400818,282.647034 514.278381,280.841248 523.005737,279.376587 
	C519.386353,287.912720 515.917114,296.107758 512.106873,305.108398 
	C516.839661,305.108398 521.291443,304.834442 525.693420,305.185669 
	C530.069885,305.534882 534.396301,306.512512 540.344360,307.472839 
	C533.156677,314.916626 526.944397,321.350311 520.809814,327.703522 
	C529.213989,331.650452 537.596130,335.587006 545.978271,339.523590 
M488.646606,371.402252 
	C495.501343,373.473297 502.362915,375.489258 511.242981,374.779663 
	C505.539215,367.975494 500.868958,362.404175 496.249817,356.893890 
	C504.007690,355.615570 511.228790,354.425690 518.449890,353.235809 
	C518.570068,352.603394 518.690247,351.970947 518.810364,351.338501 
	C512.320251,347.620850 505.830109,343.903198 499.326050,340.177582 
	C505.786591,336.387817 512.049988,332.713715 518.313416,329.039581 
	C518.142639,328.365723 517.971863,327.691895 517.801147,327.018036 
	C510.787537,325.821503 503.773926,324.625000 496.751892,323.427032 
	C501.362183,317.675201 505.925262,311.982239 510.488373,306.289276 
	C510.105103,305.728882 509.721802,305.168488 509.338531,304.608093 
	C502.326904,305.899963 495.315277,307.191864 488.011505,308.537598 
	C490.581329,301.395966 493.009644,294.647705 495.437927,287.899475 
	C494.976898,287.505432 494.515900,287.111389 494.054901,286.717377 
	C487.597534,290.349854 481.140167,293.982361 474.506348,297.714142 
	C474.506348,289.997070 474.506348,282.666321 474.506348,275.335571 
	C474.078156,275.123535 473.649963,274.911530 473.221771,274.699524 
	C468.275299,280.531372 463.328796,286.363190 458.644928,291.885437 
	C456.125275,284.840332 453.552429,277.646515 450.979584,270.452728 
	C450.417450,270.463013 449.855316,270.473297 449.293182,270.483582 
	C446.796631,277.505341 444.300079,284.527130 441.799622,291.559906 
	C436.877594,285.757050 432.182526,280.221771 427.487457,274.686462 
	C426.917297,274.979614 426.347137,275.272766 425.776978,275.565887 
	C425.776978,282.866455 425.776978,290.167023 425.776978,297.683563 
	C418.958588,293.761475 412.566315,290.084473 406.174072,286.407501 
	C405.680695,286.919312 405.187286,287.431122 404.693909,287.942902 
	C407.307465,294.788879 409.921021,301.634857 412.598572,308.648438 
	C405.066132,307.324768 397.806396,306.049011 390.546661,304.773224 
	C390.275238,305.361633 390.003815,305.950073 389.732422,306.538483 
	C394.584167,312.217041 399.435883,317.895630 404.109802,323.366058 
	C396.655945,324.669067 389.426300,325.932892 382.196625,327.196716 
	C382.044189,327.832520 381.891754,328.468323 381.739319,329.104095 
	C388.024658,332.767639 394.309998,336.431152 400.681244,340.144745 
	C394.144165,343.991028 387.694397,347.785980 381.244598,351.580933 
	C381.390350,352.087616 381.536072,352.594269 381.681824,353.100952 
	C389.016632,354.363556 396.351440,355.626160 403.822906,356.912292 
	C398.970093,362.662628 394.332428,368.158020 389.694733,373.653442 
	C390.020508,374.290833 390.346283,374.928223 390.672058,375.565613 
	C397.970825,374.301697 405.269592,373.037811 412.375183,371.807373 
	C409.773254,378.768890 407.137482,385.820984 404.501709,392.873077 
	C404.936676,393.229126 405.371613,393.585175 405.806580,393.941223 
	C412.396149,390.204407 418.985748,386.467621 425.867126,382.565369 
	C425.044128,390.342529 423.998291,397.605011 425.972534,404.725800 
	C426.484863,404.935211 426.997192,405.144592 427.509552,405.354004 
	C432.136261,399.734924 436.762970,394.115814 441.440491,388.435028 
	C444.088959,395.801697 446.615662,402.829620 449.142365,409.857574 
	C449.688660,409.804352 450.234985,409.751129 450.781281,409.697906 
	C453.339935,402.669128 455.898590,395.640350 458.503723,388.483887 
	C463.405121,394.409637 468.105774,400.092682 472.806427,405.775726 
	C473.275726,405.602997 473.745056,405.430267 474.214355,405.257538 
	C474.214355,397.742310 474.214355,390.227081 474.214355,382.576752 
	C481.209869,386.580475 487.687317,390.287689 494.164795,393.994904 
	C494.428894,390.763916 493.994751,388.503571 493.222229,386.365479 
	C491.981598,382.932068 490.450409,379.604431 489.177551,376.181610 
	C488.602661,374.635651 488.353851,372.968384 488.646606,371.402252 
z"/>
<path fill="#059842" opacity="1.000000" stroke="none" 
	d="
M474.006561,271.000000 
	C471.775482,262.876678 469.544373,254.753357 467.313293,246.630035 
	C466.722839,246.495544 466.132416,246.361038 465.541962,246.226547 
	C460.869812,253.011642 456.197662,259.796753 450.913025,266.792389 
	C449.836914,267.012970 449.373352,267.023010 448.909760,267.033020 
	C443.868622,260.230865 438.827454,253.428696 433.627991,246.302414 
	C438.546600,236.521454 443.623566,227.064606 448.700500,217.607773 
	C449.385071,217.613846 450.069641,217.619919 450.754181,217.625992 
	C456.099365,226.700165 461.444519,235.774323 466.818420,244.897278 
	C474.651764,238.363876 482.864868,231.513763 492.378143,223.579254 
	C494.545013,235.645676 496.436951,246.181015 498.271942,256.399323 
	C508.110046,252.874313 518.047607,249.313690 527.985168,245.753067 
	C528.512573,246.130997 529.039978,246.508911 529.567444,246.886826 
	C527.551880,257.249451 525.536377,267.612091 523.482117,278.468079 
	C523.443420,278.961395 523.155884,279.035461 523.155884,279.035461 
	C514.278381,280.841248 505.400818,282.647034 496.282562,284.501801 
	C496.897614,276.131195 497.543091,267.346527 498.188568,258.561890 
	C497.678528,258.159943 497.168518,257.757996 496.658478,257.356079 
	C490.264740,261.805115 483.871002,266.254150 476.806824,270.843628 
	C475.426453,270.989380 474.716522,270.994690 474.006561,271.000000 
z"/>
<path fill="#049843" opacity="1.000000" stroke="none" 
	d="
M498.033203,423.046509 
	C497.080414,414.246002 496.495178,405.543793 496.311554,396.416931 
	C497.223572,395.964233 497.734009,395.936188 498.244446,395.908173 
	C506.018341,397.858887 513.792236,399.809570 521.566101,401.760284 
	C521.985535,401.222534 522.405029,400.684814 522.824463,400.147064 
	C519.314575,392.236420 515.804688,384.325775 512.297546,376.421326 
	C520.943909,375.292267 529.578674,374.164673 538.892944,372.900208 
	C540.123108,372.535156 540.673767,372.307068 541.224487,372.078949 
	C541.683472,373.615997 541.869751,375.309326 542.646240,376.664368 
	C547.232849,384.668304 551.956665,392.593628 557.399963,401.847168 
	C545.202942,401.847168 534.804260,401.847168 523.971375,401.847168 
	C525.846985,412.503174 527.694214,422.998322 529.541504,433.493469 
	C529.042053,433.893066 528.542603,434.292664 528.043091,434.692261 
	C518.162354,430.843140 508.281555,426.993988 498.033203,423.046509 
z"/>
<path fill="#059841" opacity="1.000000" stroke="none" 
	d="
M523.005737,279.376587 
	C523.155884,279.035461 523.443420,278.961395 523.513306,278.934937 
	C534.304321,277.333374 545.002563,277.492310 556.875977,278.829315 
	C551.115906,288.864258 545.867188,298.008453 540.730530,306.957367 
	C550.547363,310.561493 560.434875,314.191589 570.322449,317.821716 
	C570.531738,318.478271 570.741028,319.134827 570.950317,319.791382 
	C562.848083,326.266083 554.745911,332.740784 546.311035,339.369537 
	C537.596130,335.587006 529.213989,331.650452 520.809814,327.703522 
	C526.944397,321.350311 533.156677,314.916626 540.344360,307.472839 
	C534.396301,306.512512 530.069885,305.534882 525.693420,305.185669 
	C521.291443,304.834442 516.839661,305.108398 512.106873,305.108398 
	C515.917114,296.107758 519.386353,287.912720 523.005737,279.376587 
z"/>
<path fill="#049741" opacity="1.000000" stroke="none" 
	d="
M433.542908,434.442139 
	C438.444916,427.210571 443.443207,420.345459 449.080383,413.262695 
	C449.988770,413.060059 450.258331,413.075134 450.527924,413.090210 
	C455.389191,419.912445 460.250427,426.734680 465.111664,433.556946 
	C465.781799,433.453369 466.451935,433.349792 467.122070,433.246246 
	C469.560516,424.774902 471.998962,416.303558 474.430878,407.855042 
	C481.691406,412.806519 489.134766,417.882690 496.944153,422.998108 
	C497.619934,433.934601 495.204742,444.365356 491.875702,456.122742 
	C482.968048,448.756561 474.762238,441.970764 466.743622,435.339783 
	C461.597076,444.261322 456.325439,453.399719 450.609802,463.307800 
	C443.108490,454.044159 438.103516,444.591705 433.542908,434.442139 
z"/>
<path fill="#039742" opacity="1.000000" stroke="none" 
	d="
M290.740875,240.001587 
	C290.740845,234.514984 290.740845,229.527878 290.740845,224.026932 
	C292.448456,223.924347 293.986877,223.831909 295.848755,223.720062 
	C295.848755,301.479919 295.848755,378.882935 295.848755,456.825775 
	C294.438629,456.908661 292.904510,456.998840 290.740906,457.126007 
	C290.740906,384.659302 290.740906,312.580200 290.740875,240.001587 
z"/>
<path fill="#0E9C4A" opacity="1.000000" stroke="none" 
	d="
M530.292053,169.010864 
	C530.292480,164.378693 530.292480,160.243820 530.292480,155.772369 
	C532.864624,155.772369 535.268005,155.772369 537.924011,155.772369 
	C538.134155,157.202042 538.343872,158.628769 538.658875,160.772217 
	C540.163818,159.671356 541.254333,158.859482 542.359192,158.067673 
	C551.977783,151.174774 564.986877,155.114487 569.057495,166.222504 
	C571.417358,172.662109 571.651855,179.241684 569.699463,185.834152 
	C565.799255,199.003876 552.270386,203.942688 540.694580,196.469193 
	C540.181458,196.137939 539.603394,195.907379 538.421814,195.308990 
	C538.421814,201.896393 538.421814,207.941498 538.421814,214.352905 
	C535.556641,214.352905 533.190308,214.352905 530.291626,214.352905 
	C530.291626,199.344650 530.291626,184.426422 530.292053,169.010864 
M540.657715,189.650284 
	C547.963074,197.336533 558.425781,195.063873 560.966431,184.839218 
	C562.096008,180.293106 562.118225,175.247833 561.554504,170.560043 
	C560.800842,164.292709 556.897278,161.134689 551.331055,160.880371 
	C545.032959,160.592651 540.704590,163.448822 539.019714,169.545349 
	C537.205994,176.108078 537.145508,182.687180 540.657715,189.650284 
z"/>
<path fill="#0B9A48" opacity="1.000000" stroke="none" 
	d="
M491.574219,157.357925 
	C492.178345,158.186478 493.189392,159.039154 493.323944,158.918045 
	C499.904236,152.995087 507.344055,152.891922 514.705688,156.549500 
	C522.156006,160.251160 523.926025,167.423416 524.075195,175.131226 
	C524.210815,182.142746 523.260315,188.797699 517.849854,193.961304 
	C510.832947,200.657898 501.124176,200.531784 491.735748,193.383804 
	C491.355042,195.026642 491.014465,196.496292 490.674622,197.962921 
	C488.236877,197.962921 485.963623,197.962921 483.647034,197.962921 
	C483.647034,178.269882 483.647034,158.848572 483.647034,139.210938 
	C486.240662,139.210938 488.521912,139.210938 491.572205,139.210938 
	C491.572205,145.110321 491.572205,151.019043 491.574219,157.357925 
M505.093048,192.921036 
	C510.109650,192.150940 513.626404,189.042374 514.276550,184.354294 
	C515.029236,178.927170 514.990540,173.193802 514.095703,167.792099 
	C513.265869,162.782700 509.362030,160.011383 503.996918,159.922348 
	C498.609406,159.832962 494.387695,162.150818 493.072968,167.477814 
	C491.912842,172.178299 491.549866,177.301544 492.014069,182.124603 
	C492.733734,189.601486 496.680115,192.636963 505.093048,192.921036 
z"/>
<path fill="#059842" opacity="1.000000" stroke="none" 
	d="
M402.012299,257.944122 
	C402.486542,266.827454 402.960785,275.710815 403.440674,284.699799 
	C394.734985,282.803314 385.812653,280.859650 376.452087,278.878357 
	C376.013885,278.840759 376.048004,278.885956 376.048004,278.885956 
	C374.883362,272.285889 373.636597,265.698883 372.584564,259.080902 
	C371.941467,255.035538 371.597656,250.942596 370.898621,244.990768 
	C381.871796,249.304352 391.608490,253.131866 401.681213,257.259705 
	C402.017273,257.560028 402.012299,257.944122 402.012299,257.944122 
z"/>
<path fill="#059842" opacity="1.000000" stroke="none" 
	d="
M353.831726,340.695557 
	C362.457611,344.575439 370.777557,348.674194 378.720856,352.587433 
	C372.990936,358.922180 366.921661,365.632111 360.641479,372.672455 
	C360.430603,373.002838 360.180939,372.988068 360.180939,372.988068 
	C350.058533,369.548462 339.936127,366.108856 328.673126,362.281677 
	C336.784271,353.455933 344.711487,346.686096 353.831726,340.695557 
z"/>
<path fill="#059842" opacity="1.000000" stroke="none" 
	d="
M375.583679,278.783722 
	C376.048004,278.885956 376.013885,278.840759 376.038574,278.863373 
	C379.966827,287.356934 383.870392,295.827850 387.734650,304.213531 
	C379.059052,305.204590 370.570374,306.174286 361.378723,307.085236 
	C360.482300,307.010834 360.288879,306.995209 360.095428,306.979553 
	C354.496643,298.054504 348.897888,289.129456 342.652374,279.173401 
	C354.528625,277.451111 364.807556,277.501038 375.583679,278.783722 
z"/>
<path fill="#059841" opacity="1.000000" stroke="none" 
	d="
M541.611450,372.103058 
	C540.673767,372.307068 540.123108,372.535156 539.296814,372.882263 
	C533.906189,367.196686 528.813354,361.372253 523.656250,355.605255 
	C522.690552,354.525360 521.468018,353.675140 520.478760,352.818298 
	C528.868958,348.647156 537.032288,344.588806 545.576294,340.504974 
	C554.273315,346.949371 562.589600,353.419189 570.905945,359.889038 
	C570.815247,360.684906 570.724487,361.480774 570.633789,362.276611 
	C561.088684,365.560150 551.543518,368.843658 541.611450,372.103058 
z"/>
<path fill="#059842" opacity="1.000000" stroke="none" 
	d="
M401.957611,422.194214 
	C408.159882,418.437195 414.382141,414.712463 420.550110,410.899933 
	C422.049713,409.972992 423.370728,408.757141 424.701172,407.730225 
	C427.606079,416.570068 430.373688,424.991974 433.335663,433.750183 
	C425.422974,441.310730 417.315918,448.535004 409.208862,455.759277 
	C408.510071,455.533508 407.811279,455.307709 407.112488,455.081940 
	C405.486877,444.695953 403.861237,434.309998 402.125854,423.319458 
	C401.996918,422.541290 401.977417,422.367737 401.957611,422.194214 
z"/>
<path fill="#059842" opacity="1.000000" stroke="none" 
	d="
M401.976624,421.709961 
	C401.977417,422.367737 401.996918,422.541290 402.047913,422.842224 
	C392.135010,426.886719 382.190338,430.803864 372.245667,434.720978 
	C371.622345,434.260864 370.999023,433.800751 370.375732,433.340637 
	C372.457367,423.079193 374.539032,412.817749 376.728973,402.098969 
	C376.837280,401.641632 376.904785,401.516113 376.904785,401.516113 
	C385.756439,399.588898 394.608124,397.661652 403.367310,395.754578 
	C402.927429,403.923035 402.461548,412.574371 401.976624,421.709961 
z"/>
<path fill="#059841" opacity="1.000000" stroke="none" 
	d="
M359.880737,307.289948 
	C360.288879,306.995209 360.482300,307.010834 360.966064,307.063202 
	C362.315948,309.036102 363.054047,311.263153 364.494293,312.854889 
	C369.132660,317.981201 374.029846,322.873383 378.871094,327.901337 
	C370.782837,331.743469 362.616974,335.622498 354.124481,339.478790 
	C345.603424,333.073700 337.408936,326.691345 329.214478,320.308960 
	C329.303131,319.530121 329.391785,318.751282 329.480469,317.972443 
	C339.542328,314.515076 349.604187,311.057709 359.880737,307.289948 
z"/>
<path fill="#059842" opacity="1.000000" stroke="none" 
	d="
M402.372742,257.978699 
	C402.012299,257.944122 402.017273,257.560028 402.025146,257.368164 
	C403.730408,246.578445 405.427826,235.980606 407.125244,225.382751 
	C407.794495,225.142670 408.463776,224.902588 409.133026,224.662506 
	C417.090332,231.604797 425.047607,238.547073 433.268097,245.730057 
	C431.082611,254.058289 428.633911,262.145844 425.726807,270.616394 
	C424.554688,270.986328 423.841003,270.973267 423.127319,270.960205 
	C416.329285,266.644562 409.531250,262.328949 402.372742,257.978699 
z"/>
<path fill="#049741" opacity="1.000000" stroke="none" 
	d="
M376.972168,401.099426 
	C376.904785,401.516113 376.837280,401.641632 376.811951,401.670837 
	C366.083862,401.700043 355.381104,401.700043 342.725281,401.700043 
	C348.950531,391.519745 354.424164,382.568542 360.039368,373.302704 
	C360.180939,372.988068 360.430603,373.002838 360.552551,373.018860 
	C369.519531,374.197418 378.364624,375.359985 387.051025,376.501678 
	C383.821381,384.302368 380.430481,392.492584 376.972168,401.099426 
z"/>
<path fill="#F8FAF9" opacity="1.000000" stroke="none" 
	d="
M163.909103,359.920715 
	C161.863953,351.583862 161.821976,343.663208 164.383163,335.864807 
	C169.480301,320.344879 185.230057,311.234650 203.002350,313.404633 
	C220.879196,315.587341 232.492188,327.200592 233.842606,344.620270 
	C234.931641,358.668091 231.327255,371.154297 218.555466,378.649841 
	C205.036758,386.583771 190.847015,386.273254 177.200272,378.459778 
	C170.241074,374.475311 166.208603,367.964172 163.909103,359.920715 
M195.164139,363.769257 
	C204.072723,364.502441 210.015717,360.754272 211.930725,353.194824 
	C213.967453,345.154907 210.467941,336.961304 203.820068,334.204773 
	C196.434341,331.142303 188.180649,334.571777 185.213516,341.935974 
	C181.616470,350.863586 185.496490,360.010712 195.164139,363.769257 
z"/>
<path fill="#F7FAF8" opacity="1.000000" stroke="none" 
	d="
M111.711571,375.713318 
	C101.077293,386.931519 75.815529,385.481812 66.688034,380.058594 
	C55.907928,373.653442 55.759602,359.980194 66.521393,353.178711 
	C69.465508,355.253571 72.189117,357.791077 75.394081,359.318726 
	C86.315056,364.524139 94.103218,359.795654 94.275154,347.876343 
	C94.469582,334.397217 94.294907,320.913147 94.350876,307.431549 
	C94.402039,295.106110 104.076599,288.857910 115.025887,294.623962 
	C117.714417,296.039764 120.500076,300.249969 120.546104,303.217316 
	C120.827126,321.333344 120.587967,339.470306 119.961098,357.580902 
	C119.727837,364.319824 116.763557,370.452667 111.711571,375.713318 
z"/>
<path fill="#F9FBF9" opacity="1.000000" stroke="none" 
	d="
M154.871338,375.437866 
	C151.756485,382.272034 146.780563,384.388794 138.556732,382.736511 
	C133.211395,381.662537 130.249664,378.001404 130.179932,371.344177 
	C130.019318,356.013885 129.971863,340.678619 130.191589,325.349823 
	C130.304031,317.505035 134.304779,314.017517 142.236237,313.909210 
	C151.469711,313.783142 155.140839,316.499115 155.251999,325.081726 
	C155.467651,341.730713 155.092575,358.387390 154.871338,375.437866 
z"/>
<path fill="#F5F9F7" opacity="1.000000" stroke="none" 
	d="
M144.682037,306.919739 
	C133.909286,306.778046 128.166107,301.255768 129.413300,292.672638 
	C130.376221,286.045746 135.549011,282.090912 143.065979,282.234558 
	C150.742447,282.381226 155.620560,286.392975 156.276154,293.098663 
	C157.008438,300.588776 153.432297,305.003723 144.682037,306.919739 
z"/>
<path fill="#FCDA05" opacity="1.000000" stroke="none" 
	d="
M488.301819,371.379211 
	C488.353851,372.968384 488.602661,374.635651 489.177551,376.181610 
	C490.450409,379.604431 491.981598,382.932068 493.222229,386.365479 
	C493.994751,388.503571 494.428894,390.763916 494.164795,393.994904 
	C487.687317,390.287689 481.209869,386.580475 474.214355,382.576752 
	C474.214355,390.227081 474.214355,397.742310 474.214355,405.257538 
	C473.745056,405.430267 473.275726,405.602997 472.806427,405.775726 
	C468.105774,400.092682 463.405121,394.409637 458.503723,388.483887 
	C455.898590,395.640350 453.339935,402.669128 450.781281,409.697906 
	C450.234985,409.751129 449.688660,409.804352 449.142365,409.857574 
	C446.615662,402.829620 444.088959,395.801697 441.440491,388.435028 
	C436.762970,394.115814 432.136261,399.734924 427.509552,405.354004 
	C426.997192,405.144592 426.484863,404.935211 425.972534,404.725800 
	C423.998291,397.605011 425.044128,390.342529 425.867126,382.565369 
	C418.985748,386.467621 412.396149,390.204407 405.806580,393.941223 
	C405.371613,393.585175 404.936676,393.229126 404.501709,392.873077 
	C407.137482,385.820984 409.773254,378.768890 412.375183,371.807373 
	C405.269592,373.037811 397.970825,374.301697 390.672058,375.565613 
	C390.346283,374.928223 390.020508,374.290833 389.694733,373.653442 
	C394.332428,368.158020 398.970093,362.662628 403.822906,356.912292 
	C396.351440,355.626160 389.016632,354.363556 381.681824,353.100952 
	C381.536072,352.594269 381.390350,352.087616 381.244598,351.580933 
	C387.694397,347.785980 394.144165,343.991028 400.681244,340.144745 
	C394.309998,336.431152 388.024658,332.767639 381.739319,329.104095 
	C381.891754,328.468323 382.044189,327.832520 382.196625,327.196716 
	C389.426300,325.932892 396.655945,324.669067 404.109802,323.366058 
	C399.435883,317.895630 394.584167,312.217041 389.732422,306.538483 
	C390.003815,305.950073 390.275238,305.361633 390.546661,304.773224 
	C397.806396,306.049011 405.066132,307.324768 412.598572,308.648438 
	C409.921021,301.634857 407.307465,294.788879 404.693909,287.942902 
	C405.187286,287.431122 405.680695,286.919312 406.174072,286.407501 
	C412.566315,290.084473 418.958588,293.761475 425.776978,297.683563 
	C425.776978,290.167023 425.776978,282.866455 425.776978,275.565887 
	C426.347137,275.272766 426.917297,274.979614 427.487457,274.686462 
	C432.182526,280.221771 436.877594,285.757050 441.799622,291.559906 
	C444.300079,284.527130 446.796631,277.505341 449.293182,270.483582 
	C449.855316,270.473297 450.417450,270.463013 450.979584,270.452728 
	C453.552429,277.646515 456.125275,284.840332 458.644928,291.885437 
	C463.328796,286.363190 468.275299,280.531372 473.221771,274.699524 
	C473.649963,274.911530 474.078156,275.123535 474.506348,275.335571 
	C474.506348,282.666321 474.506348,289.997070 474.506348,297.714142 
	C481.140167,293.982361 487.597534,290.349854 494.054901,286.717377 
	C494.515900,287.111389 494.976898,287.505432 495.437927,287.899475 
	C493.009644,294.647705 490.581329,301.395966 488.011505,308.537598 
	C495.315277,307.191864 502.326904,305.899963 509.338531,304.608093 
	C509.721802,305.168488 510.105103,305.728882 510.488373,306.289276 
	C505.925262,311.982239 501.362183,317.675201 496.751892,323.427032 
	C503.773926,324.625000 510.787537,325.821503 517.801147,327.018036 
	C517.971863,327.691895 518.142639,328.365723 518.313416,329.039581 
	C512.049988,332.713715 505.786591,336.387817 499.326050,340.177582 
	C505.830109,343.903198 512.320251,347.620850 518.810364,351.338501 
	C518.690247,351.970947 518.570068,352.603394 518.449890,353.235809 
	C511.228790,354.425690 504.007690,355.615570 496.249817,356.893890 
	C500.868958,362.404175 505.539215,367.975494 511.242981,374.779663 
	C502.362915,375.489258 495.501343,373.473297 488.301819,371.379211 
M415.871490,369.357666 
	C421.155060,366.756805 426.438629,364.155975 431.951172,361.442413 
	C430.086945,367.429443 428.247406,373.337189 426.407867,379.244904 
	C426.949921,379.486694 427.491943,379.728516 428.033966,379.970306 
	C432.207336,375.194916 436.380707,370.419495 441.338867,364.746124 
	C441.338867,372.143524 441.338867,378.478851 441.338867,384.814178 
	C441.856323,384.940826 442.373779,385.067474 442.891205,385.194122 
	C445.248260,379.264221 447.605286,373.334320 449.959717,367.410980 
	C452.338165,373.470490 454.658600,379.382263 456.979034,385.294006 
	C457.576569,385.191010 458.174103,385.088013 458.771637,384.985016 
	C458.771637,378.584137 458.771637,372.183228 458.771637,365.295990 
	C463.660370,370.766693 467.879700,375.488312 472.099030,380.209930 
	C472.615845,379.888855 473.132690,379.567780 473.649506,379.246704 
	C471.615295,373.282013 469.581055,367.317352 467.493286,361.195648 
	C473.298645,364.260529 478.959869,367.249298 484.621094,370.238068 
	C484.964020,369.772522 485.306976,369.306976 485.649933,368.841431 
	C481.795349,363.959595 477.940735,359.077728 473.927460,353.994873 
	C480.371735,354.865326 486.472717,355.689423 492.573700,356.513489 
	C492.779205,355.940521 492.984741,355.367523 493.190277,354.794556 
	C487.690460,351.444031 482.190643,348.093536 476.708405,344.753723 
	C483.184296,343.490051 489.526764,342.252411 495.869232,341.014771 
	C495.875336,340.404877 495.881470,339.795013 495.887604,339.185120 
	C489.628540,337.863190 483.369476,336.541260 477.192261,335.236603 
	C482.745178,331.778320 488.150970,328.411682 493.556732,325.045044 
	C493.308807,324.513000 493.060852,323.980927 492.812897,323.448883 
	C486.601624,324.356781 480.390381,325.264679 474.065186,326.064026 
	C474.065186,326.064026 473.951172,325.955597 474.101929,325.295044 
	C478.087006,320.526215 482.072052,315.757385 486.057098,310.988525 
	C485.688782,310.537354 485.320435,310.086182 484.952118,309.634979 
	C479.136688,312.719421 473.321289,315.803864 467.529846,318.875580 
	C469.682251,312.622406 471.723907,306.690918 473.765564,300.759399 
	C473.230927,300.461060 472.696259,300.162720 472.161621,299.864380 
	C467.883301,304.709290 463.604980,309.554230 458.357178,315.497040 
	C458.357178,307.889648 458.357178,301.515259 458.357178,295.140869 
	C457.867645,295.087219 457.378113,295.033569 456.888550,294.979950 
	C454.642578,300.661652 452.396606,306.343384 450.059479,312.255676 
	C447.593567,306.092041 445.298706,300.356018 443.003876,294.619995 
	C442.415710,294.734711 441.827545,294.849396 441.239380,294.964081 
	C441.239380,301.377472 441.239380,307.790863 441.239380,315.388062 
	C438.377930,311.727722 436.485382,309.220612 434.499268,306.789948 
	C432.438507,304.267853 430.287231,301.819702 428.175537,299.339203 
	C427.565063,299.755127 426.954590,300.171051 426.344116,300.586975 
	C428.295532,306.328827 430.246979,312.070648 431.894989,318.106354 
	C431.894989,318.106354 431.596100,318.404755 430.936676,318.201080 
	C425.834961,315.305664 420.733276,312.410217 415.631561,309.514801 
	C415.234711,309.989594 414.837891,310.464386 414.441040,310.939148 
	C418.308777,315.860474 422.176514,320.781799 426.229431,325.938751 
	C419.675934,325.054443 413.613647,324.236389 407.551392,323.418335 
	C407.380737,323.981018 407.210083,324.543671 407.039459,325.106323 
	C412.342346,328.383423 417.645264,331.660492 423.125641,335.047272 
	C416.474426,336.425446 410.332520,337.698120 404.190643,338.970764 
	C404.207245,339.560211 404.223846,340.149689 404.240479,340.739166 
	C410.553436,342.018585 416.866394,343.297974 423.093445,344.559998 
	C417.545380,347.956848 411.987488,351.359711 406.429596,354.762573 
	C406.605499,355.264709 406.781433,355.766846 406.957367,356.268982 
	C412.923798,355.554260 418.890259,354.839539 425.116302,354.093719 
	C421.435944,359.498474 418.207153,364.240143 414.572784,369.118561 
	C414.638397,369.313293 414.704010,369.508026 414.769592,369.702759 
	C414.889648,369.504639 415.009705,369.306549 415.871490,369.357666 
z"/>
<path fill="#059842" opacity="1.000000" stroke="none" 
	d="
M473.989014,271.315552 
	C474.716522,270.994690 475.426453,270.989380 476.490173,270.968048 
	C475.886475,271.178375 474.928986,271.404724 473.989014,271.315552 
z"/>
<path fill="#059842" opacity="1.000000" stroke="none" 
	d="
M423.263885,271.240753 
	C423.841003,270.973267 424.554688,270.986328 425.625610,270.999695 
	C425.763000,274.348755 424.457489,272.319580 423.263885,271.240753 
z"/>
<path fill="#059842" opacity="1.000000" stroke="none" 
	d="
M448.956329,267.322479 
	C449.373352,267.023010 449.836914,267.012970 450.648163,267.001099 
	C450.669830,267.499359 450.343872,267.999481 450.017914,268.499603 
	C449.679596,268.203705 449.341248,267.907806 448.956329,267.322479 
z"/>
<path fill="#059842" opacity="1.000000" stroke="none" 
	d="
M450.543945,412.852478 
	C450.258331,413.075134 449.988770,413.060059 449.314453,413.021057 
	C449.459808,412.869659 450.009918,412.742218 450.543945,412.852478 
z"/>
<path fill="#069841" opacity="1.000000" stroke="none" 
	d="
M498.028076,395.685181 
	C497.734009,395.936188 497.223572,395.964233 496.330261,395.996338 
	C496.568817,395.820984 497.190277,395.641602 498.028076,395.685181 
z"/>
<path fill="#FAFDFB" opacity="1.000000" stroke="none" 
	d="
M540.440063,189.329391 
	C537.145508,182.687180 537.205994,176.108078 539.019714,169.545349 
	C540.704590,163.448822 545.032959,160.592651 551.331055,160.880371 
	C556.897278,161.134689 560.800842,164.292709 561.554504,170.560043 
	C562.118225,175.247833 562.096008,180.293106 560.966431,184.839218 
	C558.425781,195.063873 547.963074,197.336533 540.440063,189.329391 
z"/>
<path fill="#F8FCFA" opacity="1.000000" stroke="none" 
	d="
M504.687561,192.955505 
	C496.680115,192.636963 492.733734,189.601486 492.014069,182.124603 
	C491.549866,177.301544 491.912842,172.178299 493.072968,167.477814 
	C494.387695,162.150818 498.609406,159.832962 503.996918,159.922348 
	C509.362030,160.011383 513.265869,162.782700 514.095703,167.792099 
	C514.990540,173.193802 515.029236,178.927170 514.276550,184.354294 
	C513.626404,189.042374 510.109650,192.150940 504.687561,192.955505 
z"/>
<path fill="#059A3E" opacity="1.000000" stroke="none" 
	d="
M194.774246,363.662659 
	C185.496490,360.010712 181.616470,350.863586 185.213516,341.935974 
	C188.180649,334.571777 196.434341,331.142303 203.820068,334.204773 
	C210.467941,336.961304 213.967453,345.154907 211.930725,353.194824 
	C210.015717,360.754272 204.072723,364.502441 194.774246,363.662659 
z"/>
<path fill="#FFFEF7" opacity="1.000000" stroke="none" 
	d="
M432.198395,317.812500 
	C430.246979,312.070648 428.295532,306.328827 426.344116,300.586975 
	C426.954590,300.171051 427.565063,299.755127 428.175537,299.339203 
	C430.287231,301.819702 432.438507,304.267853 434.499268,306.789948 
	C436.485382,309.220612 438.377930,311.727722 441.239380,315.388062 
	C441.239380,307.790863 441.239380,301.377472 441.239380,294.964081 
	C441.827545,294.849396 442.415710,294.734711 443.003876,294.619995 
	C445.298706,300.356018 447.593567,306.092041 450.059479,312.255676 
	C452.396606,306.343384 454.642578,300.661652 456.888550,294.979950 
	C457.378113,295.033569 457.867645,295.087219 458.357178,295.140869 
	C458.357178,301.515259 458.357178,307.889648 458.357178,315.497040 
	C463.604980,309.554230 467.883301,304.709290 472.161621,299.864380 
	C472.696259,300.162720 473.230927,300.461060 473.765564,300.759399 
	C471.723907,306.690918 469.682251,312.622406 467.529846,318.875580 
	C473.321289,315.803864 479.136688,312.719421 484.952118,309.634979 
	C485.320435,310.086182 485.688782,310.537354 486.057098,310.988525 
	C482.072052,315.757385 478.087006,320.526215 473.786682,325.674591 
	C473.498871,326.288940 473.526276,326.523773 473.553711,326.758545 
	C473.762146,326.563202 473.970612,326.367859 474.179077,326.172546 
	C480.390381,325.264679 486.601624,324.356781 492.812897,323.448883 
	C493.060852,323.980927 493.308807,324.513000 493.556732,325.045044 
	C488.150970,328.411682 482.745178,331.778320 477.192261,335.236603 
	C483.369476,336.541260 489.628540,337.863190 495.887604,339.185120 
	C495.881470,339.795013 495.875336,340.404877 495.869232,341.014771 
	C489.526764,342.252411 483.184296,343.490051 476.708405,344.753723 
	C482.190643,348.093536 487.690460,351.444031 493.190277,354.794556 
	C492.984741,355.367523 492.779205,355.940521 492.573700,356.513489 
	C486.472717,355.689423 480.371735,354.865326 473.927460,353.994873 
	C477.940735,359.077728 481.795349,363.959595 485.649933,368.841431 
	C485.306976,369.306976 484.964020,369.772522 484.621094,370.238068 
	C478.959869,367.249298 473.298645,364.260529 467.493286,361.195648 
	C469.581055,367.317352 471.615295,373.282013 473.649506,379.246704 
	C473.132690,379.567780 472.615845,379.888855 472.099030,380.209930 
	C467.879700,375.488312 463.660370,370.766693 458.771637,365.295990 
	C458.771637,372.183228 458.771637,378.584137 458.771637,384.985016 
	C458.174103,385.088013 457.576569,385.191010 456.979034,385.294006 
	C454.658600,379.382263 452.338165,373.470490 449.959717,367.410980 
	C447.605286,373.334320 445.248260,379.264221 442.891205,385.194122 
	C442.373779,385.067474 441.856323,384.940826 441.338867,384.814178 
	C441.338867,378.478851 441.338867,372.143524 441.338867,364.746124 
	C436.380707,370.419495 432.207336,375.194916 428.033966,379.970306 
	C427.491943,379.728516 426.949921,379.486694 426.407867,379.244904 
	C428.247406,373.337189 430.086945,367.429443 431.951172,361.442413 
	C426.438629,364.155975 421.155060,366.756805 415.462219,369.202026 
	C415.052979,369.046387 414.978333,368.981781 414.978333,368.981781 
	C418.207153,364.240143 421.435944,359.498474 425.116302,354.093719 
	C418.890259,354.839539 412.923798,355.554260 406.957367,356.268982 
	C406.781433,355.766846 406.605499,355.264709 406.429596,354.762573 
	C411.987488,351.359711 417.545380,347.956848 423.093445,344.559998 
	C416.866394,343.297974 410.553436,342.018585 404.240479,340.739166 
	C404.223846,340.149689 404.207245,339.560211 404.190643,338.970764 
	C410.332520,337.698120 416.474426,336.425446 423.125641,335.047272 
	C417.645264,331.660492 412.342346,328.383423 407.039459,325.106323 
	C407.210083,324.543671 407.380737,323.981018 407.551392,323.418335 
	C413.613647,324.236389 419.675934,325.054443 426.229431,325.938751 
	C422.176514,320.781799 418.308777,315.860474 414.441040,310.939148 
	C414.837891,310.464386 415.234711,309.989594 415.631561,309.514801 
	C420.733276,312.410217 425.834961,315.305664 431.439362,318.490204 
	C432.171265,318.761230 432.400482,318.743134 432.629700,318.725037 
	C432.485931,318.420868 432.342163,318.116669 432.198395,317.812500 
M427.175293,326.486359 
	C427.175293,326.486359 427.423096,326.563110 427.423096,326.563110 
	C427.423096,326.563110 427.352997,326.390045 427.175293,326.486359 
z"/>
<path fill="#FFFEF7" opacity="1.000000" stroke="none" 
	d="
M415.091370,369.077423 
	C415.009705,369.306549 414.889648,369.504639 414.769592,369.702759 
	C414.704010,369.508026 414.638397,369.313293 414.775574,369.050171 
	C414.978333,368.981781 415.052979,369.046387 415.091370,369.077423 
z"/>
<path fill="#FCDA05" opacity="1.000000" stroke="none" 
	d="
M474.122131,326.118286 
	C473.970612,326.367859 473.762146,326.563202 473.553711,326.758545 
	C473.526276,326.523773 473.498871,326.288940 473.711304,326.004883 
	C473.951172,325.955597 474.065186,326.064026 474.122131,326.118286 
z"/>
<path fill="#FCDA05" opacity="1.000000" stroke="none" 
	d="
M427.264160,326.438202 
	C427.352997,326.390045 427.423096,326.563110 427.423096,326.563110 
	C427.423096,326.563110 427.175293,326.486359 427.264160,326.438202 
z"/>
<path fill="#FCDA05" opacity="1.000000" stroke="none" 
	d="
M432.046692,317.959412 
	C432.342163,318.116669 432.485931,318.420868 432.629700,318.725037 
	C432.400482,318.743134 432.171265,318.761230 431.769073,318.592041 
	C431.596100,318.404755 431.894989,318.106354 432.046692,317.959412 
z"/>
</svg>